<?xml version="1.0" encoding="us-ascii" standalone="no"?><svg xmlns="http://www.w3.org/2000/svg" xmlns:xlink="http://www.w3.org/1999/xlink" contentStyleType="text/css" height="690px" preserveAspectRatio="none" style="width:1956px;height:690px;background:#FFFFFF;" version="1.1" viewBox="0 0 1956 690" width="1956px" zoomAndPan="magnify"><defs/><g><!--class Entity--><g id="elem_Entity"><rect codeLine="2" fill="#F1F1F1" height="32" id="Entity" rx="2.5" ry="2.5" style="stroke:#181818;stroke-width:0.5;" width="70" x="985.5" y="99"/><ellipse cx="1000.5" cy="115" fill="#ADD1B2" rx="11" ry="11" style="stroke:#181818;stroke-width:1.0;"/><path d="M1003.4688,120.6406 Q1002.8906,120.9375 1002.25,121.0781 Q1001.6094,121.2344 1000.9063,121.2344 Q998.4063,121.2344 997.0781,119.5938 Q995.7656,117.9375 995.7656,114.8125 Q995.7656,111.6875 997.0781,110.0313 Q998.4063,108.375 1000.9063,108.375 Q1001.6094,108.375 1002.25,108.5313 Q1002.9063,108.6875 1003.4688,108.9844 L1003.4688,111.7031 Q1002.8438,111.125 1002.25,110.8594 Q1001.6563,110.5781 1001.0313,110.5781 Q999.6875,110.5781 999,111.6563 Q998.3125,112.7188 998.3125,114.8125 Q998.3125,116.9063 999,117.9844 Q999.6875,119.0469 1001.0313,119.0469 Q1001.6563,119.0469 1002.25,118.7813 Q1002.8438,118.5 1003.4688,117.9219 L1003.4688,120.6406 Z " fill="#000000"/><text fill="#000000" font-family="sans-serif" font-size="14" lengthAdjust="spacing" textLength="38" x="1014.5" y="119.8467">Entity</text></g><!--class FamixBaseElement--><g id="elem_FamixBaseElement"><rect codeLine="649" fill="#F1F1F1" height="32" id="FamixBaseElement" rx="2.5" ry="2.5" style="stroke:#181818;stroke-width:0.5;" width="163" x="939" y="7"/><ellipse cx="954" cy="23" fill="#A9DCDF" rx="11" ry="11" style="stroke:#181818;stroke-width:1.0;"/><path d="M954.1094,18.3438 L952.9531,23.4219 L955.2813,23.4219 L954.1094,18.3438 Z M952.625,16.1094 L955.6094,16.1094 L958.9688,28.5 L956.5156,28.5 L955.75,25.4375 L952.4688,25.4375 L951.7188,28.5 L949.2813,28.5 L952.625,16.1094 Z " fill="#000000"/><text fill="#000000" font-family="sans-serif" font-size="14" font-style="italic" lengthAdjust="spacing" textLength="131" x="968" y="27.8467">FamixBaseElement</text></g><!--class SourceLanguage--><g id="elem_SourceLanguage"><rect codeLine="6" fill="#F1F1F1" height="32" id="SourceLanguage" rx="2.5" ry="2.5" style="stroke:#181818;stroke-width:0.5;" width="149" x="772" y="191"/><ellipse cx="787" cy="207" fill="#ADD1B2" rx="11" ry="11" style="stroke:#181818;stroke-width:1.0;"/><path d="M789.9688,212.6406 Q789.3906,212.9375 788.75,213.0781 Q788.1094,213.2344 787.4063,213.2344 Q784.9063,213.2344 783.5781,211.5938 Q782.2656,209.9375 782.2656,206.8125 Q782.2656,203.6875 783.5781,202.0313 Q784.9063,200.375 787.4063,200.375 Q788.1094,200.375 788.75,200.5313 Q789.4063,200.6875 789.9688,200.9844 L789.9688,203.7031 Q789.3438,203.125 788.75,202.8594 Q788.1563,202.5781 787.5313,202.5781 Q786.1875,202.5781 785.5,203.6563 Q784.8125,204.7188 784.8125,206.8125 Q784.8125,208.9063 785.5,209.9844 Q786.1875,211.0469 787.5313,211.0469 Q788.1563,211.0469 788.75,210.7813 Q789.3438,210.5 789.9688,209.9219 L789.9688,212.6406 Z " fill="#000000"/><text fill="#000000" font-family="sans-serif" font-size="14" lengthAdjust="spacing" textLength="117" x="801" y="211.8467">SourceLanguage</text></g><!--class Comment--><g id="elem_Comment"><rect codeLine="14" fill="#F1F1F1" height="32" id="Comment" rx="2.5" ry="2.5" style="stroke:#181818;stroke-width:0.5;" width="100" x="625.5" y="283"/><ellipse cx="640.5" cy="299" fill="#ADD1B2" rx="11" ry="11" style="stroke:#181818;stroke-width:1.0;"/><path d="M643.4688,304.6406 Q642.8906,304.9375 642.25,305.0781 Q641.6094,305.2344 640.9063,305.2344 Q638.4063,305.2344 637.0781,303.5938 Q635.7656,301.9375 635.7656,298.8125 Q635.7656,295.6875 637.0781,294.0313 Q638.4063,292.375 640.9063,292.375 Q641.6094,292.375 642.25,292.5313 Q642.9063,292.6875 643.4688,292.9844 L643.4688,295.7031 Q642.8438,295.125 642.25,294.8594 Q641.6563,294.5781 641.0313,294.5781 Q639.6875,294.5781 639,295.6563 Q638.3125,296.7188 638.3125,298.8125 Q638.3125,300.9063 639,301.9844 Q639.6875,303.0469 641.0313,303.0469 Q641.6563,303.0469 642.25,302.7813 Q642.8438,302.5 643.4688,301.9219 L643.4688,304.6406 Z " fill="#000000"/><text fill="#000000" font-family="sans-serif" font-size="14" lengthAdjust="spacing" textLength="68" x="654.5" y="303.8467">Comment</text></g><!--class SourcedEntity--><g id="elem_SourcedEntity"><rect codeLine="187" fill="#F1F1F1" height="32" id="SourcedEntity" rx="2.5" ry="2.5" style="stroke:#181818;stroke-width:0.5;" width="128" x="956.5" y="191"/><ellipse cx="971.5" cy="207" fill="#ADD1B2" rx="11" ry="11" style="stroke:#181818;stroke-width:1.0;"/><path d="M974.4688,212.6406 Q973.8906,212.9375 973.25,213.0781 Q972.6094,213.2344 971.9063,213.2344 Q969.4063,213.2344 968.0781,211.5938 Q966.7656,209.9375 966.7656,206.8125 Q966.7656,203.6875 968.0781,202.0313 Q969.4063,200.375 971.9063,200.375 Q972.6094,200.375 973.25,200.5313 Q973.9063,200.6875 974.4688,200.9844 L974.4688,203.7031 Q973.8438,203.125 973.25,202.8594 Q972.6563,202.5781 972.0313,202.5781 Q970.6875,202.5781 970,203.6563 Q969.3125,204.7188 969.3125,206.8125 Q969.3125,208.9063 970,209.9844 Q970.6875,211.0469 972.0313,211.0469 Q972.6563,211.0469 973.25,210.7813 Q973.8438,210.5 974.4688,209.9219 L974.4688,212.6406 Z " fill="#000000"/><text fill="#000000" font-family="sans-serif" font-size="14" lengthAdjust="spacing" textLength="96" x="985.5" y="211.8467">SourcedEntity</text></g><!--class SourceAnchor--><g id="elem_SourceAnchor"><rect codeLine="27" fill="#F1F1F1" height="32" id="SourceAnchor" rx="2.5" ry="2.5" style="stroke:#181818;stroke-width:0.5;" width="130" x="1265.5" y="191"/><ellipse cx="1280.5" cy="207" fill="#ADD1B2" rx="11" ry="11" style="stroke:#181818;stroke-width:1.0;"/><path d="M1283.4688,212.6406 Q1282.8906,212.9375 1282.25,213.0781 Q1281.6094,213.2344 1280.9063,213.2344 Q1278.4063,213.2344 1277.0781,211.5938 Q1275.7656,209.9375 1275.7656,206.8125 Q1275.7656,203.6875 1277.0781,202.0313 Q1278.4063,200.375 1280.9063,200.375 Q1281.6094,200.375 1282.25,200.5313 Q1282.9063,200.6875 1283.4688,200.9844 L1283.4688,203.7031 Q1282.8438,203.125 1282.25,202.8594 Q1281.6563,202.5781 1281.0313,202.5781 Q1279.6875,202.5781 1279,203.6563 Q1278.3125,204.7188 1278.3125,206.8125 Q1278.3125,208.9063 1279,209.9844 Q1279.6875,211.0469 1281.0313,211.0469 Q1281.6563,211.0469 1282.25,210.7813 Q1282.8438,210.5 1283.4688,209.9219 L1283.4688,212.6406 Z " fill="#000000"/><text fill="#000000" font-family="sans-serif" font-size="14" lengthAdjust="spacing" textLength="98" x="1294.5" y="211.8467">SourceAnchor</text></g><!--class FQNFunctions--><g id="elem_FQNFunctions"><rect codeLine="34" fill="#F1F1F1" height="32" id="FQNFunctions" rx="2.5" ry="2.5" style="stroke:#181818;stroke-width:0.5;" width="129" x="33" y="7"/><ellipse cx="48" cy="23" fill="#ADD1B2" rx="11" ry="11" style="stroke:#181818;stroke-width:1.0;"/><path d="M50.9688,28.6406 Q50.3906,28.9375 49.75,29.0781 Q49.1094,29.2344 48.4063,29.2344 Q45.9063,29.2344 44.5781,27.5938 Q43.2656,25.9375 43.2656,22.8125 Q43.2656,19.6875 44.5781,18.0313 Q45.9063,16.375 48.4063,16.375 Q49.1094,16.375 49.75,16.5313 Q50.4063,16.6875 50.9688,16.9844 L50.9688,19.7031 Q50.3438,19.125 49.75,18.8594 Q49.1563,18.5781 48.5313,18.5781 Q47.1875,18.5781 46.5,19.6563 Q45.8125,20.7188 45.8125,22.8125 Q45.8125,24.9063 46.5,25.9844 Q47.1875,27.0469 48.5313,27.0469 Q49.1563,27.0469 49.75,26.7813 Q50.3438,26.5 50.9688,25.9219 L50.9688,28.6406 Z " fill="#000000"/><text fill="#000000" font-family="sans-serif" font-size="14" lengthAdjust="spacing" textLength="97" x="62" y="27.8467">FQNFunctions</text></g><!--class FamixFunctionsIndex--><g id="elem_FamixFunctionsIndex"><rect codeLine="38" fill="#F1F1F1" height="32" id="FamixFunctionsIndex" rx="2.5" ry="2.5" style="stroke:#181818;stroke-width:0.5;" width="176" x="197.5" y="7"/><ellipse cx="212.5" cy="23" fill="#ADD1B2" rx="11" ry="11" style="stroke:#181818;stroke-width:1.0;"/><path d="M215.4688,28.6406 Q214.8906,28.9375 214.25,29.0781 Q213.6094,29.2344 212.9063,29.2344 Q210.4063,29.2344 209.0781,27.5938 Q207.7656,25.9375 207.7656,22.8125 Q207.7656,19.6875 209.0781,18.0313 Q210.4063,16.375 212.9063,16.375 Q213.6094,16.375 214.25,16.5313 Q214.9063,16.6875 215.4688,16.9844 L215.4688,19.7031 Q214.8438,19.125 214.25,18.8594 Q213.6563,18.5781 213.0313,18.5781 Q211.6875,18.5781 211,19.6563 Q210.3125,20.7188 210.3125,22.8125 Q210.3125,24.9063 211,25.9844 Q211.6875,27.0469 213.0313,27.0469 Q213.6563,27.0469 214.25,26.7813 Q214.8438,26.5 215.4688,25.9219 L215.4688,28.6406 Z " fill="#000000"/><text fill="#000000" font-family="sans-serif" font-size="14" lengthAdjust="spacing" textLength="144" x="226.5" y="27.8467">FamixFunctionsIndex</text></g><!--class SearchParameters--><g id="elem_SearchParameters"><rect codeLine="43" fill="#F1F1F1" height="32" id="SearchParameters" rx="2.5" ry="2.5" style="stroke:#181818;stroke-width:0.5;" width="157" x="409" y="7"/><ellipse cx="424" cy="23" fill="#B4A7E5" rx="11" ry="11" style="stroke:#181818;stroke-width:1.0;"/><path d="M419.9219,18.7656 L419.9219,16.6094 L427.3125,16.6094 L427.3125,18.7656 L424.8438,18.7656 L424.8438,26.8438 L427.3125,26.8438 L427.3125,29 L419.9219,29 L419.9219,26.8438 L422.3906,26.8438 L422.3906,18.7656 L419.9219,18.7656 Z " fill="#000000"/><text fill="#000000" font-family="sans-serif" font-size="14" font-style="italic" lengthAdjust="spacing" textLength="125" x="438" y="27.8467">SearchParameters</text></g><!--class FamixFunctionsAssociations--><g id="elem_FamixFunctionsAssociations"><rect codeLine="48" fill="#F1F1F1" height="32" id="FamixFunctionsAssociations" rx="2.5" ry="2.5" style="stroke:#181818;stroke-width:0.5;" width="226" x="601.5" y="7"/><ellipse cx="616.5" cy="23" fill="#ADD1B2" rx="11" ry="11" style="stroke:#181818;stroke-width:1.0;"/><path d="M619.4688,28.6406 Q618.8906,28.9375 618.25,29.0781 Q617.6094,29.2344 616.9063,29.2344 Q614.4063,29.2344 613.0781,27.5938 Q611.7656,25.9375 611.7656,22.8125 Q611.7656,19.6875 613.0781,18.0313 Q614.4063,16.375 616.9063,16.375 Q617.6094,16.375 618.25,16.5313 Q618.9063,16.6875 619.4688,16.9844 L619.4688,19.7031 Q618.8438,19.125 618.25,18.8594 Q617.6563,18.5781 617.0313,18.5781 Q615.6875,18.5781 615,19.6563 Q614.3125,20.7188 614.3125,22.8125 Q614.3125,24.9063 615,25.9844 Q615.6875,27.0469 617.0313,27.0469 Q617.6563,27.0469 618.25,26.7813 Q618.8438,26.5 619.4688,25.9219 L619.4688,28.6406 Z " fill="#000000"/><text fill="#000000" font-family="sans-serif" font-size="14" lengthAdjust="spacing" textLength="194" x="630.5" y="27.8467">FamixFunctionsAssociations</text></g><!--class FamixFunctionsTypes--><g id="elem_FamixFunctionsTypes"><rect codeLine="62" fill="#F1F1F1" height="32" id="FamixFunctionsTypes" rx="2.5" ry="2.5" style="stroke:#181818;stroke-width:0.5;" width="181" x="7" y="99"/><ellipse cx="22" cy="115" fill="#ADD1B2" rx="11" ry="11" style="stroke:#181818;stroke-width:1.0;"/><path d="M24.9688,120.6406 Q24.3906,120.9375 23.75,121.0781 Q23.1094,121.2344 22.4063,121.2344 Q19.9063,121.2344 18.5781,119.5938 Q17.2656,117.9375 17.2656,114.8125 Q17.2656,111.6875 18.5781,110.0313 Q19.9063,108.375 22.4063,108.375 Q23.1094,108.375 23.75,108.5313 Q24.4063,108.6875 24.9688,108.9844 L24.9688,111.7031 Q24.3438,111.125 23.75,110.8594 Q23.1563,110.5781 22.5313,110.5781 Q21.1875,110.5781 20.5,111.6563 Q19.8125,112.7188 19.8125,114.8125 Q19.8125,116.9063 20.5,117.9844 Q21.1875,119.0469 22.5313,119.0469 Q23.1563,119.0469 23.75,118.7813 Q24.3438,118.5 24.9688,117.9219 L24.9688,120.6406 Z " fill="#000000"/><text fill="#000000" font-family="sans-serif" font-size="14" lengthAdjust="spacing" textLength="149" x="36" y="119.8467">FamixFunctionsTypes</text></g><!--class FamixFunctions--><g id="elem_FamixFunctions"><rect codeLine="71" fill="#F1F1F1" height="32" id="FamixFunctions" rx="2.5" ry="2.5" style="stroke:#181818;stroke-width:0.5;" width="139" x="223" y="99"/><ellipse cx="238" cy="115" fill="#ADD1B2" rx="11" ry="11" style="stroke:#181818;stroke-width:1.0;"/><path d="M240.9688,120.6406 Q240.3906,120.9375 239.75,121.0781 Q239.1094,121.2344 238.4063,121.2344 Q235.9063,121.2344 234.5781,119.5938 Q233.2656,117.9375 233.2656,114.8125 Q233.2656,111.6875 234.5781,110.0313 Q235.9063,108.375 238.4063,108.375 Q239.1094,108.375 239.75,108.5313 Q240.4063,108.6875 240.9688,108.9844 L240.9688,111.7031 Q240.3438,111.125 239.75,110.8594 Q239.1563,110.5781 238.5313,110.5781 Q237.1875,110.5781 236.5,111.6563 Q235.8125,112.7188 235.8125,114.8125 Q235.8125,116.9063 236.5,117.9844 Q237.1875,119.0469 238.5313,119.0469 Q239.1563,119.0469 239.75,118.7813 Q240.3438,118.5 240.9688,117.9219 L240.9688,120.6406 Z " fill="#000000"/><text fill="#000000" font-family="sans-serif" font-size="14" lengthAdjust="spacing" textLength="107" x="252" y="119.8467">FamixFunctions</text></g><!--class ProcessFiles--><g id="elem_ProcessFiles"><rect codeLine="107" fill="#F1F1F1" height="32" id="ProcessFiles" rx="2.5" ry="2.5" style="stroke:#181818;stroke-width:0.5;" width="119" x="397" y="99"/><ellipse cx="412" cy="115" fill="#ADD1B2" rx="11" ry="11" style="stroke:#181818;stroke-width:1.0;"/><path d="M414.9688,120.6406 Q414.3906,120.9375 413.75,121.0781 Q413.1094,121.2344 412.4063,121.2344 Q409.9063,121.2344 408.5781,119.5938 Q407.2656,117.9375 407.2656,114.8125 Q407.2656,111.6875 408.5781,110.0313 Q409.9063,108.375 412.4063,108.375 Q413.1094,108.375 413.75,108.5313 Q414.4063,108.6875 414.9688,108.9844 L414.9688,111.7031 Q414.3438,111.125 413.75,110.8594 Q413.1563,110.5781 412.5313,110.5781 Q411.1875,110.5781 410.5,111.6563 Q409.8125,112.7188 409.8125,114.8125 Q409.8125,116.9063 410.5,117.9844 Q411.1875,119.0469 412.5313,119.0469 Q413.1563,119.0469 413.75,118.7813 Q414.3438,118.5 414.9688,117.9219 L414.9688,120.6406 Z " fill="#000000"/><text fill="#000000" font-family="sans-serif" font-size="14" lengthAdjust="spacing" textLength="87" x="426" y="119.8467">ProcessFiles</text></g><!--class ProcessAccesses--><g id="elem_ProcessAccesses"><rect codeLine="154" fill="#F1F1F1" height="32" id="ProcessAccesses" rx="2.5" ry="2.5" style="stroke:#181818;stroke-width:0.5;" width="155" x="551" y="99"/><ellipse cx="566" cy="115" fill="#ADD1B2" rx="11" ry="11" style="stroke:#181818;stroke-width:1.0;"/><path d="M568.9688,120.6406 Q568.3906,120.9375 567.75,121.0781 Q567.1094,121.2344 566.4063,121.2344 Q563.9063,121.2344 562.5781,119.5938 Q561.2656,117.9375 561.2656,114.8125 Q561.2656,111.6875 562.5781,110.0313 Q563.9063,108.375 566.4063,108.375 Q567.1094,108.375 567.75,108.5313 Q568.4063,108.6875 568.9688,108.9844 L568.9688,111.7031 Q568.3438,111.125 567.75,110.8594 Q567.1563,110.5781 566.5313,110.5781 Q565.1875,110.5781 564.5,111.6563 Q563.8125,112.7188 563.8125,114.8125 Q563.8125,116.9063 564.5,117.9844 Q565.1875,119.0469 566.5313,119.0469 Q567.1563,119.0469 567.75,118.7813 Q568.3438,118.5 568.9688,117.9219 L568.9688,120.6406 Z " fill="#000000"/><text fill="#000000" font-family="sans-serif" font-size="14" lengthAdjust="spacing" textLength="123" x="580" y="119.8467">ProcessAccesses</text></g><!--class ProcessInvocations--><g id="elem_ProcessInvocations"><rect codeLine="159" fill="#F1F1F1" height="32" id="ProcessInvocations" rx="2.5" ry="2.5" style="stroke:#181818;stroke-width:0.5;" width="166" x="14.5" y="191"/><ellipse cx="29.5" cy="207" fill="#ADD1B2" rx="11" ry="11" style="stroke:#181818;stroke-width:1.0;"/><path d="M32.4688,212.6406 Q31.8906,212.9375 31.25,213.0781 Q30.6094,213.2344 29.9063,213.2344 Q27.4063,213.2344 26.0781,211.5938 Q24.7656,209.9375 24.7656,206.8125 Q24.7656,203.6875 26.0781,202.0313 Q27.4063,200.375 29.9063,200.375 Q30.6094,200.375 31.25,200.5313 Q31.9063,200.6875 32.4688,200.9844 L32.4688,203.7031 Q31.8438,203.125 31.25,202.8594 Q30.6563,202.5781 30.0313,202.5781 Q28.6875,202.5781 28,203.6563 Q27.3125,204.7188 27.3125,206.8125 Q27.3125,208.9063 28,209.9844 Q28.6875,211.0469 30.0313,211.0469 Q30.6563,211.0469 31.25,210.7813 Q31.8438,210.5 32.4688,209.9219 L32.4688,212.6406 Z " fill="#000000"/><text fill="#000000" font-family="sans-serif" font-size="14" lengthAdjust="spacing" textLength="134" x="43.5" y="211.8467">ProcessInvocations</text></g><!--class ProcessInheritances--><g id="elem_ProcessInheritances"><rect codeLine="164" fill="#F1F1F1" height="32" id="ProcessInheritances" rx="2.5" ry="2.5" style="stroke:#181818;stroke-width:0.5;" width="173" x="216" y="191"/><ellipse cx="231" cy="207" fill="#ADD1B2" rx="11" ry="11" style="stroke:#181818;stroke-width:1.0;"/><path d="M233.9688,212.6406 Q233.3906,212.9375 232.75,213.0781 Q232.1094,213.2344 231.4063,213.2344 Q228.9063,213.2344 227.5781,211.5938 Q226.2656,209.9375 226.2656,206.8125 Q226.2656,203.6875 227.5781,202.0313 Q228.9063,200.375 231.4063,200.375 Q232.1094,200.375 232.75,200.5313 Q233.4063,200.6875 233.9688,200.9844 L233.9688,203.7031 Q233.3438,203.125 232.75,202.8594 Q232.1563,202.5781 231.5313,202.5781 Q230.1875,202.5781 229.5,203.6563 Q228.8125,204.7188 228.8125,206.8125 Q228.8125,208.9063 229.5,209.9844 Q230.1875,211.0469 231.5313,211.0469 Q232.1563,211.0469 232.75,210.7813 Q233.3438,210.5 233.9688,209.9219 L233.9688,212.6406 Z " fill="#000000"/><text fill="#000000" font-family="sans-serif" font-size="14" lengthAdjust="spacing" textLength="141" x="245" y="211.8467">ProcessInheritances</text></g><!--class ProcessImportClauses--><g id="elem_ProcessImportClauses"><rect codeLine="169" fill="#F1F1F1" height="32" id="ProcessImportClauses" rx="2.5" ry="2.5" style="stroke:#181818;stroke-width:0.5;" width="187" x="424" y="191"/><ellipse cx="439" cy="207" fill="#ADD1B2" rx="11" ry="11" style="stroke:#181818;stroke-width:1.0;"/><path d="M441.9688,212.6406 Q441.3906,212.9375 440.75,213.0781 Q440.1094,213.2344 439.4063,213.2344 Q436.9063,213.2344 435.5781,211.5938 Q434.2656,209.9375 434.2656,206.8125 Q434.2656,203.6875 435.5781,202.0313 Q436.9063,200.375 439.4063,200.375 Q440.1094,200.375 440.75,200.5313 Q441.4063,200.6875 441.9688,200.9844 L441.9688,203.7031 Q441.3438,203.125 440.75,202.8594 Q440.1563,202.5781 439.5313,202.5781 Q438.1875,202.5781 437.5,203.6563 Q436.8125,204.7188 436.8125,206.8125 Q436.8125,208.9063 437.5,209.9844 Q438.1875,211.0469 439.5313,211.0469 Q440.1563,211.0469 440.75,210.7813 Q441.3438,210.5 441.9688,209.9219 L441.9688,212.6406 Z " fill="#000000"/><text fill="#000000" font-family="sans-serif" font-size="14" lengthAdjust="spacing" textLength="155" x="453" y="211.8467">ProcessImportClauses</text></g><!--class Importer--><g id="elem_Importer"><rect codeLine="174" fill="#F1F1F1" height="32" id="Importer" rx="2.5" ry="2.5" style="stroke:#181818;stroke-width:0.5;" width="90" x="646.5" y="191"/><ellipse cx="661.5" cy="207" fill="#ADD1B2" rx="11" ry="11" style="stroke:#181818;stroke-width:1.0;"/><path d="M664.4688,212.6406 Q663.8906,212.9375 663.25,213.0781 Q662.6094,213.2344 661.9063,213.2344 Q659.4063,213.2344 658.0781,211.5938 Q656.7656,209.9375 656.7656,206.8125 Q656.7656,203.6875 658.0781,202.0313 Q659.4063,200.375 661.9063,200.375 Q662.6094,200.375 663.25,200.5313 Q663.9063,200.6875 664.4688,200.9844 L664.4688,203.7031 Q663.8438,203.125 663.25,202.8594 Q662.6563,202.5781 662.0313,202.5781 Q660.6875,202.5781 660,203.6563 Q659.3125,204.7188 659.3125,206.8125 Q659.3125,208.9063 660,209.9844 Q660.6875,211.0469 662.0313,211.0469 Q662.6563,211.0469 663.25,210.7813 Q663.8438,210.5 664.4688,209.9219 L664.4688,212.6406 Z " fill="#000000"/><text fill="#000000" font-family="sans-serif" font-size="14" lengthAdjust="spacing" textLength="58" x="675.5" y="211.8467">Importer</text></g><!--class Association--><g id="elem_Association"><rect codeLine="203" fill="#F1F1F1" height="32" id="Association" rx="2.5" ry="2.5" style="stroke:#181818;stroke-width:0.5;" width="111" x="761" y="283"/><ellipse cx="776" cy="299" fill="#ADD1B2" rx="11" ry="11" style="stroke:#181818;stroke-width:1.0;"/><path d="M778.9688,304.6406 Q778.3906,304.9375 777.75,305.0781 Q777.1094,305.2344 776.4063,305.2344 Q773.9063,305.2344 772.5781,303.5938 Q771.2656,301.9375 771.2656,298.8125 Q771.2656,295.6875 772.5781,294.0313 Q773.9063,292.375 776.4063,292.375 Q777.1094,292.375 777.75,292.5313 Q778.4063,292.6875 778.9688,292.9844 L778.9688,295.7031 Q778.3438,295.125 777.75,294.8594 Q777.1563,294.5781 776.5313,294.5781 Q775.1875,294.5781 774.5,295.6563 Q773.8125,296.7188 773.8125,298.8125 Q773.8125,300.9063 774.5,301.9844 Q775.1875,303.0469 776.5313,303.0469 Q777.1563,303.0469 777.75,302.7813 Q778.3438,302.5 778.9688,301.9219 L778.9688,304.6406 Z " fill="#000000"/><text fill="#000000" font-family="sans-serif" font-size="14" lengthAdjust="spacing" textLength="79" x="790" y="303.8467">Association</text></g><!--class Namespace--><g id="elem_Namespace"><rect codeLine="213" fill="#F1F1F1" height="32" id="Namespace" rx="2.5" ry="2.5" style="stroke:#181818;stroke-width:0.5;" width="114" x="191.5" y="559"/><ellipse cx="206.5" cy="575" fill="#ADD1B2" rx="11" ry="11" style="stroke:#181818;stroke-width:1.0;"/><path d="M209.4688,580.6406 Q208.8906,580.9375 208.25,581.0781 Q207.6094,581.2344 206.9063,581.2344 Q204.4063,581.2344 203.0781,579.5938 Q201.7656,577.9375 201.7656,574.8125 Q201.7656,571.6875 203.0781,570.0313 Q204.4063,568.375 206.9063,568.375 Q207.6094,568.375 208.25,568.5313 Q208.9063,568.6875 209.4688,568.9844 L209.4688,571.7031 Q208.8438,571.125 208.25,570.8594 Q207.6563,570.5781 207.0313,570.5781 Q205.6875,570.5781 205,571.6563 Q204.3125,572.7188 204.3125,574.8125 Q204.3125,576.9063 205,577.9844 Q205.6875,579.0469 207.0313,579.0469 Q207.6563,579.0469 208.25,578.7813 Q208.8438,578.5 209.4688,577.9219 L209.4688,580.6406 Z " fill="#000000"/><text fill="#000000" font-family="sans-serif" font-size="14" lengthAdjust="spacing" textLength="82" x="220.5" y="579.8467">Namespace</text></g><!--class ScopingEntity--><g id="elem_ScopingEntity"><rect codeLine="220" fill="#F1F1F1" height="32" id="ScopingEntity" rx="2.5" ry="2.5" style="stroke:#181818;stroke-width:0.5;" width="126" x="332.5" y="467"/><ellipse cx="347.5" cy="483" fill="#ADD1B2" rx="11" ry="11" style="stroke:#181818;stroke-width:1.0;"/><path d="M350.4688,488.6406 Q349.8906,488.9375 349.25,489.0781 Q348.6094,489.2344 347.9063,489.2344 Q345.4063,489.2344 344.0781,487.5938 Q342.7656,485.9375 342.7656,482.8125 Q342.7656,479.6875 344.0781,478.0313 Q345.4063,476.375 347.9063,476.375 Q348.6094,476.375 349.25,476.5313 Q349.9063,476.6875 350.4688,476.9844 L350.4688,479.7031 Q349.8438,479.125 349.25,478.8594 Q348.6563,478.5781 348.0313,478.5781 Q346.6875,478.5781 346,479.6563 Q345.3125,480.7188 345.3125,482.8125 Q345.3125,484.9063 346,485.9844 Q346.6875,487.0469 348.0313,487.0469 Q348.6563,487.0469 349.25,486.7813 Q349.8438,486.5 350.4688,485.9219 L350.4688,488.6406 Z " fill="#000000"/><text fill="#000000" font-family="sans-serif" font-size="14" lengthAdjust="spacing" textLength="94" x="361.5" y="487.8467">ScopingEntity</text></g><!--class ContainerEntity--><g id="elem_ContainerEntity"><rect codeLine="476" fill="#F1F1F1" height="32" id="ContainerEntity" rx="2.5" ry="2.5" style="stroke:#181818;stroke-width:0.5;" width="137" x="1021" y="375"/><ellipse cx="1036" cy="391" fill="#ADD1B2" rx="11" ry="11" style="stroke:#181818;stroke-width:1.0;"/><path d="M1038.9688,396.6406 Q1038.3906,396.9375 1037.75,397.0781 Q1037.1094,397.2344 1036.4063,397.2344 Q1033.9063,397.2344 1032.5781,395.5938 Q1031.2656,393.9375 1031.2656,390.8125 Q1031.2656,387.6875 1032.5781,386.0313 Q1033.9063,384.375 1036.4063,384.375 Q1037.1094,384.375 1037.75,384.5313 Q1038.4063,384.6875 1038.9688,384.9844 L1038.9688,387.7031 Q1038.3438,387.125 1037.75,386.8594 Q1037.1563,386.5781 1036.5313,386.5781 Q1035.1875,386.5781 1034.5,387.6563 Q1033.8125,388.7188 1033.8125,390.8125 Q1033.8125,392.9063 1034.5,393.9844 Q1035.1875,395.0469 1036.5313,395.0469 Q1037.1563,395.0469 1037.75,394.7813 Q1038.3438,394.5 1038.9688,393.9219 L1038.9688,396.6406 Z " fill="#000000"/><text fill="#000000" font-family="sans-serif" font-size="14" lengthAdjust="spacing" textLength="105" x="1050" y="395.8467">ContainerEntity</text></g><!--class ScriptEntity--><g id="elem_ScriptEntity"><rect codeLine="227" fill="#F1F1F1" height="32" id="ScriptEntity" rx="2.5" ry="2.5" style="stroke:#181818;stroke-width:0.5;" width="109" x="341" y="559"/><ellipse cx="356" cy="575" fill="#ADD1B2" rx="11" ry="11" style="stroke:#181818;stroke-width:1.0;"/><path d="M358.9688,580.6406 Q358.3906,580.9375 357.75,581.0781 Q357.1094,581.2344 356.4063,581.2344 Q353.9063,581.2344 352.5781,579.5938 Q351.2656,577.9375 351.2656,574.8125 Q351.2656,571.6875 352.5781,570.0313 Q353.9063,568.375 356.4063,568.375 Q357.1094,568.375 357.75,568.5313 Q358.4063,568.6875 358.9688,568.9844 L358.9688,571.7031 Q358.3438,571.125 357.75,570.8594 Q357.1563,570.5781 356.5313,570.5781 Q355.1875,570.5781 354.5,571.6563 Q353.8125,572.7188 353.8125,574.8125 Q353.8125,576.9063 354.5,577.9844 Q355.1875,579.0469 356.5313,579.0469 Q357.1563,579.0469 357.75,578.7813 Q358.3438,578.5 358.9688,577.9219 L358.9688,580.6406 Z " fill="#000000"/><text fill="#000000" font-family="sans-serif" font-size="14" lengthAdjust="spacing" textLength="77" x="370" y="579.8467">ScriptEntity</text></g><!--class Module--><g id="elem_Module"><rect codeLine="237" fill="#F1F1F1" height="32" id="Module" rx="2.5" ry="2.5" style="stroke:#181818;stroke-width:0.5;" width="83" x="333" y="651"/><ellipse cx="348" cy="667" fill="#ADD1B2" rx="11" ry="11" style="stroke:#181818;stroke-width:1.0;"/><path d="M350.9688,672.6406 Q350.3906,672.9375 349.75,673.0781 Q349.1094,673.2344 348.4063,673.2344 Q345.9063,673.2344 344.5781,671.5938 Q343.2656,669.9375 343.2656,666.8125 Q343.2656,663.6875 344.5781,662.0313 Q345.9063,660.375 348.4063,660.375 Q349.1094,660.375 349.75,660.5313 Q350.4063,660.6875 350.9688,660.9844 L350.9688,663.7031 Q350.3438,663.125 349.75,662.8594 Q349.1563,662.5781 348.5313,662.5781 Q347.1875,662.5781 346.5,663.6563 Q345.8125,664.7188 345.8125,666.8125 Q345.8125,668.9063 346.5,669.9844 Q347.1875,671.0469 348.5313,671.0469 Q349.1563,671.0469 349.75,670.7813 Q350.3438,670.5 350.9688,669.9219 L350.9688,672.6406 Z " fill="#000000"/><text fill="#000000" font-family="sans-serif" font-size="14" lengthAdjust="spacing" textLength="51" x="362" y="671.8467">Module</text></g><!--class ImportClause--><g id="elem_ImportClause"><rect codeLine="244" fill="#F1F1F1" height="32" id="ImportClause" rx="2.5" ry="2.5" style="stroke:#181818;stroke-width:0.5;" width="123" x="325" y="375"/><ellipse cx="340" cy="391" fill="#ADD1B2" rx="11" ry="11" style="stroke:#181818;stroke-width:1.0;"/><path d="M342.9688,396.6406 Q342.3906,396.9375 341.75,397.0781 Q341.1094,397.2344 340.4063,397.2344 Q337.9063,397.2344 336.5781,395.5938 Q335.2656,393.9375 335.2656,390.8125 Q335.2656,387.6875 336.5781,386.0313 Q337.9063,384.375 340.4063,384.375 Q341.1094,384.375 341.75,384.5313 Q342.4063,384.6875 342.9688,384.9844 L342.9688,387.7031 Q342.3438,387.125 341.75,386.8594 Q341.1563,386.5781 340.5313,386.5781 Q339.1875,386.5781 338.5,387.6563 Q337.8125,388.7188 337.8125,390.8125 Q337.8125,392.9063 338.5,393.9844 Q339.1875,395.0469 340.5313,395.0469 Q341.1563,395.0469 341.75,394.7813 Q342.3438,394.5 342.9688,393.9219 L342.9688,396.6406 Z " fill="#000000"/><text fill="#000000" font-family="sans-serif" font-size="14" lengthAdjust="spacing" textLength="91" x="354" y="395.8467">ImportClause</text></g><!--class Alias--><g id="elem_Alias"><rect codeLine="257" fill="#F1F1F1" height="32" id="Alias" rx="2.5" ry="2.5" style="stroke:#181818;stroke-width:0.5;" width="63" x="1193" y="375"/><ellipse cx="1208" cy="391" fill="#ADD1B2" rx="11" ry="11" style="stroke:#181818;stroke-width:1.0;"/><path d="M1210.9688,396.6406 Q1210.3906,396.9375 1209.75,397.0781 Q1209.1094,397.2344 1208.4063,397.2344 Q1205.9063,397.2344 1204.5781,395.5938 Q1203.2656,393.9375 1203.2656,390.8125 Q1203.2656,387.6875 1204.5781,386.0313 Q1205.9063,384.375 1208.4063,384.375 Q1209.1094,384.375 1209.75,384.5313 Q1210.4063,384.6875 1210.9688,384.9844 L1210.9688,387.7031 Q1210.3438,387.125 1209.75,386.8594 Q1209.1563,386.5781 1208.5313,386.5781 Q1207.1875,386.5781 1206.5,387.6563 Q1205.8125,388.7188 1205.8125,390.8125 Q1205.8125,392.9063 1206.5,393.9844 Q1207.1875,395.0469 1208.5313,395.0469 Q1209.1563,395.0469 1209.75,394.7813 Q1210.3438,394.5 1210.9688,393.9219 L1210.9688,396.6406 Z " fill="#000000"/><text fill="#000000" font-family="sans-serif" font-size="14" lengthAdjust="spacing" textLength="31" x="1222" y="395.8467">Alias</text></g><!--class NamedEntity--><g id="elem_NamedEntity"><rect codeLine="277" fill="#F1F1F1" height="32" id="NamedEntity" rx="2.5" ry="2.5" style="stroke:#181818;stroke-width:0.5;" width="119" x="1097" y="283"/><ellipse cx="1112" cy="299" fill="#ADD1B2" rx="11" ry="11" style="stroke:#181818;stroke-width:1.0;"/><path d="M1114.9688,304.6406 Q1114.3906,304.9375 1113.75,305.0781 Q1113.1094,305.2344 1112.4063,305.2344 Q1109.9063,305.2344 1108.5781,303.5938 Q1107.2656,301.9375 1107.2656,298.8125 Q1107.2656,295.6875 1108.5781,294.0313 Q1109.9063,292.375 1112.4063,292.375 Q1113.1094,292.375 1113.75,292.5313 Q1114.4063,292.6875 1114.9688,292.9844 L1114.9688,295.7031 Q1114.3438,295.125 1113.75,294.8594 Q1113.1563,294.5781 1112.5313,294.5781 Q1111.1875,294.5781 1110.5,295.6563 Q1109.8125,296.7188 1109.8125,298.8125 Q1109.8125,300.9063 1110.5,301.9844 Q1111.1875,303.0469 1112.5313,303.0469 Q1113.1563,303.0469 1113.75,302.7813 Q1114.3438,302.5 1114.9688,301.9219 L1114.9688,304.6406 Z " fill="#000000"/><text fill="#000000" font-family="sans-serif" font-size="14" lengthAdjust="spacing" textLength="87" x="1126" y="303.8467">NamedEntity</text></g><!--class Decorator--><g id="elem_Decorator"><rect codeLine="267" fill="#F1F1F1" height="32" id="Decorator" rx="2.5" ry="2.5" style="stroke:#181818;stroke-width:0.5;" width="101" x="1291" y="375"/><ellipse cx="1306" cy="391" fill="#ADD1B2" rx="11" ry="11" style="stroke:#181818;stroke-width:1.0;"/><path d="M1308.9688,396.6406 Q1308.3906,396.9375 1307.75,397.0781 Q1307.1094,397.2344 1306.4063,397.2344 Q1303.9063,397.2344 1302.5781,395.5938 Q1301.2656,393.9375 1301.2656,390.8125 Q1301.2656,387.6875 1302.5781,386.0313 Q1303.9063,384.375 1306.4063,384.375 Q1307.1094,384.375 1307.75,384.5313 Q1308.4063,384.6875 1308.9688,384.9844 L1308.9688,387.7031 Q1308.3438,387.125 1307.75,386.8594 Q1307.1563,386.5781 1306.5313,386.5781 Q1305.1875,386.5781 1304.5,387.6563 Q1303.8125,388.7188 1303.8125,390.8125 Q1303.8125,392.9063 1304.5,393.9844 Q1305.1875,395.0469 1306.5313,395.0469 Q1307.1563,395.0469 1307.75,394.7813 Q1308.3438,394.5 1308.9688,393.9219 L1308.9688,396.6406 Z " fill="#000000"/><text fill="#000000" font-family="sans-serif" font-size="14" lengthAdjust="spacing" textLength="69" x="1320" y="395.8467">Decorator</text></g><!--class Parameter--><g id="elem_Parameter"><rect codeLine="299" fill="#F1F1F1" height="32" id="Parameter" rx="2.5" ry="2.5" style="stroke:#181818;stroke-width:0.5;" width="103" x="1455" y="467"/><ellipse cx="1470" cy="483" fill="#ADD1B2" rx="11" ry="11" style="stroke:#181818;stroke-width:1.0;"/><path d="M1472.9688,488.6406 Q1472.3906,488.9375 1471.75,489.0781 Q1471.1094,489.2344 1470.4063,489.2344 Q1467.9063,489.2344 1466.5781,487.5938 Q1465.2656,485.9375 1465.2656,482.8125 Q1465.2656,479.6875 1466.5781,478.0313 Q1467.9063,476.375 1470.4063,476.375 Q1471.1094,476.375 1471.75,476.5313 Q1472.4063,476.6875 1472.9688,476.9844 L1472.9688,479.7031 Q1472.3438,479.125 1471.75,478.8594 Q1471.1563,478.5781 1470.5313,478.5781 Q1469.1875,478.5781 1468.5,479.6563 Q1467.8125,480.7188 1467.8125,482.8125 Q1467.8125,484.9063 1468.5,485.9844 Q1469.1875,487.0469 1470.5313,487.0469 Q1471.1563,487.0469 1471.75,486.7813 Q1472.3438,486.5 1472.9688,485.9219 L1472.9688,488.6406 Z " fill="#000000"/><text fill="#000000" font-family="sans-serif" font-size="14" lengthAdjust="spacing" textLength="71" x="1484" y="487.8467">Parameter</text></g><!--class StructuralEntity--><g id="elem_StructuralEntity"><rect codeLine="532" fill="#F1F1F1" height="32" id="StructuralEntity" rx="2.5" ry="2.5" style="stroke:#181818;stroke-width:0.5;" width="136" x="1570.5" y="375"/><ellipse cx="1585.5" cy="391" fill="#ADD1B2" rx="11" ry="11" style="stroke:#181818;stroke-width:1.0;"/><path d="M1588.4688,396.6406 Q1587.8906,396.9375 1587.25,397.0781 Q1586.6094,397.2344 1585.9063,397.2344 Q1583.4063,397.2344 1582.0781,395.5938 Q1580.7656,393.9375 1580.7656,390.8125 Q1580.7656,387.6875 1582.0781,386.0313 Q1583.4063,384.375 1585.9063,384.375 Q1586.6094,384.375 1587.25,384.5313 Q1587.9063,384.6875 1588.4688,384.9844 L1588.4688,387.7031 Q1587.8438,387.125 1587.25,386.8594 Q1586.6563,386.5781 1586.0313,386.5781 Q1584.6875,386.5781 1584,387.6563 Q1583.3125,388.7188 1583.3125,390.8125 Q1583.3125,392.9063 1584,393.9844 Q1584.6875,395.0469 1586.0313,395.0469 Q1586.6563,395.0469 1587.25,394.7813 Q1587.8438,394.5 1588.4688,393.9219 L1588.4688,396.6406 Z " fill="#000000"/><text fill="#000000" font-family="sans-serif" font-size="14" lengthAdjust="spacing" textLength="104" x="1599.5" y="395.8467">StructuralEntity</text></g><!--class Property--><g id="elem_Property"><rect codeLine="306" fill="#F1F1F1" height="32" id="Property" rx="2.5" ry="2.5" style="stroke:#181818;stroke-width:0.5;" width="90" x="1593.5" y="467"/><ellipse cx="1608.5" cy="483" fill="#ADD1B2" rx="11" ry="11" style="stroke:#181818;stroke-width:1.0;"/><path d="M1611.4688,488.6406 Q1610.8906,488.9375 1610.25,489.0781 Q1609.6094,489.2344 1608.9063,489.2344 Q1606.4063,489.2344 1605.0781,487.5938 Q1603.7656,485.9375 1603.7656,482.8125 Q1603.7656,479.6875 1605.0781,478.0313 Q1606.4063,476.375 1608.9063,476.375 Q1609.6094,476.375 1610.25,476.5313 Q1610.9063,476.6875 1611.4688,476.9844 L1611.4688,479.7031 Q1610.8438,479.125 1610.25,478.8594 Q1609.6563,478.5781 1609.0313,478.5781 Q1607.6875,478.5781 1607,479.6563 Q1606.3125,480.7188 1606.3125,482.8125 Q1606.3125,484.9063 1607,485.9844 Q1607.6875,487.0469 1609.0313,487.0469 Q1609.6563,487.0469 1610.25,486.7813 Q1610.8438,486.5 1611.4688,485.9219 L1611.4688,488.6406 Z " fill="#000000"/><text fill="#000000" font-family="sans-serif" font-size="14" lengthAdjust="spacing" textLength="58" x="1622.5" y="487.8467">Property</text></g><!--class Inheritance--><g id="elem_Inheritance"><rect codeLine="319" fill="#F1F1F1" height="32" id="Inheritance" rx="2.5" ry="2.5" style="stroke:#181818;stroke-width:0.5;" width="109" x="483" y="375"/><ellipse cx="498" cy="391" fill="#ADD1B2" rx="11" ry="11" style="stroke:#181818;stroke-width:1.0;"/><path d="M500.9688,396.6406 Q500.3906,396.9375 499.75,397.0781 Q499.1094,397.2344 498.4063,397.2344 Q495.9063,397.2344 494.5781,395.5938 Q493.2656,393.9375 493.2656,390.8125 Q493.2656,387.6875 494.5781,386.0313 Q495.9063,384.375 498.4063,384.375 Q499.1094,384.375 499.75,384.5313 Q500.4063,384.6875 500.9688,384.9844 L500.9688,387.7031 Q500.3438,387.125 499.75,386.8594 Q499.1563,386.5781 498.5313,386.5781 Q497.1875,386.5781 496.5,387.6563 Q495.8125,388.7188 495.8125,390.8125 Q495.8125,392.9063 496.5,393.9844 Q497.1875,395.0469 498.5313,395.0469 Q499.1563,395.0469 499.75,394.7813 Q500.3438,394.5 500.9688,393.9219 L500.9688,396.6406 Z " fill="#000000"/><text fill="#000000" font-family="sans-serif" font-size="14" lengthAdjust="spacing" textLength="77" x="512" y="395.8467">Inheritance</text></g><!--class Interface--><g id="elem_Interface"><rect codeLine="329" fill="#F1F1F1" height="32" id="Interface" rx="2.5" ry="2.5" style="stroke:#181818;stroke-width:0.5;" width="92" x="506.5" y="559"/><ellipse cx="521.5" cy="575" fill="#ADD1B2" rx="11" ry="11" style="stroke:#181818;stroke-width:1.0;"/><path d="M524.4688,580.6406 Q523.8906,580.9375 523.25,581.0781 Q522.6094,581.2344 521.9063,581.2344 Q519.4063,581.2344 518.0781,579.5938 Q516.7656,577.9375 516.7656,574.8125 Q516.7656,571.6875 518.0781,570.0313 Q519.4063,568.375 521.9063,568.375 Q522.6094,568.375 523.25,568.5313 Q523.9063,568.6875 524.4688,568.9844 L524.4688,571.7031 Q523.8438,571.125 523.25,570.8594 Q522.6563,570.5781 522.0313,570.5781 Q520.6875,570.5781 520,571.6563 Q519.3125,572.7188 519.3125,574.8125 Q519.3125,576.9063 520,577.9844 Q520.6875,579.0469 522.0313,579.0469 Q522.6563,579.0469 523.25,578.7813 Q523.8438,578.5 524.4688,577.9219 L524.4688,580.6406 Z " fill="#000000"/><text fill="#000000" font-family="sans-serif" font-size="14" lengthAdjust="spacing" textLength="60" x="535.5" y="579.8467">Interface</text></g><!--class Type--><g id="elem_Type"><rect codeLine="513" fill="#F1F1F1" height="32" id="Type" rx="2.5" ry="2.5" style="stroke:#181818;stroke-width:0.5;" width="66" x="913.5" y="467"/><ellipse cx="928.5" cy="483" fill="#ADD1B2" rx="11" ry="11" style="stroke:#181818;stroke-width:1.0;"/><path d="M931.4688,488.6406 Q930.8906,488.9375 930.25,489.0781 Q929.6094,489.2344 928.9063,489.2344 Q926.4063,489.2344 925.0781,487.5938 Q923.7656,485.9375 923.7656,482.8125 Q923.7656,479.6875 925.0781,478.0313 Q926.4063,476.375 928.9063,476.375 Q929.6094,476.375 930.25,476.5313 Q930.9063,476.6875 931.4688,476.9844 L931.4688,479.7031 Q930.8438,479.125 930.25,478.8594 Q929.6563,478.5781 929.0313,478.5781 Q927.6875,478.5781 927,479.6563 Q926.3125,480.7188 926.3125,482.8125 Q926.3125,484.9063 927,485.9844 Q927.6875,487.0469 929.0313,487.0469 Q929.6563,487.0469 930.25,486.7813 Q930.8438,486.5 931.4688,485.9219 L931.4688,488.6406 Z " fill="#000000"/><text fill="#000000" font-family="sans-serif" font-size="14" lengthAdjust="spacing" textLength="34" x="942.5" y="487.8467">Type</text></g><!--class Method--><g id="elem_Method"><rect codeLine="345" fill="#F1F1F1" height="32" id="Method" rx="2.5" ry="2.5" style="stroke:#181818;stroke-width:0.5;" width="85" x="1377" y="559"/><ellipse cx="1392" cy="575" fill="#ADD1B2" rx="11" ry="11" style="stroke:#181818;stroke-width:1.0;"/><path d="M1394.9688,580.6406 Q1394.3906,580.9375 1393.75,581.0781 Q1393.1094,581.2344 1392.4063,581.2344 Q1389.9063,581.2344 1388.5781,579.5938 Q1387.2656,577.9375 1387.2656,574.8125 Q1387.2656,571.6875 1388.5781,570.0313 Q1389.9063,568.375 1392.4063,568.375 Q1393.1094,568.375 1393.75,568.5313 Q1394.4063,568.6875 1394.9688,568.9844 L1394.9688,571.7031 Q1394.3438,571.125 1393.75,570.8594 Q1393.1563,570.5781 1392.5313,570.5781 Q1391.1875,570.5781 1390.5,571.6563 Q1389.8125,572.7188 1389.8125,574.8125 Q1389.8125,576.9063 1390.5,577.9844 Q1391.1875,579.0469 1392.5313,579.0469 Q1393.1563,579.0469 1393.75,578.7813 Q1394.3438,578.5 1394.9688,577.9219 L1394.9688,580.6406 Z " fill="#000000"/><text fill="#000000" font-family="sans-serif" font-size="14" lengthAdjust="spacing" textLength="53" x="1406" y="579.8467">Method</text></g><!--class BehavioralEntity--><g id="elem_BehavioralEntity"><rect codeLine="418" fill="#F1F1F1" height="32" id="BehavioralEntity" rx="2.5" ry="2.5" style="stroke:#181818;stroke-width:0.5;" width="141" x="1279" y="467"/><ellipse cx="1294" cy="483" fill="#ADD1B2" rx="11" ry="11" style="stroke:#181818;stroke-width:1.0;"/><path d="M1296.9688,488.6406 Q1296.3906,488.9375 1295.75,489.0781 Q1295.1094,489.2344 1294.4063,489.2344 Q1291.9063,489.2344 1290.5781,487.5938 Q1289.2656,485.9375 1289.2656,482.8125 Q1289.2656,479.6875 1290.5781,478.0313 Q1291.9063,476.375 1294.4063,476.375 Q1295.1094,476.375 1295.75,476.5313 Q1296.4063,476.6875 1296.9688,476.9844 L1296.9688,479.7031 Q1296.3438,479.125 1295.75,478.8594 Q1295.1563,478.5781 1294.5313,478.5781 Q1293.1875,478.5781 1292.5,479.6563 Q1291.8125,480.7188 1291.8125,482.8125 Q1291.8125,484.9063 1292.5,485.9844 Q1293.1875,487.0469 1294.5313,487.0469 Q1295.1563,487.0469 1295.75,486.7813 Q1296.3438,486.5 1296.9688,485.9219 L1296.9688,488.6406 Z " fill="#000000"/><text fill="#000000" font-family="sans-serif" font-size="14" lengthAdjust="spacing" textLength="109" x="1308" y="487.8467">BehavioralEntity</text></g><!--class Class--><g id="elem_Class"><rect codeLine="370" fill="#F1F1F1" height="32" id="Class" rx="2.5" ry="2.5" style="stroke:#181818;stroke-width:0.5;" width="69" x="634" y="559"/><ellipse cx="649" cy="575" fill="#ADD1B2" rx="11" ry="11" style="stroke:#181818;stroke-width:1.0;"/><path d="M651.9688,580.6406 Q651.3906,580.9375 650.75,581.0781 Q650.1094,581.2344 649.4063,581.2344 Q646.9063,581.2344 645.5781,579.5938 Q644.2656,577.9375 644.2656,574.8125 Q644.2656,571.6875 645.5781,570.0313 Q646.9063,568.375 649.4063,568.375 Q650.1094,568.375 650.75,568.5313 Q651.4063,568.6875 651.9688,568.9844 L651.9688,571.7031 Q651.3438,571.125 650.75,570.8594 Q650.1563,570.5781 649.5313,570.5781 Q648.1875,570.5781 647.5,571.6563 Q646.8125,572.7188 646.8125,574.8125 Q646.8125,576.9063 647.5,577.9844 Q648.1875,579.0469 649.5313,579.0469 Q650.1563,579.0469 650.75,578.7813 Q651.3438,578.5 651.9688,577.9219 L651.9688,580.6406 Z " fill="#000000"/><text fill="#000000" font-family="sans-serif" font-size="14" lengthAdjust="spacing" textLength="37" x="663" y="579.8467">Class</text></g><!--class ParameterizableClass--><g id="elem_ParameterizableClass"><rect codeLine="389" fill="#F1F1F1" height="32" id="ParameterizableClass" rx="2.5" ry="2.5" style="stroke:#181818;stroke-width:0.5;" width="180" x="689.5" y="651"/><ellipse cx="704.5" cy="667" fill="#ADD1B2" rx="11" ry="11" style="stroke:#181818;stroke-width:1.0;"/><path d="M707.4688,672.6406 Q706.8906,672.9375 706.25,673.0781 Q705.6094,673.2344 704.9063,673.2344 Q702.4063,673.2344 701.0781,671.5938 Q699.7656,669.9375 699.7656,666.8125 Q699.7656,663.6875 701.0781,662.0313 Q702.4063,660.375 704.9063,660.375 Q705.6094,660.375 706.25,660.5313 Q706.9063,660.6875 707.4688,660.9844 L707.4688,663.7031 Q706.8438,663.125 706.25,662.8594 Q705.6563,662.5781 705.0313,662.5781 Q703.6875,662.5781 703,663.6563 Q702.3125,664.7188 702.3125,666.8125 Q702.3125,668.9063 703,669.9844 Q703.6875,671.0469 705.0313,671.0469 Q705.6563,671.0469 706.25,670.7813 Q706.8438,670.5 707.4688,669.9219 L707.4688,672.6406 Z " fill="#000000"/><text fill="#000000" font-family="sans-serif" font-size="14" lengthAdjust="spacing" textLength="148" x="718.5" y="671.8467">ParameterizableClass</text></g><!--class ParameterizableInterface--><g id="elem_ParameterizableInterface"><rect codeLine="396" fill="#F1F1F1" height="32" id="ParameterizableInterface" rx="2.5" ry="2.5" style="stroke:#181818;stroke-width:0.5;" width="203" x="451" y="651"/><ellipse cx="466" cy="667" fill="#ADD1B2" rx="11" ry="11" style="stroke:#181818;stroke-width:1.0;"/><path d="M468.9688,672.6406 Q468.3906,672.9375 467.75,673.0781 Q467.1094,673.2344 466.4063,673.2344 Q463.9063,673.2344 462.5781,671.5938 Q461.2656,669.9375 461.2656,666.8125 Q461.2656,663.6875 462.5781,662.0313 Q463.9063,660.375 466.4063,660.375 Q467.1094,660.375 467.75,660.5313 Q468.4063,660.6875 468.9688,660.9844 L468.9688,663.7031 Q468.3438,663.125 467.75,662.8594 Q467.1563,662.5781 466.5313,662.5781 Q465.1875,662.5781 464.5,663.6563 Q463.8125,664.7188 463.8125,666.8125 Q463.8125,668.9063 464.5,669.9844 Q465.1875,671.0469 466.5313,671.0469 Q467.1563,671.0469 467.75,670.7813 Q468.3438,670.5 468.9688,669.9219 L468.9688,672.6406 Z " fill="#000000"/><text fill="#000000" font-family="sans-serif" font-size="14" lengthAdjust="spacing" textLength="171" x="480" y="671.8467">ParameterizableInterface</text></g><!--class Function--><g id="elem_Function"><rect codeLine="403" fill="#F1F1F1" height="32" id="Function" rx="2.5" ry="2.5" style="stroke:#181818;stroke-width:0.5;" width="92" x="1497.5" y="559"/><ellipse cx="1512.5" cy="575" fill="#ADD1B2" rx="11" ry="11" style="stroke:#181818;stroke-width:1.0;"/><path d="M1515.4688,580.6406 Q1514.8906,580.9375 1514.25,581.0781 Q1513.6094,581.2344 1512.9063,581.2344 Q1510.4063,581.2344 1509.0781,579.5938 Q1507.7656,577.9375 1507.7656,574.8125 Q1507.7656,571.6875 1509.0781,570.0313 Q1510.4063,568.375 1512.9063,568.375 Q1513.6094,568.375 1514.25,568.5313 Q1514.9063,568.6875 1515.4688,568.9844 L1515.4688,571.7031 Q1514.8438,571.125 1514.25,570.8594 Q1513.6563,570.5781 1513.0313,570.5781 Q1511.6875,570.5781 1511,571.6563 Q1510.3125,572.7188 1510.3125,574.8125 Q1510.3125,576.9063 1511,577.9844 Q1511.6875,579.0469 1513.0313,579.0469 Q1513.6563,579.0469 1514.25,578.7813 Q1514.8438,578.5 1515.4688,577.9219 L1515.4688,580.6406 Z " fill="#000000"/><text fill="#000000" font-family="sans-serif" font-size="14" lengthAdjust="spacing" textLength="60" x="1526.5" y="579.8467">Function</text></g><!--class Accessor--><g id="elem_Accessor"><rect codeLine="407" fill="#F1F1F1" height="32" id="Accessor" rx="2.5" ry="2.5" style="stroke:#181818;stroke-width:0.5;" width="96" x="1371.5" y="651"/><ellipse cx="1386.5" cy="667" fill="#ADD1B2" rx="11" ry="11" style="stroke:#181818;stroke-width:1.0;"/><path d="M1389.4688,672.6406 Q1388.8906,672.9375 1388.25,673.0781 Q1387.6094,673.2344 1386.9063,673.2344 Q1384.4063,673.2344 1383.0781,671.5938 Q1381.7656,669.9375 1381.7656,666.8125 Q1381.7656,663.6875 1383.0781,662.0313 Q1384.4063,660.375 1386.9063,660.375 Q1387.6094,660.375 1388.25,660.5313 Q1388.9063,660.6875 1389.4688,660.9844 L1389.4688,663.7031 Q1388.8438,663.125 1388.25,662.8594 Q1387.6563,662.5781 1387.0313,662.5781 Q1385.6875,662.5781 1385,663.6563 Q1384.3125,664.7188 1384.3125,666.8125 Q1384.3125,668.9063 1385,669.9844 Q1385.6875,671.0469 1387.0313,671.0469 Q1387.6563,671.0469 1388.25,670.7813 Q1388.8438,670.5 1389.4688,669.9219 L1389.4688,672.6406 Z " fill="#000000"/><text fill="#000000" font-family="sans-serif" font-size="14" lengthAdjust="spacing" textLength="64" x="1400.5" y="671.8467">Accessor</text></g><!--class ParameterType--><g id="elem_ParameterType"><rect codeLine="411" fill="#F1F1F1" height="32" id="ParameterType" rx="2.5" ry="2.5" style="stroke:#181818;stroke-width:0.5;" width="137" x="738" y="559"/><ellipse cx="753" cy="575" fill="#ADD1B2" rx="11" ry="11" style="stroke:#181818;stroke-width:1.0;"/><path d="M755.9688,580.6406 Q755.3906,580.9375 754.75,581.0781 Q754.1094,581.2344 753.4063,581.2344 Q750.9063,581.2344 749.5781,579.5938 Q748.2656,577.9375 748.2656,574.8125 Q748.2656,571.6875 749.5781,570.0313 Q750.9063,568.375 753.4063,568.375 Q754.1094,568.375 754.75,568.5313 Q755.4063,568.6875 755.9688,568.9844 L755.9688,571.7031 Q755.3438,571.125 754.75,570.8594 Q754.1563,570.5781 753.5313,570.5781 Q752.1875,570.5781 751.5,571.6563 Q750.8125,572.7188 750.8125,574.8125 Q750.8125,576.9063 751.5,577.9844 Q752.1875,579.0469 753.5313,579.0469 Q754.1563,579.0469 754.75,578.7813 Q755.3438,578.5 755.9688,577.9219 L755.9688,580.6406 Z " fill="#000000"/><text fill="#000000" font-family="sans-serif" font-size="14" lengthAdjust="spacing" textLength="105" x="767" y="579.8467">ParameterType</text></g><!--class Invocation--><g id="elem_Invocation"><rect codeLine="443" fill="#F1F1F1" height="32" id="Invocation" rx="2.5" ry="2.5" style="stroke:#181818;stroke-width:0.5;" width="102" x="627.5" y="375"/><ellipse cx="642.5" cy="391" fill="#ADD1B2" rx="11" ry="11" style="stroke:#181818;stroke-width:1.0;"/><path d="M645.4688,396.6406 Q644.8906,396.9375 644.25,397.0781 Q643.6094,397.2344 642.9063,397.2344 Q640.4063,397.2344 639.0781,395.5938 Q637.7656,393.9375 637.7656,390.8125 Q637.7656,387.6875 639.0781,386.0313 Q640.4063,384.375 642.9063,384.375 Q643.6094,384.375 644.25,384.5313 Q644.9063,384.6875 645.4688,384.9844 L645.4688,387.7031 Q644.8438,387.125 644.25,386.8594 Q643.6563,386.5781 643.0313,386.5781 Q641.6875,386.5781 641,387.6563 Q640.3125,388.7188 640.3125,390.8125 Q640.3125,392.9063 641,393.9844 Q641.6875,395.0469 643.0313,395.0469 Q643.6563,395.0469 644.25,394.7813 Q644.8438,394.5 645.4688,393.9219 L645.4688,396.6406 Z " fill="#000000"/><text fill="#000000" font-family="sans-serif" font-size="14" lengthAdjust="spacing" textLength="70" x="656.5" y="395.8467">Invocation</text></g><!--class Reference--><g id="elem_Reference"><rect codeLine="459" fill="#F1F1F1" height="32" id="Reference" rx="2.5" ry="2.5" style="stroke:#181818;stroke-width:0.5;" width="104" x="764.5" y="375"/><ellipse cx="779.5" cy="391" fill="#ADD1B2" rx="11" ry="11" style="stroke:#181818;stroke-width:1.0;"/><path d="M782.4688,396.6406 Q781.8906,396.9375 781.25,397.0781 Q780.6094,397.2344 779.9063,397.2344 Q777.4063,397.2344 776.0781,395.5938 Q774.7656,393.9375 774.7656,390.8125 Q774.7656,387.6875 776.0781,386.0313 Q777.4063,384.375 779.9063,384.375 Q780.6094,384.375 781.25,384.5313 Q781.9063,384.6875 782.4688,384.9844 L782.4688,387.7031 Q781.8438,387.125 781.25,386.8594 Q780.6563,386.5781 780.0313,386.5781 Q778.6875,386.5781 778,387.6563 Q777.3125,388.7188 777.3125,390.8125 Q777.3125,392.9063 778,393.9844 Q778.6875,395.0469 780.0313,395.0469 Q780.6563,395.0469 781.25,394.7813 Q781.8438,394.5 782.4688,393.9219 L782.4688,396.6406 Z " fill="#000000"/><text fill="#000000" font-family="sans-serif" font-size="14" lengthAdjust="spacing" textLength="72" x="793.5" y="395.8467">Reference</text></g><!--class Variable--><g id="elem_Variable"><rect codeLine="469" fill="#F1F1F1" height="32" id="Variable" rx="2.5" ry="2.5" style="stroke:#181818;stroke-width:0.5;" width="86" x="1718.5" y="467"/><ellipse cx="1733.5" cy="483" fill="#ADD1B2" rx="11" ry="11" style="stroke:#181818;stroke-width:1.0;"/><path d="M1736.4688,488.6406 Q1735.8906,488.9375 1735.25,489.0781 Q1734.6094,489.2344 1733.9063,489.2344 Q1731.4063,489.2344 1730.0781,487.5938 Q1728.7656,485.9375 1728.7656,482.8125 Q1728.7656,479.6875 1730.0781,478.0313 Q1731.4063,476.375 1733.9063,476.375 Q1734.6094,476.375 1735.25,476.5313 Q1735.9063,476.6875 1736.4688,476.9844 L1736.4688,479.7031 Q1735.8438,479.125 1735.25,478.8594 Q1734.6563,478.5781 1734.0313,478.5781 Q1732.6875,478.5781 1732,479.6563 Q1731.3125,480.7188 1731.3125,482.8125 Q1731.3125,484.9063 1732,485.9844 Q1732.6875,487.0469 1734.0313,487.0469 Q1734.6563,487.0469 1735.25,486.7813 Q1735.8438,486.5 1736.4688,485.9219 L1736.4688,488.6406 Z " fill="#000000"/><text fill="#000000" font-family="sans-serif" font-size="14" lengthAdjust="spacing" textLength="54" x="1747.5" y="487.8467">Variable</text></g><!--class Access--><g id="elem_Access"><rect codeLine="542" fill="#F1F1F1" height="32" id="Access" rx="2.5" ry="2.5" style="stroke:#181818;stroke-width:0.5;" width="82" x="903.5" y="375"/><ellipse cx="918.5" cy="391" fill="#ADD1B2" rx="11" ry="11" style="stroke:#181818;stroke-width:1.0;"/><path d="M921.4688,396.6406 Q920.8906,396.9375 920.25,397.0781 Q919.6094,397.2344 918.9063,397.2344 Q916.4063,397.2344 915.0781,395.5938 Q913.7656,393.9375 913.7656,390.8125 Q913.7656,387.6875 915.0781,386.0313 Q916.4063,384.375 918.9063,384.375 Q919.6094,384.375 920.25,384.5313 Q920.9063,384.6875 921.4688,384.9844 L921.4688,387.7031 Q920.8438,387.125 920.25,386.8594 Q919.6563,386.5781 919.0313,386.5781 Q917.6875,386.5781 917,387.6563 Q916.3125,388.7188 916.3125,390.8125 Q916.3125,392.9063 917,393.9844 Q917.6875,395.0469 919.0313,395.0469 Q919.6563,395.0469 920.25,394.7813 Q920.8438,394.5 921.4688,393.9219 L921.4688,396.6406 Z " fill="#000000"/><text fill="#000000" font-family="sans-serif" font-size="14" lengthAdjust="spacing" textLength="50" x="932.5" y="395.8467">Access</text></g><!--class Enum--><g id="elem_Enum"><rect codeLine="555" fill="#F1F1F1" height="32" id="Enum" rx="2.5" ry="2.5" style="stroke:#181818;stroke-width:0.5;" width="72" x="910.5" y="559"/><ellipse cx="925.5" cy="575" fill="#ADD1B2" rx="11" ry="11" style="stroke:#181818;stroke-width:1.0;"/><path d="M928.4688,580.6406 Q927.8906,580.9375 927.25,581.0781 Q926.6094,581.2344 925.9063,581.2344 Q923.4063,581.2344 922.0781,579.5938 Q920.7656,577.9375 920.7656,574.8125 Q920.7656,571.6875 922.0781,570.0313 Q923.4063,568.375 925.9063,568.375 Q926.6094,568.375 927.25,568.5313 Q927.9063,568.6875 928.4688,568.9844 L928.4688,571.7031 Q927.8438,571.125 927.25,570.8594 Q926.6563,570.5781 926.0313,570.5781 Q924.6875,570.5781 924,571.6563 Q923.3125,572.7188 923.3125,574.8125 Q923.3125,576.9063 924,577.9844 Q924.6875,579.0469 926.0313,579.0469 Q926.6563,579.0469 927.25,578.7813 Q927.8438,578.5 928.4688,577.9219 L928.4688,580.6406 Z " fill="#000000"/><text fill="#000000" font-family="sans-serif" font-size="14" lengthAdjust="spacing" textLength="40" x="939.5" y="579.8467">Enum</text></g><!--class EnumValue--><g id="elem_EnumValue"><rect codeLine="562" fill="#F1F1F1" height="32" id="EnumValue" rx="2.5" ry="2.5" style="stroke:#181818;stroke-width:0.5;" width="110" x="1839.5" y="467"/><ellipse cx="1854.5" cy="483" fill="#ADD1B2" rx="11" ry="11" style="stroke:#181818;stroke-width:1.0;"/><path d="M1857.4688,488.6406 Q1856.8906,488.9375 1856.25,489.0781 Q1855.6094,489.2344 1854.9063,489.2344 Q1852.4063,489.2344 1851.0781,487.5938 Q1849.7656,485.9375 1849.7656,482.8125 Q1849.7656,479.6875 1851.0781,478.0313 Q1852.4063,476.375 1854.9063,476.375 Q1855.6094,476.375 1856.25,476.5313 Q1856.9063,476.6875 1857.4688,476.9844 L1857.4688,479.7031 Q1856.8438,479.125 1856.25,478.8594 Q1855.6563,478.5781 1855.0313,478.5781 Q1853.6875,478.5781 1853,479.6563 Q1852.3125,480.7188 1852.3125,482.8125 Q1852.3125,484.9063 1853,485.9844 Q1853.6875,487.0469 1855.0313,487.0469 Q1855.6563,487.0469 1856.25,486.7813 Q1856.8438,486.5 1857.4688,485.9219 L1857.4688,488.6406 Z " fill="#000000"/><text fill="#000000" font-family="sans-serif" font-size="14" lengthAdjust="spacing" textLength="78" x="1868.5" y="487.8467">EnumValue</text></g><!--class ImplicitVariable--><g id="elem_ImplicitVariable"><rect codeLine="569" fill="#F1F1F1" height="32" id="ImplicitVariable" rx="2.5" ry="2.5" style="stroke:#181818;stroke-width:0.5;" width="133" x="1695" y="559"/><ellipse cx="1710" cy="575" fill="#ADD1B2" rx="11" ry="11" style="stroke:#181818;stroke-width:1.0;"/><path d="M1712.9688,580.6406 Q1712.3906,580.9375 1711.75,581.0781 Q1711.1094,581.2344 1710.4063,581.2344 Q1707.9063,581.2344 1706.5781,579.5938 Q1705.2656,577.9375 1705.2656,574.8125 Q1705.2656,571.6875 1706.5781,570.0313 Q1707.9063,568.375 1710.4063,568.375 Q1711.1094,568.375 1711.75,568.5313 Q1712.4063,568.6875 1712.9688,568.9844 L1712.9688,571.7031 Q1712.3438,571.125 1711.75,570.8594 Q1711.1563,570.5781 1710.5313,570.5781 Q1709.1875,570.5781 1708.5,571.6563 Q1707.8125,572.7188 1707.8125,574.8125 Q1707.8125,576.9063 1708.5,577.9844 Q1709.1875,579.0469 1710.5313,579.0469 Q1711.1563,579.0469 1711.75,578.7813 Q1712.3438,578.5 1712.9688,577.9219 L1712.9688,580.6406 Z " fill="#000000"/><text fill="#000000" font-family="sans-serif" font-size="14" lengthAdjust="spacing" textLength="101" x="1724" y="579.8467">ImplicitVariable</text></g><!--class IndexedFileAnchor--><g id="elem_IndexedFileAnchor"><rect codeLine="573" fill="#F1F1F1" height="32" id="IndexedFileAnchor" rx="2.5" ry="2.5" style="stroke:#181818;stroke-width:0.5;" width="159" x="1251" y="283"/><ellipse cx="1266" cy="299" fill="#ADD1B2" rx="11" ry="11" style="stroke:#181818;stroke-width:1.0;"/><path d="M1268.9688,304.6406 Q1268.3906,304.9375 1267.75,305.0781 Q1267.1094,305.2344 1266.4063,305.2344 Q1263.9063,305.2344 1262.5781,303.5938 Q1261.2656,301.9375 1261.2656,298.8125 Q1261.2656,295.6875 1262.5781,294.0313 Q1263.9063,292.375 1266.4063,292.375 Q1267.1094,292.375 1267.75,292.5313 Q1268.4063,292.6875 1268.9688,292.9844 L1268.9688,295.7031 Q1268.3438,295.125 1267.75,294.8594 Q1267.1563,294.5781 1266.5313,294.5781 Q1265.1875,294.5781 1264.5,295.6563 Q1263.8125,296.7188 1263.8125,298.8125 Q1263.8125,300.9063 1264.5,301.9844 Q1265.1875,303.0469 1266.5313,303.0469 Q1267.1563,303.0469 1267.75,302.7813 Q1268.3438,302.5 1268.9688,301.9219 L1268.9688,304.6406 Z " fill="#000000"/><text fill="#000000" font-family="sans-serif" font-size="14" lengthAdjust="spacing" textLength="127" x="1280" y="303.8467">IndexedFileAnchor</text></g><!--class ParameterizedType--><g id="elem_ParameterizedType"><rect codeLine="592" fill="#F1F1F1" height="32" id="ParameterizedType" rx="2.5" ry="2.5" style="stroke:#181818;stroke-width:0.5;" width="166" x="1017.5" y="559"/><ellipse cx="1032.5" cy="575" fill="#ADD1B2" rx="11" ry="11" style="stroke:#181818;stroke-width:1.0;"/><path d="M1035.4688,580.6406 Q1034.8906,580.9375 1034.25,581.0781 Q1033.6094,581.2344 1032.9063,581.2344 Q1030.4063,581.2344 1029.0781,579.5938 Q1027.7656,577.9375 1027.7656,574.8125 Q1027.7656,571.6875 1029.0781,570.0313 Q1030.4063,568.375 1032.9063,568.375 Q1033.6094,568.375 1034.25,568.5313 Q1034.9063,568.6875 1035.4688,568.9844 L1035.4688,571.7031 Q1034.8438,571.125 1034.25,570.8594 Q1033.6563,570.5781 1033.0313,570.5781 Q1031.6875,570.5781 1031,571.6563 Q1030.3125,572.7188 1030.3125,574.8125 Q1030.3125,576.9063 1031,577.9844 Q1031.6875,579.0469 1033.0313,579.0469 Q1033.6563,579.0469 1034.25,578.7813 Q1034.8438,578.5 1035.4688,577.9219 L1035.4688,580.6406 Z " fill="#000000"/><text fill="#000000" font-family="sans-serif" font-size="14" lengthAdjust="spacing" textLength="134" x="1046.5" y="579.8467">ParameterizedType</text></g><!--class PrimitiveType--><g id="elem_PrimitiveType"><rect codeLine="602" fill="#F1F1F1" height="32" id="PrimitiveType" rx="2.5" ry="2.5" style="stroke:#181818;stroke-width:0.5;" width="123" x="1219" y="559"/><ellipse cx="1234" cy="575" fill="#ADD1B2" rx="11" ry="11" style="stroke:#181818;stroke-width:1.0;"/><path d="M1236.9688,580.6406 Q1236.3906,580.9375 1235.75,581.0781 Q1235.1094,581.2344 1234.4063,581.2344 Q1231.9063,581.2344 1230.5781,579.5938 Q1229.2656,577.9375 1229.2656,574.8125 Q1229.2656,571.6875 1230.5781,570.0313 Q1231.9063,568.375 1234.4063,568.375 Q1235.1094,568.375 1235.75,568.5313 Q1236.4063,568.6875 1236.9688,568.9844 L1236.9688,571.7031 Q1236.3438,571.125 1235.75,570.8594 Q1235.1563,570.5781 1234.5313,570.5781 Q1233.1875,570.5781 1232.5,571.6563 Q1231.8125,572.7188 1231.8125,574.8125 Q1231.8125,576.9063 1232.5,577.9844 Q1233.1875,579.0469 1234.5313,579.0469 Q1235.1563,579.0469 1235.75,578.7813 Q1236.3438,578.5 1236.9688,577.9219 L1236.9688,580.6406 Z " fill="#000000"/><text fill="#000000" font-family="sans-serif" font-size="14" lengthAdjust="spacing" textLength="91" x="1248" y="579.8467">PrimitiveType</text></g><!--class TextAnchor--><g id="elem_TextAnchor"><rect codeLine="606" fill="#F1F1F1" height="32" id="TextAnchor" rx="2.5" ry="2.5" style="stroke:#181818;stroke-width:0.5;" width="111" x="1445" y="283"/><ellipse cx="1460" cy="299" fill="#ADD1B2" rx="11" ry="11" style="stroke:#181818;stroke-width:1.0;"/><path d="M1462.9688,304.6406 Q1462.3906,304.9375 1461.75,305.0781 Q1461.1094,305.2344 1460.4063,305.2344 Q1457.9063,305.2344 1456.5781,303.5938 Q1455.2656,301.9375 1455.2656,298.8125 Q1455.2656,295.6875 1456.5781,294.0313 Q1457.9063,292.375 1460.4063,292.375 Q1461.1094,292.375 1461.75,292.5313 Q1462.4063,292.6875 1462.9688,292.9844 L1462.9688,295.7031 Q1462.3438,295.125 1461.75,294.8594 Q1461.1563,294.5781 1460.5313,294.5781 Q1459.1875,294.5781 1458.5,295.6563 Q1457.8125,296.7188 1457.8125,298.8125 Q1457.8125,300.9063 1458.5,301.9844 Q1459.1875,303.0469 1460.5313,303.0469 Q1461.1563,303.0469 1461.75,302.7813 Q1462.3438,302.5 1462.9688,301.9219 L1462.9688,304.6406 Z " fill="#000000"/><text fill="#000000" font-family="sans-serif" font-size="14" lengthAdjust="spacing" textLength="79" x="1474" y="303.8467">TextAnchor</text></g><!--class FamixRepository--><g id="elem_FamixRepository"><rect codeLine="619" fill="#F1F1F1" height="32" id="FamixRepository" rx="2.5" ry="2.5" style="stroke:#181818;stroke-width:0.5;" width="145" x="25" y="283"/><ellipse cx="40" cy="299" fill="#ADD1B2" rx="11" ry="11" style="stroke:#181818;stroke-width:1.0;"/><path d="M42.9688,304.6406 Q42.3906,304.9375 41.75,305.0781 Q41.1094,305.2344 40.4063,305.2344 Q37.9063,305.2344 36.5781,303.5938 Q35.2656,301.9375 35.2656,298.8125 Q35.2656,295.6875 36.5781,294.0313 Q37.9063,292.375 40.4063,292.375 Q41.1094,292.375 41.75,292.5313 Q42.4063,292.6875 42.9688,292.9844 L42.9688,295.7031 Q42.3438,295.125 41.75,294.8594 Q41.1563,294.5781 40.5313,294.5781 Q39.1875,294.5781 38.5,295.6563 Q37.8125,296.7188 37.8125,298.8125 Q37.8125,300.9063 38.5,301.9844 Q39.1875,303.0469 40.5313,303.0469 Q41.1563,303.0469 41.75,302.7813 Q42.3438,302.5 42.9688,301.9219 L42.9688,304.6406 Z " fill="#000000"/><text fill="#000000" font-family="sans-serif" font-size="14" lengthAdjust="spacing" textLength="113" x="54" y="303.8467">FamixRepository</text></g><!--class FamixJSONExporter--><g id="elem_FamixJSONExporter"><rect codeLine="654" fill="#F1F1F1" height="32" id="FamixJSONExporter" rx="2.5" ry="2.5" style="stroke:#181818;stroke-width:0.5;" width="162" x="205.5" y="283"/><ellipse cx="220.5" cy="299" fill="#ADD1B2" rx="11" ry="11" style="stroke:#181818;stroke-width:1.0;"/><path d="M223.4688,304.6406 Q222.8906,304.9375 222.25,305.0781 Q221.6094,305.2344 220.9063,305.2344 Q218.4063,305.2344 217.0781,303.5938 Q215.7656,301.9375 215.7656,298.8125 Q215.7656,295.6875 217.0781,294.0313 Q218.4063,292.375 220.9063,292.375 Q221.6094,292.375 222.25,292.5313 Q222.9063,292.6875 223.4688,292.9844 L223.4688,295.7031 Q222.8438,295.125 222.25,294.8594 Q221.6563,294.5781 221.0313,294.5781 Q219.6875,294.5781 219,295.6563 Q218.3125,296.7188 218.3125,298.8125 Q218.3125,300.9063 219,301.9844 Q219.6875,303.0469 221.0313,303.0469 Q221.6563,303.0469 222.25,302.7813 Q222.8438,302.5 223.4688,301.9219 L223.4688,304.6406 Z " fill="#000000"/><text fill="#000000" font-family="sans-serif" font-size="14" lengthAdjust="spacing" textLength="130" x="234.5" y="303.8467">FamixJSONExporter</text></g><!--reverse link FamixBaseElement to Entity--><g id="link_FamixBaseElement_Entity"><path d="M1020.5,59.61 C1020.5,73.31 1020.5,88.22 1020.5,98.96 " fill="none" id="FamixBaseElement-backto-Entity" style="stroke:#181818;stroke-width:1.0;"/><polygon fill="none" points="1013.5,59.27,1020.5,39.27,1027.5,59.27,1013.5,59.27" style="stroke:#181818;stroke-width:1.0;"/></g><!--reverse link Entity to SourceLanguage--><g id="link_Entity_SourceLanguage"><path d="M973.3,140.41 C942.16,156.52 902.35,177.11 875.72,190.89 " fill="none" id="Entity-backto-SourceLanguage" style="stroke:#181818;stroke-width:1.0;"/><polygon fill="none" points="970.4,134.03,991.38,131.06,976.83,146.47,970.4,134.03" style="stroke:#181818;stroke-width:1.0;"/></g><!--reverse link SourcedEntity to Comment--><g id="link_SourcedEntity_Comment"><path d="M943.07,228.2 C876.56,245.55 782.63,270.05 725.58,284.94 " fill="none" id="SourcedEntity-backto-Comment" style="stroke:#181818;stroke-width:1.0;"/><polygon fill="none" points="941.64,221.34,962.75,223.06,945.17,234.89,941.64,221.34" style="stroke:#181818;stroke-width:1.0;"/></g><!--reverse link Entity to SourceAnchor--><g id="link_Entity_SourceAnchor"><path d="M1074.99,131.82 C1132.48,148.51 1222.4,174.61 1278.8,190.99 " fill="none" id="Entity-backto-SourceAnchor" style="stroke:#181818;stroke-width:1.0;"/><polygon fill="none" points="1073.01,138.54,1055.76,126.24,1076.92,125.09,1073.01,138.54" style="stroke:#181818;stroke-width:1.0;"/></g><!--reverse link Entity to SourcedEntity--><g id="link_Entity_SourcedEntity"><path d="M1020.5,151.61 C1020.5,165.31 1020.5,180.22 1020.5,190.96 " fill="none" id="Entity-backto-SourcedEntity" style="stroke:#181818;stroke-width:1.0;"/><polygon fill="none" points="1013.5,151.27,1020.5,131.27,1027.5,151.27,1013.5,151.27" style="stroke:#181818;stroke-width:1.0;"/></g><!--reverse link SourcedEntity to Association--><g id="link_SourcedEntity_Association"><path d="M967.99,231.17 C931.09,247.45 882.79,268.76 850.76,282.89 " fill="none" id="SourcedEntity-backto-Association" style="stroke:#181818;stroke-width:1.0;"/><polygon fill="none" points="965.23,224.73,986.35,223.06,970.88,237.54,965.23,224.73" style="stroke:#181818;stroke-width:1.0;"/></g><!--reverse link ScopingEntity to Namespace--><g id="link_ScopingEntity_Namespace"><path d="M353.75,509.56 C327.74,525.49 295.15,545.44 273.18,558.89 " fill="none" id="ScopingEntity-backto-Namespace" style="stroke:#181818;stroke-width:1.0;"/><polygon fill="none" points="350.18,503.54,370.9,499.06,357.49,515.48,350.18,503.54" style="stroke:#181818;stroke-width:1.0;"/></g><!--reverse link ContainerEntity to ScopingEntity--><g id="link_ContainerEntity_ScopingEntity"><path d="M1000.69,407.12 C790.13,437.92 565.59,463.48 458.55,475.21 " fill="none" id="ContainerEntity-backto-ScopingEntity" style="stroke:#181818;stroke-width:1.0;"/><polygon fill="none" points="999.88,400.17,1020.69,404.18,1001.92,414.02,999.88,400.17" style="stroke:#181818;stroke-width:1.0;"/></g><!--reverse link ScopingEntity to ScriptEntity--><g id="link_ScopingEntity_ScriptEntity"><path d="M395.5,519.61 C395.5,533.31 395.5,548.22 395.5,558.96 " fill="none" id="ScopingEntity-backto-ScriptEntity" style="stroke:#181818;stroke-width:1.0;"/><polygon fill="none" points="388.5,519.27,395.5,499.27,402.5,519.27,388.5,519.27" style="stroke:#181818;stroke-width:1.0;"/></g><!--reverse link ScriptEntity to Module--><g id="link_ScriptEntity_Module"><path d="M387.31,611.12 C384.08,624.95 380.55,640.09 378.01,650.96 " fill="none" id="ScriptEntity-backto-Module" style="stroke:#181818;stroke-width:1.0;"/><polygon fill="none" points="380.58,609.15,391.94,591.27,394.21,612.33,380.58,609.15" style="stroke:#181818;stroke-width:1.0;"/></g><!--reverse link Association to ImportClause--><g id="link_Association_ImportClause"><path d="M740.93,315.82 C657.66,333.25 525.31,360.95 448.08,377.11 " fill="none" id="Association-backto-ImportClause" style="stroke:#181818;stroke-width:1.0;"/><polygon fill="none" points="739.72,308.92,760.73,311.67,742.58,322.62,739.72,308.92" style="stroke:#181818;stroke-width:1.0;"/></g><!--reverse link NamedEntity to Alias--><g id="link_NamedEntity_Alias"><path d="M1180.45,331.69 C1191.56,346.4 1204.24,363.18 1213.14,374.96 " fill="none" id="NamedEntity-backto-Alias" style="stroke:#181818;stroke-width:1.0;"/><polygon fill="none" points="1174.51,335.44,1168.04,315.27,1185.68,327,1174.51,335.44" style="stroke:#181818;stroke-width:1.0;"/></g><!--reverse link NamedEntity to Decorator--><g id="link_NamedEntity_Decorator"><path d="M1205.75,323.96 C1238.99,340.13 1281.85,360.98 1310.43,374.89 " fill="none" id="NamedEntity-backto-Decorator" style="stroke:#181818;stroke-width:1.0;"/><polygon fill="none" points="1202.39,330.11,1187.46,315.06,1208.51,317.52,1202.39,330.11" style="stroke:#181818;stroke-width:1.0;"/></g><!--reverse link SourcedEntity to NamedEntity--><g id="link_SourcedEntity_NamedEntity"><path d="M1060.17,234.25 C1084.06,250.06 1113.63,269.63 1133.66,282.89 " fill="none" id="SourcedEntity-backto-NamedEntity" style="stroke:#181818;stroke-width:1.0;"/><polygon fill="none" points="1056.08,239.94,1043.26,223.06,1063.81,228.26,1056.08,239.94" style="stroke:#181818;stroke-width:1.0;"/></g><!--reverse link StructuralEntity to Parameter--><g id="link_StructuralEntity_Parameter"><path d="M1599.65,418.49 C1576.53,434.26 1548.01,453.7 1528.67,466.89 " fill="none" id="StructuralEntity-backto-Parameter" style="stroke:#181818;stroke-width:1.0;"/><polygon fill="none" points="1595.94,412.55,1616.41,407.06,1603.82,424.11,1595.94,412.55" style="stroke:#181818;stroke-width:1.0;"/></g><!--reverse link StructuralEntity to Property--><g id="link_StructuralEntity_Property"><path d="M1638.5,427.61 C1638.5,441.31 1638.5,456.22 1638.5,466.96 " fill="none" id="StructuralEntity-backto-Property" style="stroke:#181818;stroke-width:1.0;"/><polygon fill="none" points="1631.5,427.27,1638.5,407.27,1645.5,427.27,1631.5,427.27" style="stroke:#181818;stroke-width:1.0;"/></g><!--reverse link Association to Inheritance--><g id="link_Association_Inheritance"><path d="M750.52,321.28 C699.41,337.77 629.87,360.2 584.35,374.89 " fill="none" id="Association-backto-Inheritance" style="stroke:#181818;stroke-width:1.0;"/><polygon fill="none" points="748.62,314.54,769.8,315.06,752.92,327.87,748.62,314.54" style="stroke:#181818;stroke-width:1.0;"/></g><!--reverse link Type to Interface--><g id="link_Type_Interface"><path d="M893.46,495.94 C828.24,510.65 714.18,536.45 616.5,559 C610.72,560.33 604.64,561.75 598.64,563.15 " fill="none" id="Type-backto-Interface" style="stroke:#181818;stroke-width:1.0;"/><polygon fill="none" points="892.18,489.05,913.23,491.48,895.25,502.71,892.18,489.05" style="stroke:#181818;stroke-width:1.0;"/></g><!--reverse link BehavioralEntity to Method--><g id="link_BehavioralEntity_Method"><path d="M1373.77,515.21 C1385.3,530.03 1398.54,547.06 1407.8,558.96 " fill="none" id="BehavioralEntity-backto-Method" style="stroke:#181818;stroke-width:1.0;"/><polygon fill="none" points="1368.13,519.35,1361.37,499.27,1379.18,510.76,1368.13,519.35" style="stroke:#181818;stroke-width:1.0;"/></g><!--reverse link Type to Class--><g id="link_Type_Class"><path d="M894.17,500.94 C838.21,519.06 751.08,547.26 703.1,562.8 " fill="none" id="Type-backto-Class" style="stroke:#181818;stroke-width:1.0;"/><polygon fill="none" points="892.06,494.27,913.24,494.77,896.37,507.59,892.06,494.27" style="stroke:#181818;stroke-width:1.0;"/></g><!--reverse link Class to ParameterizableClass--><g id="link_Class_ParameterizableClass"><path d="M702.9,603.89 C722.03,619.4 745.07,638.09 760.86,650.89 " fill="none" id="Class-backto-ParameterizableClass" style="stroke:#181818;stroke-width:1.0;"/><polygon fill="none" points="698.21,609.1,687.08,591.06,707.02,598.22,698.21,609.1" style="stroke:#181818;stroke-width:1.0;"/></g><!--reverse link Interface to ParameterizableInterface--><g id="link_Interface_ParameterizableInterface"><path d="M552.5,611.61 C552.5,625.31 552.5,640.22 552.5,650.96 " fill="none" id="Interface-backto-ParameterizableInterface" style="stroke:#181818;stroke-width:1.0;"/><polygon fill="none" points="545.5,611.27,552.5,591.27,559.5,611.27,545.5,611.27" style="stroke:#181818;stroke-width:1.0;"/></g><!--reverse link BehavioralEntity to Function--><g id="link_BehavioralEntity_Function"><path d="M1400.17,507.51 C1435.16,523.74 1480.67,544.85 1510.92,558.89 " fill="none" id="BehavioralEntity-backto-Function" style="stroke:#181818;stroke-width:1.0;"/><polygon fill="none" points="1397.17,513.83,1381.97,499.06,1403.06,501.13,1397.17,513.83" style="stroke:#181818;stroke-width:1.0;"/></g><!--reverse link Method to Accessor--><g id="link_Method_Accessor"><path d="M1419.5,611.61 C1419.5,625.31 1419.5,640.22 1419.5,650.96 " fill="none" id="Method-backto-Accessor" style="stroke:#181818;stroke-width:1.0;"/><polygon fill="none" points="1412.5,611.27,1419.5,591.27,1426.5,611.27,1412.5,611.27" style="stroke:#181818;stroke-width:1.0;"/></g><!--reverse link Type to ParameterType--><g id="link_Type_ParameterType"><path d="M906.02,510.02 C881.37,525.87 850.73,545.57 830.01,558.89 " fill="none" id="Type-backto-ParameterType" style="stroke:#181818;stroke-width:1.0;"/><polygon fill="none" points="902.46,503.99,923.07,499.06,910.03,515.77,902.46,503.99" style="stroke:#181818;stroke-width:1.0;"/></g><!--reverse link ContainerEntity to BehavioralEntity--><g id="link_ContainerEntity_BehavioralEntity"><path d="M1151.94,413.61 C1199.47,430.07 1263.7,452.3 1305.84,466.89 " fill="none" id="ContainerEntity-backto-BehavioralEntity" style="stroke:#181818;stroke-width:1.0;"/><polygon fill="none" points="1149.63,420.22,1133.02,407.06,1154.21,406.99,1149.63,420.22" style="stroke:#181818;stroke-width:1.0;"/></g><!--reverse link Association to Invocation--><g id="link_Association_Invocation"><path d="M776.6,326.02 C752.3,341.87 722.1,361.57 701.67,374.89 " fill="none" id="Association-backto-Invocation" style="stroke:#181818;stroke-width:1.0;"/><polygon fill="none" points="772.83,320.13,793.4,315.06,780.47,331.85,772.83,320.13" style="stroke:#181818;stroke-width:1.0;"/></g><!--reverse link Association to Reference--><g id="link_Association_Reference"><path d="M816.5,335.61 C816.5,349.31 816.5,364.22 816.5,374.96 " fill="none" id="Association-backto-Reference" style="stroke:#181818;stroke-width:1.0;"/><polygon fill="none" points="809.5,335.27,816.5,315.27,823.5,335.27,809.5,335.27" style="stroke:#181818;stroke-width:1.0;"/></g><!--reverse link StructuralEntity to Variable--><g id="link_StructuralEntity_Variable"><path d="M1675.34,418.95 C1696.77,434.64 1723,453.83 1740.85,466.89 " fill="none" id="StructuralEntity-backto-Variable" style="stroke:#181818;stroke-width:1.0;"/><polygon fill="none" points="1671.09,424.52,1659.09,407.06,1679.36,413.22,1671.09,424.52" style="stroke:#181818;stroke-width:1.0;"/></g><!--reverse link NamedEntity to ContainerEntity--><g id="link_NamedEntity_ContainerEntity"><path d="M1132.91,331.69 C1121.96,346.4 1109.46,363.18 1100.7,374.96 " fill="none" id="NamedEntity-backto-ContainerEntity" style="stroke:#181818;stroke-width:1.0;"/><polygon fill="none" points="1127.58,327.13,1145.13,315.27,1138.81,335.49,1127.58,327.13" style="stroke:#181818;stroke-width:1.0;"/></g><!--reverse link ContainerEntity to Type--><g id="link_ContainerEntity_Type"><path d="M1048.52,417.79 C1023.28,433.68 991.78,453.5 970.51,466.89 " fill="none" id="ContainerEntity-backto-Type" style="stroke:#181818;stroke-width:1.0;"/><polygon fill="none" points="1044.91,411.79,1065.57,407.06,1052.37,423.64,1044.91,411.79" style="stroke:#181818;stroke-width:1.0;"/></g><!--reverse link NamedEntity to StructuralEntity--><g id="link_NamedEntity_StructuralEntity"><path d="M1236.07,315.46 C1365.21,339.94 1493.81,363.59 1570.39,377.59 " fill="none" id="NamedEntity-backto-StructuralEntity" style="stroke:#181818;stroke-width:1.0;"/><polygon fill="none" points="1234.52,322.29,1216.18,311.68,1237.14,308.54,1234.52,322.29" style="stroke:#181818;stroke-width:1.0;"/></g><!--reverse link Association to Access--><g id="link_Association_Access"><path d="M854.5,326.72 C876.87,342.45 904.34,361.76 923.01,374.89 " fill="none" id="Association-backto-Access" style="stroke:#181818;stroke-width:1.0;"/><polygon fill="none" points="850.26,332.29,837.92,315.06,858.31,320.84,850.26,332.29" style="stroke:#181818;stroke-width:1.0;"/></g><!--reverse link Type to Enum--><g id="link_Type_Enum"><path d="M946.5,519.61 C946.5,533.31 946.5,548.22 946.5,558.96 " fill="none" id="Type-backto-Enum" style="stroke:#181818;stroke-width:1.0;"/><polygon fill="none" points="939.5,519.27,946.5,499.27,953.5,519.27,939.5,519.27" style="stroke:#181818;stroke-width:1.0;"/></g><!--reverse link StructuralEntity to EnumValue--><g id="link_StructuralEntity_EnumValue"><path d="M1700.29,413.72 C1747.06,430.17 1810.11,452.33 1851.51,466.89 " fill="none" id="StructuralEntity-backto-EnumValue" style="stroke:#181818;stroke-width:1.0;"/><polygon fill="none" points="1697.89,420.3,1681.35,407.06,1702.54,407.09,1697.89,420.3" style="stroke:#181818;stroke-width:1.0;"/></g><!--reverse link Variable to ImplicitVariable--><g id="link_Variable_ImplicitVariable"><path d="M1761.5,519.61 C1761.5,533.31 1761.5,548.22 1761.5,558.96 " fill="none" id="Variable-backto-ImplicitVariable" style="stroke:#181818;stroke-width:1.0;"/><polygon fill="none" points="1754.5,519.27,1761.5,499.27,1768.5,519.27,1754.5,519.27" style="stroke:#181818;stroke-width:1.0;"/></g><!--reverse link SourceAnchor to IndexedFileAnchor--><g id="link_SourceAnchor_IndexedFileAnchor"><path d="M1330.5,243.61 C1330.5,257.31 1330.5,272.22 1330.5,282.96 " fill="none" id="SourceAnchor-backto-IndexedFileAnchor" style="stroke:#181818;stroke-width:1.0;"/><polygon fill="none" points="1323.5,243.27,1330.5,223.27,1337.5,243.27,1323.5,243.27" style="stroke:#181818;stroke-width:1.0;"/></g><!--reverse link Type to ParameterizedType--><g id="link_Type_ParameterizedType"><path d="M989.84,509.33 C1017.16,525.29 1051.52,545.37 1074.64,558.89 " fill="none" id="Type-backto-ParameterizedType" style="stroke:#181818;stroke-width:1.0;"/><polygon fill="none" points="986.01,515.2,972.28,499.06,993.08,503.11,986.01,515.2" style="stroke:#181818;stroke-width:1.0;"/></g><!--reverse link Type to PrimitiveType--><g id="link_Type_PrimitiveType"><path d="M999.35,498.24 C1060.88,514.82 1162.04,542.08 1224.77,558.98 " fill="none" id="Type-backto-PrimitiveType" style="stroke:#181818;stroke-width:1.0;"/><polygon fill="none" points="997.24,504.92,979.75,492.96,1000.88,491.4,997.24,504.92" style="stroke:#181818;stroke-width:1.0;"/></g><!--reverse link SourceAnchor to TextAnchor--><g id="link_SourceAnchor_TextAnchor"><path d="M1377.04,232.64 C1407.4,248.71 1446.06,269.18 1471.95,282.89 " fill="none" id="SourceAnchor-backto-TextAnchor" style="stroke:#181818;stroke-width:1.0;"/><polygon fill="none" points="1373.35,238.61,1358.95,223.06,1379.91,226.24,1373.35,238.61" style="stroke:#181818;stroke-width:1.0;"/></g><!--SRC=[xHrhRzmsydj-XUwRZDh67N07tAc12yUFOjlwqMoQVYYAG2jnRLrsfOKe-UnByz-Fp-5hgDsrlKfoJJuuMivmE1mEXyFXKFfBLHUBlYG9VL_Lz53zEbproyMBOf5JcfpLNTKz9EI-8tL9a_DyMTs_oYavMv0bgRlamuk4_VlcXdG_JAykqxqieLrRrJUoE2_BwxPPaRQh27tJdDslchOZRKhKGoO9ygeQnYZSDLNvugDYODhqRK5-okkRFhyXm8ZYIpP_G0LIAGfPIrao9TtBgLNuS2GPglCbSLbad4_TshmJiVgiGqvnQhVya2KEK7Tbnn8wQPPYABHe71wqX2hwm_IqAR9arZGBajV0r4G2E5yEY1gGNzVkrq7Hr5rUrPnJfs5eu4GZ2Bc6ADH6YL4BccGT3iRnH9Rx8gO6ujKSQO1aJuxhuhPf8mfCv7IAoL3DjhW4DG9EPwH-dlzyUTxNHLSrDRKC0ojEwwPaywwZXvViuINxNpqUkLmSCFHBDaMlvXoOvckgGCESCsXwKfVaNWjspa6loKgnpvuQMdLDAqLtOBESEHsGx2_pzqHK54JFguKQHZNlpxIu9qikabF2-6bpNZ_vGmq1hyD-N3Hblo0kmWbdtYsQCFrivtdXOHuU7YP_-rUoR5eYdlz8s1YqX586_hNgRjyyhCXnUzDpPkX-8ZeDl0d-3r65-FYYqWqoavUtnUqrQtH9M1cC81NbnssRFsZ1__Qx17LvomOC1L46wxxBahfVpaWR6QbZIfkYocs5UUA0oUf2i1Svey7-l9ICxIiv21WJeFm5tQt-cyyMH02FB4em7X5g08zH10IRggkg6QQ_Kef5I_9EAk1nKR3nLXDfKhAHhUOLQVUJgjHITgQvLNLItpM5a39IVScwHRhRflHqap7IjNt19Ey2D9jugL5BLlWzqmt1jKzZYW8swyejasoNrmL9YmNJW0td4ADTtmhSR8jfDp39eWmAGy2Qw2b9A-l7f9utMV8XgNnByHrYFRvLQ6OTv6RaMsO0k1MPhaWXHeyNNkVThPvykffdbW2VznI6dY4pLPEsdCBQpajFoJpl5vq4MP2FpYhCBRkmCyAYl7gObAcSClOWoZbXBLP1jVD-iNZukSyNdAcI6_zq7XHP2tP8SLxL9RFAX39T3HISrT3hXrWy8fQ8Z-spcQ3bFISNiHWSP8n5MosPptb7t59ZGaZ98K-m7LVjzqhWd53QiJ-sGFSJy1YsiW8IULhTr7dNjoHg5_XYzKzxtHAJQ57bzWI4KNsCR7QfLO9PhLcVXw0sKURdqsF1G4IH1Um8K9zdpLtkOCLTtlF1fgiuJO2RAjoqHh2dHLkjEkM_QoQaV_UOYUfXspvHDk0lONM55SimqoQnVxdyyVBgryjtRuz_-kKis3vvIfBkuNeJ61OkgdHkBrHijQLI8FQUSQtqSF8mE2btLNmt6kW2MkWvSKNbUub1soC0E0T2Gt5t0wglLt6SDcXhAZpn37L5e9NDbJ-GWjhSFQGhzP0bkiYrHBeKR1QqhY41RMdaqgNuxya6ScktiUZRbbdcavCiwUltTVCV8p197QIbgmSzqBE5hH9raMtiv0wshT73eT1Zbgxu4ni8NO2DEG3ZTEJIlf8QlXanM3fjWc_pjk9QbDwfXopHHHWn3Gled37_BoNiZmwByGAC0Yz7Qx_D5pqH92u8ToKb2Vdir1Q8-DHY3JQiFRPqb_efIw1mFr6b9dY7R0mmLSO4RCqRjtHBPOQ-0P-1U5IuBota_vcE_xtEwnjcUTdQDIqO9xPTL3taPZc8v2dp9Mce-DgVo7FykiN-kiN-OhROJz_LCAEnwZi2qo_joBqT3lS2gyocSHtYGd1t5VR6mVajSQGdG8_h4W1yU7beWFlJKW7tFvTPeRpsN430wTTCHimziZ165m6pTgccX7G9Cb5K-FG0mh8KzmWrdjHMQgkm1X6jTgz9NZRrui7UoQWGlYrx-jllHxfkwDN8MRYoz465mCMpsxv_t70HqmQ-nVXizO5pBe7oI737EY4EiAHQyDOYYY5Ex40tEEA0TWZPImKn9qUMYeYJ9Qab7Fu8FR7qmTq1EcPCOJrg8wShYvMVzMEPhJzN-MmMMymN4rq3fsHWDsn-udiOAD2yOZBN6hLMR4za5clRqjDFqRoUZ5zrPakTuPRfgz2s51giR5y5jvtWeCLFOoMs3GuwXZKjdXuH3AnbMZrl450tC1NAnNn-iVd5M8zkx7ofh-yQ03Td5XiT4xHyOhHI4zIHoh63b1i597rRmbsgJIS_7dNqAHfyoea_WnbwiiLvYkqmoIhFCA9ZcjbdwRIO59j7ZdLz9qPCKx9Dj6Oh4VEmtT_j2DwcqXaqA37pyIoBaIERnqRKVGTqskMTpCwxC_5qA0oYwTxUoiJajmZ6swuS7-6ryNUxWeoztsqGSjUr85WTKwUnm-XFMh8q1njh5533LCewXN1E7yZdVDu0Neuy5X33-epfZ5WlHOhZFsnp4KoLmSCDTFUhZqgsE2J1ZqJqUROLzFB27JfvsWkTwWZI5j5J7MM3uDCeWKdKDszASjwqm4YzxbZ4wxmv5NbC_wtQwHSMK1uGfjsh-aiw9mh65ew97ZUufdew40xdfqhhGk7-cSbakPAdCwIyQiz4lZqfhMZKUehx2UrdsvrbCIRIHvnniTNU5wnrelKeoThrK_I0WAq-ZpeSy0KjRI8_7XERLl-8BJnFcgWZDzqjnlA_IT69pHr_sFo4oJw9o9npAdTxhqnNvjjZR-yDSp93R9U7QnGtmoQ3YsqFHeOEiHmydQjttZPBBb2QhlXVarOVoSOoZfkwl0GYpMltteVTWbI6TCxaLJjd-d9vyuyG_GmmXrdPNkeF9LBNlGzJUbVB_FjAqwwVOTULU3b-Mqb0l8gEobBh8axcNClnxeAfInvx61BraE94lKjBqfMITykKSs4T_MXFQmz3oCioblRXD5AAoKTAzz9SvbsYWqPFKNJJRRS2ZLROhDcHRY5PIPB3L-9gSVHjeGDdbmp2EGjWLC62gjw2J-wgfgSuyMi5ZJK0S9JCI48qSLKG8VENMGkk25SvFoPMhhI3ORfhK8HYXKZKHOhJ7EkwdjDJtN-ue-XAeBYj5YLZs8InvVprKeg_KHVRLAHx3qTYp9j3Ka4PVcPcI4OJWnL87zG2wITUpNzYug5NypTYSgYBNz3v48VpR6DH76k0kZFhDDx9BNC_2XxRYZ9XK0Pui93Yf4SQ2tNUOaR16Xer24tVtJIiJUbRA2sq7GsZY5SkgjP619cnxY8x-LRQvPE_HXA5tIG8nBRvse4GUA2hEkF0E18kN6HuM1Wqn33vOiXnaW92BgaLKV2QXAlZUmWM3R0623iCU7bhGNR_XGj7Badx616AOotZ_CWD1jZgjRls3CdxsiA8ITl1YP9q99sBL1GO49DAoXE6R1Xlqq2f3qNeZ2HR2FODoHUIfitsDL2gqn07KImCQu2wxz6wIThOG9-wIB6nzj66Q8_eP_aR8THPZUTvclixONPeE1RRff2QaMX9GQex7aYnDijYtO02iyIy3f5XcV7HcHX3z3HiZWThzBDhUsksATfiwPkugCDBdukSvhLyY2zx1-ZhHI8Z8OhhcBIbSL1ziQxQ6IC3pDjGnhNAQE1_Csb5iGdLj8esJCwZS5P34puIQsRuTiL8qmT2u6Rog2o7V36qMhmYjpdRMm5MTCd04OVN3R_EMBBGnrRhH579v9LfLH8ilW90FCXYm1WTTn_iY4KVidbNr12XHp27fHvKyhqZuSGefPUYFxAT8mdM2kyWiC7H2AacDB8tP0KOXvnUshDM2YjkZSfx2bZ3qhRm1WcxCRP-jW43iusQd-d6PviqlLFnwom3BNnnjSX4iHLrgJnw9XvPCH-DeHNCmp4yOXSqNLMMHs6IZ3mlEl9JxNKh3fYhCNPHqni-rg8RuvQBDfGSkNha7EJinR3vUxCyxDHlAhErtDUfZLcQRS7Gp6LdjWapkzpbopm3hMB-Ee8lPP_KhBwlwZBmTtvaXOY_8uhj2guFHuzdh3WlEcnDqZ1yIG8eGiHhPAILhwBNRNN7jXPOCmg4DwA18GM_WNwsgD3tkKb8XBo41TK3xfkE56ndXFElWB4UQ316Pwntuec_cB4UHT6-hWXVLuHdtT_OUMfm8Y5-cKN1f25ghRFBZknrmK85zKEGUG-STmmuhLZPfoF6hgBvdreifkJF9XgT8h7EWzXbr5RdHceMb4_pOJIr4BOUzTA5N_CzgPdg55aIIG4TI2-6D50_0THzqGTuNgeftjcTDKRzndRVov6KET3TDGUn5OLEXykwDHJXggw18GLtoT5t1SBt1yDj-j3hDR2WlXyhKHdvdir1Z5Dec12ZP0oIfGNeWUcrrNJamDHjEd9WQY75IUE1sqr2ofCGUIYa7AAdONFHaBBEQ976t3dYERL0mGcF0mo9E6rqpaMCNQrBJYkVPbqoCXwANHLvNLObs_4eKVW6mCgL0amjYGWkJvlIk2dG7uxGwdEE5ZzgKYSLRUoC2U0e6TUWyBpKDlCDcZ4h0YvsxXW61Om8eV6irmvrvpMP4xQYhGbxggp5g2HbkkEG92L6X90xRSLBZpsZy4OK1kP05TjLHfARlWMmuS68r-6uAAynz279uXKsQtMq5-Yx7iNQf8FFNrgGb-RYG432gshPrbWzavYArUIMbjVqEI-GmZMCFnIBPiccTt7Iy3p-Ur73yqjE42J4Cq7HXXf0_IEuVnJtZmpAW7za8SL9Enped2umWchqu7UOqsLGzO3vo5PE5u3IeANCM5vKA2eRxqIyx6muru_ZhC_r4rW3r571REGuNeN8GuvZY9w6pKKTnnmk78YZUV4BVvzG0ETdz_8DT998fhPWwBosOXckg-XuYAvZAE_zSm8HZrGJj-vUS2hEziyt6ER55tlhi1aBSBLTDAL_ULSy4AkWNqYfEDAhcs73lErb3qLXRG-ytNAaXSQ9JSGIYiqNK6AhYlD5bTXAWdvJPT2lqI_0Y6ITl37mIEO9OAH02yj0eVf55E8AtwcpIHBVtV4y5IkM6wq9t-p1w_BOhguRLAKnI1OuJKu_Pkukeehr9xwHURMMmleDZWy9ACpM8ApP3kbDymPhq2H07LY30kGqQ2co1kqovzrtaWTSGStkyQ35dtXOCSllugKkSNGb6254iVD0yT2cBbVnnxWTr17A8JC8E55ow3eJJlrWfH4ZYI9H2obEq3jo_RMjyEDY0S0ZbnBarnrf1FdTSJJGViVV3w6c0xmlmbwfELZF0nz1hDFY_HFyhtm7XIWOiLUYlIqp2isRh97C2mCSJhRWUEDTerXKHTK5SG8e-B3xi619xabfFghbPK2hGXtZuH-Kkcx2FTXK0P0j1e3yoixSOqrYTCz4CK9L0TngFaM-Wy58ydASfe2epugvzJtlYNK5fJxLa9Wah1QcFXMd3Nul64ynLm0iiLo3_ChZdmlBvGorJJFclY8BvYjL72oM070hkbi-VPaVsux1JNzyIwR1gIOowYBilYWTaTSkzqAikV-pQVybJXllZhxtFKex061zzVN8_zOUX1MZty-3-0poERmrTsSbqaKioKc2tmu5288tIWp6AHHs1SIyLqewd_gfofEcbrzkyHJ9_pXQ5NmNpP8eNkjHxtiFg4fju1Rch_pj-FEcNUQTUP_zHq-fteaR9Wi_xelhW8-jNt2IThVAN09pQuXONzhnBiLONyy1HFEsJ0_PIsw52YhFpSEMfHugnAXgHBgkmdWrmUltQheVIW5qSzVRm_U-PHHMYDuWDvseGZPGFKRgcIyWnnN_ctSoPL0mS4mPDdyPYFvIKYxVw-gDldEfGjMNtl2c5Ap5yrrLLzr5Bjv1mXWZ2turWopimRLU3ANUOcyMtk23kRvghh6_7r_aAWCqiGmfycLiC-tbxm-wtiTanrRTHWY-CuoQYeDPFv-JLdtGDQ_rX-BazwF8lBgFSVgGkk-HuHchzXUH1aNvFm00]--></g></svg>