<?xml version="1.0" encoding="us-ascii" standalone="no"?><svg xmlns="http://www.w3.org/2000/svg" xmlns:xlink="http://www.w3.org/1999/xlink" contentStyleType="text/css" height="690px" preserveAspectRatio="none" style="width:2148px;height:690px;background:#FFFFFF;" version="1.1" viewBox="0 0 2148 690" width="2148px" zoomAndPan="magnify"><defs/><g><!--class Entity--><g id="elem_Entity"><rect codeLine="1" fill="#F1F1F1" height="32" id="Entity" rx="2.5" ry="2.5" style="stroke:#181818;stroke-width:0.5;" width="68" x="1365" y="99"/><ellipse cx="1380" cy="115" fill="#ADD1B2" rx="11" ry="11" style="stroke:#181818;stroke-width:1.0;"/><path d="M1379.9375,110.8281 Q1379.1875,110.8281 1378.625,111.125 Q1378.0625,111.4063 1377.6719,111.9375 Q1377.2813,112.4688 1377.0781,113.25 Q1376.8906,114.0156 1376.8906,114.9688 Q1376.8906,115.9375 1377.0625,116.7031 Q1377.25,117.4531 1377.6094,117.9688 Q1377.9844,118.4844 1378.5625,118.7656 Q1379.1406,119.0313 1379.9375,119.0313 Q1380.6719,119.0313 1381.4063,118.8594 Q1382.1563,118.6875 1383.0313,118.3906 L1383.0313,120.5469 Q1382.625,120.7031 1382.2344,120.8281 Q1381.8438,120.9375 1381.4375,121.0156 Q1381.0313,121.0938 1380.6094,121.125 Q1380.1875,121.1719 1379.6875,121.1719 Q1378.2813,121.1719 1377.25,120.7188 Q1376.2344,120.2656 1375.5625,119.4531 Q1374.8906,118.6406 1374.5625,117.5 Q1374.2344,116.3438 1374.2344,114.9531 Q1374.2344,113.5781 1374.6094,112.4219 Q1374.9844,111.2656 1375.7031,110.4375 Q1376.4219,109.6094 1377.4844,109.1563 Q1378.5469,108.6875 1379.9375,108.6875 Q1380.8438,108.6875 1381.75,108.9219 Q1382.6563,109.1406 1383.4844,109.5469 L1382.6563,111.6406 Q1381.9688,111.3125 1381.2813,111.0781 Q1380.5938,110.8281 1379.9375,110.8281 Z " fill="#000000"/><text fill="#000000" font-family="sans-serif" font-size="14" lengthAdjust="spacing" textLength="36" x="1394" y="119.8467">Entity</text></g><!--class FamixBaseElement--><g id="elem_FamixBaseElement"><rect codeLine="612" fill="#F1F1F1" height="32" id="FamixBaseElement" rx="2.5" ry="2.5" style="stroke:#181818;stroke-width:0.5;" width="153" x="1322.5" y="7"/><ellipse cx="1337.5" cy="23" fill="#A9DCDF" rx="11" ry="11" style="stroke:#181818;stroke-width:1.0;"/><path d="M1340.4531,28 L1339.625,25.1094 L1335.4375,25.1094 L1334.5938,28 L1332,28 L1335.9375,15.8125 L1339.0938,15.8125 L1343.0469,28 L1340.4531,28 Z M1339.0156,22.9531 L1338.25,20.2969 Q1338.1875,20.1406 1338.0938,19.8125 Q1338,19.4688 1337.875,19.0625 Q1337.7656,18.6406 1337.6563,18.2344 Q1337.5625,17.8125 1337.5313,17.5313 Q1337.5,17.7031 1337.4375,17.9531 Q1337.3906,18.2031 1337.3125,18.4844 Q1337.25,18.7656 1337.1719,19.0469 Q1337.0938,19.3281 1337.0313,19.5781 Q1336.9688,19.8281 1336.9063,20.0156 Q1336.8594,20.2031 1336.8281,20.2969 L1336.0625,22.9531 L1339.0156,22.9531 Z " fill="#000000"/><text fill="#000000" font-family="sans-serif" font-size="14" font-style="italic" lengthAdjust="spacing" textLength="121" x="1351.5" y="27.8467">FamixBaseElement</text></g><!--class SourceLanguage--><g id="elem_SourceLanguage"><rect codeLine="5" fill="#F1F1F1" height="32" id="SourceLanguage" rx="2.5" ry="2.5" style="stroke:#181818;stroke-width:0.5;" width="134" x="640" y="191"/><ellipse cx="655" cy="207" fill="#ADD1B2" rx="11" ry="11" style="stroke:#181818;stroke-width:1.0;"/><path d="M654.9375,202.8281 Q654.1875,202.8281 653.625,203.125 Q653.0625,203.4063 652.6719,203.9375 Q652.2813,204.4688 652.0781,205.25 Q651.8906,206.0156 651.8906,206.9688 Q651.8906,207.9375 652.0625,208.7031 Q652.25,209.4531 652.6094,209.9688 Q652.9844,210.4844 653.5625,210.7656 Q654.1406,211.0313 654.9375,211.0313 Q655.6719,211.0313 656.4063,210.8594 Q657.1563,210.6875 658.0313,210.3906 L658.0313,212.5469 Q657.625,212.7031 657.2344,212.8281 Q656.8438,212.9375 656.4375,213.0156 Q656.0313,213.0938 655.6094,213.125 Q655.1875,213.1719 654.6875,213.1719 Q653.2813,213.1719 652.25,212.7188 Q651.2344,212.2656 650.5625,211.4531 Q649.8906,210.6406 649.5625,209.5 Q649.2344,208.3438 649.2344,206.9531 Q649.2344,205.5781 649.6094,204.4219 Q649.9844,203.2656 650.7031,202.4375 Q651.4219,201.6094 652.4844,201.1563 Q653.5469,200.6875 654.9375,200.6875 Q655.8438,200.6875 656.75,200.9219 Q657.6563,201.1406 658.4844,201.5469 L657.6563,203.6406 Q656.9688,203.3125 656.2813,203.0781 Q655.5938,202.8281 654.9375,202.8281 Z " fill="#000000"/><text fill="#000000" font-family="sans-serif" font-size="14" lengthAdjust="spacing" textLength="102" x="669" y="211.8467">SourceLanguage</text></g><!--class Comment--><g id="elem_Comment"><rect codeLine="13" fill="#F1F1F1" height="32" id="Comment" rx="2.5" ry="2.5" style="stroke:#181818;stroke-width:0.5;" width="95" x="678.5" y="283"/><ellipse cx="693.5" cy="299" fill="#ADD1B2" rx="11" ry="11" style="stroke:#181818;stroke-width:1.0;"/><path d="M693.4375,294.8281 Q692.6875,294.8281 692.125,295.125 Q691.5625,295.4063 691.1719,295.9375 Q690.7813,296.4688 690.5781,297.25 Q690.3906,298.0156 690.3906,298.9688 Q690.3906,299.9375 690.5625,300.7031 Q690.75,301.4531 691.1094,301.9688 Q691.4844,302.4844 692.0625,302.7656 Q692.6406,303.0313 693.4375,303.0313 Q694.1719,303.0313 694.9063,302.8594 Q695.6563,302.6875 696.5313,302.3906 L696.5313,304.5469 Q696.125,304.7031 695.7344,304.8281 Q695.3438,304.9375 694.9375,305.0156 Q694.5313,305.0938 694.1094,305.125 Q693.6875,305.1719 693.1875,305.1719 Q691.7813,305.1719 690.75,304.7188 Q689.7344,304.2656 689.0625,303.4531 Q688.3906,302.6406 688.0625,301.5 Q687.7344,300.3438 687.7344,298.9531 Q687.7344,297.5781 688.1094,296.4219 Q688.4844,295.2656 689.2031,294.4375 Q689.9219,293.6094 690.9844,293.1563 Q692.0469,292.6875 693.4375,292.6875 Q694.3438,292.6875 695.25,292.9219 Q696.1563,293.1406 696.9844,293.5469 L696.1563,295.6406 Q695.4688,295.3125 694.7813,295.0781 Q694.0938,294.8281 693.4375,294.8281 Z " fill="#000000"/><text fill="#000000" font-family="sans-serif" font-size="14" lengthAdjust="spacing" textLength="63" x="707.5" y="303.8467">Comment</text></g><!--class SourcedEntity--><g id="elem_SourcedEntity"><rect codeLine="33" fill="#F1F1F1" height="32" id="SourcedEntity" rx="2.5" ry="2.5" style="stroke:#181818;stroke-width:0.5;" width="119" x="809.5" y="191"/><ellipse cx="824.5" cy="207" fill="#ADD1B2" rx="11" ry="11" style="stroke:#181818;stroke-width:1.0;"/><path d="M824.4375,202.8281 Q823.6875,202.8281 823.125,203.125 Q822.5625,203.4063 822.1719,203.9375 Q821.7813,204.4688 821.5781,205.25 Q821.3906,206.0156 821.3906,206.9688 Q821.3906,207.9375 821.5625,208.7031 Q821.75,209.4531 822.1094,209.9688 Q822.4844,210.4844 823.0625,210.7656 Q823.6406,211.0313 824.4375,211.0313 Q825.1719,211.0313 825.9063,210.8594 Q826.6563,210.6875 827.5313,210.3906 L827.5313,212.5469 Q827.125,212.7031 826.7344,212.8281 Q826.3438,212.9375 825.9375,213.0156 Q825.5313,213.0938 825.1094,213.125 Q824.6875,213.1719 824.1875,213.1719 Q822.7813,213.1719 821.75,212.7188 Q820.7344,212.2656 820.0625,211.4531 Q819.3906,210.6406 819.0625,209.5 Q818.7344,208.3438 818.7344,206.9531 Q818.7344,205.5781 819.1094,204.4219 Q819.4844,203.2656 820.2031,202.4375 Q820.9219,201.6094 821.9844,201.1563 Q823.0469,200.6875 824.4375,200.6875 Q825.3438,200.6875 826.25,200.9219 Q827.1563,201.1406 827.9844,201.5469 L827.1563,203.6406 Q826.4688,203.3125 825.7813,203.0781 Q825.0938,202.8281 824.4375,202.8281 Z " fill="#000000"/><text fill="#000000" font-family="sans-serif" font-size="14" lengthAdjust="spacing" textLength="87" x="838.5" y="211.8467">SourcedEntity</text></g><!--class SourceAnchor--><g id="elem_SourceAnchor"><rect codeLine="26" fill="#F1F1F1" height="32" id="SourceAnchor" rx="2.5" ry="2.5" style="stroke:#181818;stroke-width:0.5;" width="120" x="970" y="191"/><ellipse cx="985" cy="207" fill="#ADD1B2" rx="11" ry="11" style="stroke:#181818;stroke-width:1.0;"/><path d="M984.9375,202.8281 Q984.1875,202.8281 983.625,203.125 Q983.0625,203.4063 982.6719,203.9375 Q982.2813,204.4688 982.0781,205.25 Q981.8906,206.0156 981.8906,206.9688 Q981.8906,207.9375 982.0625,208.7031 Q982.25,209.4531 982.6094,209.9688 Q982.9844,210.4844 983.5625,210.7656 Q984.1406,211.0313 984.9375,211.0313 Q985.6719,211.0313 986.4063,210.8594 Q987.1563,210.6875 988.0313,210.3906 L988.0313,212.5469 Q987.625,212.7031 987.2344,212.8281 Q986.8438,212.9375 986.4375,213.0156 Q986.0313,213.0938 985.6094,213.125 Q985.1875,213.1719 984.6875,213.1719 Q983.2813,213.1719 982.25,212.7188 Q981.2344,212.2656 980.5625,211.4531 Q979.8906,210.6406 979.5625,209.5 Q979.2344,208.3438 979.2344,206.9531 Q979.2344,205.5781 979.6094,204.4219 Q979.9844,203.2656 980.7031,202.4375 Q981.4219,201.6094 982.4844,201.1563 Q983.5469,200.6875 984.9375,200.6875 Q985.8438,200.6875 986.75,200.9219 Q987.6563,201.1406 988.4844,201.5469 L987.6563,203.6406 Q986.9688,203.3125 986.2813,203.0781 Q985.5938,202.8281 984.9375,202.8281 Z " fill="#000000"/><text fill="#000000" font-family="sans-serif" font-size="14" lengthAdjust="spacing" textLength="88" x="999" y="211.8467">SourceAnchor</text></g><!--class ScopingEntity--><g id="elem_ScopingEntity"><rect codeLine="49" fill="#F1F1F1" height="32" id="ScopingEntity" rx="2.5" ry="2.5" style="stroke:#181818;stroke-width:0.5;" width="116" x="178" y="467"/><ellipse cx="193" cy="483" fill="#ADD1B2" rx="11" ry="11" style="stroke:#181818;stroke-width:1.0;"/><path d="M192.9375,478.8281 Q192.1875,478.8281 191.625,479.125 Q191.0625,479.4063 190.6719,479.9375 Q190.2813,480.4688 190.0781,481.25 Q189.8906,482.0156 189.8906,482.9688 Q189.8906,483.9375 190.0625,484.7031 Q190.25,485.4531 190.6094,485.9688 Q190.9844,486.4844 191.5625,486.7656 Q192.1406,487.0313 192.9375,487.0313 Q193.6719,487.0313 194.4063,486.8594 Q195.1563,486.6875 196.0313,486.3906 L196.0313,488.5469 Q195.625,488.7031 195.2344,488.8281 Q194.8438,488.9375 194.4375,489.0156 Q194.0313,489.0938 193.6094,489.125 Q193.1875,489.1719 192.6875,489.1719 Q191.2813,489.1719 190.25,488.7188 Q189.2344,488.2656 188.5625,487.4531 Q187.8906,486.6406 187.5625,485.5 Q187.2344,484.3438 187.2344,482.9531 Q187.2344,481.5781 187.6094,480.4219 Q187.9844,479.2656 188.7031,478.4375 Q189.4219,477.6094 190.4844,477.1563 Q191.5469,476.6875 192.9375,476.6875 Q193.8438,476.6875 194.75,476.9219 Q195.6563,477.1406 196.4844,477.5469 L195.6563,479.6406 Q194.9688,479.3125 194.2813,479.0781 Q193.5938,478.8281 192.9375,478.8281 Z " fill="#000000"/><text fill="#000000" font-family="sans-serif" font-size="14" lengthAdjust="spacing" textLength="84" x="207" y="487.8467">ScopingEntity</text></g><!--class ContainerEntity--><g id="elem_ContainerEntity"><rect codeLine="372" fill="#F1F1F1" height="32" id="ContainerEntity" rx="2.5" ry="2.5" style="stroke:#181818;stroke-width:0.5;" width="130" x="466" y="375"/><ellipse cx="481" cy="391" fill="#ADD1B2" rx="11" ry="11" style="stroke:#181818;stroke-width:1.0;"/><path d="M480.9375,386.8281 Q480.1875,386.8281 479.625,387.125 Q479.0625,387.4063 478.6719,387.9375 Q478.2813,388.4688 478.0781,389.25 Q477.8906,390.0156 477.8906,390.9688 Q477.8906,391.9375 478.0625,392.7031 Q478.25,393.4531 478.6094,393.9688 Q478.9844,394.4844 479.5625,394.7656 Q480.1406,395.0313 480.9375,395.0313 Q481.6719,395.0313 482.4063,394.8594 Q483.1563,394.6875 484.0313,394.3906 L484.0313,396.5469 Q483.625,396.7031 483.2344,396.8281 Q482.8438,396.9375 482.4375,397.0156 Q482.0313,397.0938 481.6094,397.125 Q481.1875,397.1719 480.6875,397.1719 Q479.2813,397.1719 478.25,396.7188 Q477.2344,396.2656 476.5625,395.4531 Q475.8906,394.6406 475.5625,393.5 Q475.2344,392.3438 475.2344,390.9531 Q475.2344,389.5781 475.6094,388.4219 Q475.9844,387.2656 476.7031,386.4375 Q477.4219,385.6094 478.4844,385.1563 Q479.5469,384.6875 480.9375,384.6875 Q481.8438,384.6875 482.75,384.9219 Q483.6563,385.1406 484.4844,385.5469 L483.6563,387.6406 Q482.9688,387.3125 482.2813,387.0781 Q481.5938,386.8281 480.9375,386.8281 Z " fill="#000000"/><text fill="#000000" font-family="sans-serif" font-size="14" lengthAdjust="spacing" textLength="98" x="495" y="395.8467">ContainerEntity</text></g><!--class ScriptEntity--><g id="elem_ScriptEntity"><rect codeLine="56" fill="#F1F1F1" height="32" id="ScriptEntity" rx="2.5" ry="2.5" style="stroke:#181818;stroke-width:0.5;" width="104" x="7" y="559"/><ellipse cx="22" cy="575" fill="#ADD1B2" rx="11" ry="11" style="stroke:#181818;stroke-width:1.0;"/><path d="M21.9375,570.8281 Q21.1875,570.8281 20.625,571.125 Q20.0625,571.4063 19.6719,571.9375 Q19.2813,572.4688 19.0781,573.25 Q18.8906,574.0156 18.8906,574.9688 Q18.8906,575.9375 19.0625,576.7031 Q19.25,577.4531 19.6094,577.9688 Q19.9844,578.4844 20.5625,578.7656 Q21.1406,579.0313 21.9375,579.0313 Q22.6719,579.0313 23.4063,578.8594 Q24.1563,578.6875 25.0313,578.3906 L25.0313,580.5469 Q24.625,580.7031 24.2344,580.8281 Q23.8438,580.9375 23.4375,581.0156 Q23.0313,581.0938 22.6094,581.125 Q22.1875,581.1719 21.6875,581.1719 Q20.2813,581.1719 19.25,580.7188 Q18.2344,580.2656 17.5625,579.4531 Q16.8906,578.6406 16.5625,577.5 Q16.2344,576.3438 16.2344,574.9531 Q16.2344,573.5781 16.6094,572.4219 Q16.9844,571.2656 17.7031,570.4375 Q18.4219,569.6094 19.4844,569.1563 Q20.5469,568.6875 21.9375,568.6875 Q22.8438,568.6875 23.75,568.9219 Q24.6563,569.1406 25.4844,569.5469 L24.6563,571.6406 Q23.9688,571.3125 23.2813,571.0781 Q22.5938,570.8281 21.9375,570.8281 Z " fill="#000000"/><text fill="#000000" font-family="sans-serif" font-size="14" lengthAdjust="spacing" textLength="72" x="36" y="579.8467">ScriptEntity</text></g><!--class Module--><g id="elem_Module"><rect codeLine="66" fill="#F1F1F1" height="32" id="Module" rx="2.5" ry="2.5" style="stroke:#181818;stroke-width:0.5;" width="80" x="7" y="651"/><ellipse cx="22" cy="667" fill="#ADD1B2" rx="11" ry="11" style="stroke:#181818;stroke-width:1.0;"/><path d="M21.9375,662.8281 Q21.1875,662.8281 20.625,663.125 Q20.0625,663.4063 19.6719,663.9375 Q19.2813,664.4688 19.0781,665.25 Q18.8906,666.0156 18.8906,666.9688 Q18.8906,667.9375 19.0625,668.7031 Q19.25,669.4531 19.6094,669.9688 Q19.9844,670.4844 20.5625,670.7656 Q21.1406,671.0313 21.9375,671.0313 Q22.6719,671.0313 23.4063,670.8594 Q24.1563,670.6875 25.0313,670.3906 L25.0313,672.5469 Q24.625,672.7031 24.2344,672.8281 Q23.8438,672.9375 23.4375,673.0156 Q23.0313,673.0938 22.6094,673.125 Q22.1875,673.1719 21.6875,673.1719 Q20.2813,673.1719 19.25,672.7188 Q18.2344,672.2656 17.5625,671.4531 Q16.8906,670.6406 16.5625,669.5 Q16.2344,668.3438 16.2344,666.9531 Q16.2344,665.5781 16.6094,664.4219 Q16.9844,663.2656 17.7031,662.4375 Q18.4219,661.6094 19.4844,661.1563 Q20.5469,660.6875 21.9375,660.6875 Q22.8438,660.6875 23.75,660.9219 Q24.6563,661.1406 25.4844,661.5469 L24.6563,663.6406 Q23.9688,663.3125 23.2813,663.0781 Q22.5938,662.8281 21.9375,662.8281 Z " fill="#000000"/><text fill="#000000" font-family="sans-serif" font-size="14" lengthAdjust="spacing" textLength="48" x="36" y="671.8467">Module</text></g><!--class ImportClause--><g id="elem_ImportClause"><rect codeLine="85" fill="#F1F1F1" height="32" id="ImportClause" rx="2.5" ry="2.5" style="stroke:#181818;stroke-width:0.5;" width="118" x="1125" y="191"/><ellipse cx="1140" cy="207" fill="#ADD1B2" rx="11" ry="11" style="stroke:#181818;stroke-width:1.0;"/><path d="M1139.9375,202.8281 Q1139.1875,202.8281 1138.625,203.125 Q1138.0625,203.4063 1137.6719,203.9375 Q1137.2813,204.4688 1137.0781,205.25 Q1136.8906,206.0156 1136.8906,206.9688 Q1136.8906,207.9375 1137.0625,208.7031 Q1137.25,209.4531 1137.6094,209.9688 Q1137.9844,210.4844 1138.5625,210.7656 Q1139.1406,211.0313 1139.9375,211.0313 Q1140.6719,211.0313 1141.4063,210.8594 Q1142.1563,210.6875 1143.0313,210.3906 L1143.0313,212.5469 Q1142.625,212.7031 1142.2344,212.8281 Q1141.8438,212.9375 1141.4375,213.0156 Q1141.0313,213.0938 1140.6094,213.125 Q1140.1875,213.1719 1139.6875,213.1719 Q1138.2813,213.1719 1137.25,212.7188 Q1136.2344,212.2656 1135.5625,211.4531 Q1134.8906,210.6406 1134.5625,209.5 Q1134.2344,208.3438 1134.2344,206.9531 Q1134.2344,205.5781 1134.6094,204.4219 Q1134.9844,203.2656 1135.7031,202.4375 Q1136.4219,201.6094 1137.4844,201.1563 Q1138.5469,200.6875 1139.9375,200.6875 Q1140.8438,200.6875 1141.75,200.9219 Q1142.6563,201.1406 1143.4844,201.5469 L1142.6563,203.6406 Q1141.9688,203.3125 1141.2813,203.0781 Q1140.5938,202.8281 1139.9375,202.8281 Z " fill="#000000"/><text fill="#000000" font-family="sans-serif" font-size="14" lengthAdjust="spacing" textLength="86" x="1154" y="211.8467">ImportClause</text></g><!--class Alias--><g id="elem_Alias"><rect codeLine="98" fill="#F1F1F1" height="32" id="Alias" rx="2.5" ry="2.5" style="stroke:#181818;stroke-width:0.5;" width="62" x="778" y="375"/><ellipse cx="793" cy="391" fill="#ADD1B2" rx="11" ry="11" style="stroke:#181818;stroke-width:1.0;"/><path d="M792.9375,386.8281 Q792.1875,386.8281 791.625,387.125 Q791.0625,387.4063 790.6719,387.9375 Q790.2813,388.4688 790.0781,389.25 Q789.8906,390.0156 789.8906,390.9688 Q789.8906,391.9375 790.0625,392.7031 Q790.25,393.4531 790.6094,393.9688 Q790.9844,394.4844 791.5625,394.7656 Q792.1406,395.0313 792.9375,395.0313 Q793.6719,395.0313 794.4063,394.8594 Q795.1563,394.6875 796.0313,394.3906 L796.0313,396.5469 Q795.625,396.7031 795.2344,396.8281 Q794.8438,396.9375 794.4375,397.0156 Q794.0313,397.0938 793.6094,397.125 Q793.1875,397.1719 792.6875,397.1719 Q791.2813,397.1719 790.25,396.7188 Q789.2344,396.2656 788.5625,395.4531 Q787.8906,394.6406 787.5625,393.5 Q787.2344,392.3438 787.2344,390.9531 Q787.2344,389.5781 787.6094,388.4219 Q787.9844,387.2656 788.7031,386.4375 Q789.4219,385.6094 790.4844,385.1563 Q791.5469,384.6875 792.9375,384.6875 Q793.8438,384.6875 794.75,384.9219 Q795.6563,385.1406 796.4844,385.5469 L795.6563,387.6406 Q794.9688,387.3125 794.2813,387.0781 Q793.5938,386.8281 792.9375,386.8281 Z " fill="#000000"/><text fill="#000000" font-family="sans-serif" font-size="14" lengthAdjust="spacing" textLength="30" x="807" y="395.8467">Alias</text></g><!--class NamedEntity--><g id="elem_NamedEntity"><rect codeLine="118" fill="#F1F1F1" height="32" id="NamedEntity" rx="2.5" ry="2.5" style="stroke:#181818;stroke-width:0.5;" width="114" x="809" y="283"/><ellipse cx="824" cy="299" fill="#ADD1B2" rx="11" ry="11" style="stroke:#181818;stroke-width:1.0;"/><path d="M823.9375,294.8281 Q823.1875,294.8281 822.625,295.125 Q822.0625,295.4063 821.6719,295.9375 Q821.2813,296.4688 821.0781,297.25 Q820.8906,298.0156 820.8906,298.9688 Q820.8906,299.9375 821.0625,300.7031 Q821.25,301.4531 821.6094,301.9688 Q821.9844,302.4844 822.5625,302.7656 Q823.1406,303.0313 823.9375,303.0313 Q824.6719,303.0313 825.4063,302.8594 Q826.1563,302.6875 827.0313,302.3906 L827.0313,304.5469 Q826.625,304.7031 826.2344,304.8281 Q825.8438,304.9375 825.4375,305.0156 Q825.0313,305.0938 824.6094,305.125 Q824.1875,305.1719 823.6875,305.1719 Q822.2813,305.1719 821.25,304.7188 Q820.2344,304.2656 819.5625,303.4531 Q818.8906,302.6406 818.5625,301.5 Q818.2344,300.3438 818.2344,298.9531 Q818.2344,297.5781 818.6094,296.4219 Q818.9844,295.2656 819.7031,294.4375 Q820.4219,293.6094 821.4844,293.1563 Q822.5469,292.6875 823.9375,292.6875 Q824.8438,292.6875 825.75,292.9219 Q826.6563,293.1406 827.4844,293.5469 L826.6563,295.6406 Q825.9688,295.3125 825.2813,295.0781 Q824.5938,294.8281 823.9375,294.8281 Z " fill="#000000"/><text fill="#000000" font-family="sans-serif" font-size="14" lengthAdjust="spacing" textLength="82" x="838" y="303.8467">NamedEntity</text></g><!--class Decorator--><g id="elem_Decorator"><rect codeLine="108" fill="#F1F1F1" height="32" id="Decorator" rx="2.5" ry="2.5" style="stroke:#181818;stroke-width:0.5;" width="96" x="875" y="375"/><ellipse cx="890" cy="391" fill="#ADD1B2" rx="11" ry="11" style="stroke:#181818;stroke-width:1.0;"/><path d="M889.9375,386.8281 Q889.1875,386.8281 888.625,387.125 Q888.0625,387.4063 887.6719,387.9375 Q887.2813,388.4688 887.0781,389.25 Q886.8906,390.0156 886.8906,390.9688 Q886.8906,391.9375 887.0625,392.7031 Q887.25,393.4531 887.6094,393.9688 Q887.9844,394.4844 888.5625,394.7656 Q889.1406,395.0313 889.9375,395.0313 Q890.6719,395.0313 891.4063,394.8594 Q892.1563,394.6875 893.0313,394.3906 L893.0313,396.5469 Q892.625,396.7031 892.2344,396.8281 Q891.8438,396.9375 891.4375,397.0156 Q891.0313,397.0938 890.6094,397.125 Q890.1875,397.1719 889.6875,397.1719 Q888.2813,397.1719 887.25,396.7188 Q886.2344,396.2656 885.5625,395.4531 Q884.8906,394.6406 884.5625,393.5 Q884.2344,392.3438 884.2344,390.9531 Q884.2344,389.5781 884.6094,388.4219 Q884.9844,387.2656 885.7031,386.4375 Q886.4219,385.6094 887.4844,385.1563 Q888.5469,384.6875 889.9375,384.6875 Q890.8438,384.6875 891.75,384.9219 Q892.6563,385.1406 893.4844,385.5469 L892.6563,387.6406 Q891.9688,387.3125 891.2813,387.0781 Q890.5938,386.8281 889.9375,386.8281 Z " fill="#000000"/><text fill="#000000" font-family="sans-serif" font-size="14" lengthAdjust="spacing" textLength="64" x="904" y="395.8467">Decorator</text></g><!--class Parameter--><g id="elem_Parameter"><rect codeLine="140" fill="#F1F1F1" height="32" id="Parameter" rx="2.5" ry="2.5" style="stroke:#181818;stroke-width:0.5;" width="100" x="965" y="467"/><ellipse cx="980" cy="483" fill="#ADD1B2" rx="11" ry="11" style="stroke:#181818;stroke-width:1.0;"/><path d="M979.9375,478.8281 Q979.1875,478.8281 978.625,479.125 Q978.0625,479.4063 977.6719,479.9375 Q977.2813,480.4688 977.0781,481.25 Q976.8906,482.0156 976.8906,482.9688 Q976.8906,483.9375 977.0625,484.7031 Q977.25,485.4531 977.6094,485.9688 Q977.9844,486.4844 978.5625,486.7656 Q979.1406,487.0313 979.9375,487.0313 Q980.6719,487.0313 981.4063,486.8594 Q982.1563,486.6875 983.0313,486.3906 L983.0313,488.5469 Q982.625,488.7031 982.2344,488.8281 Q981.8438,488.9375 981.4375,489.0156 Q981.0313,489.0938 980.6094,489.125 Q980.1875,489.1719 979.6875,489.1719 Q978.2813,489.1719 977.25,488.7188 Q976.2344,488.2656 975.5625,487.4531 Q974.8906,486.6406 974.5625,485.5 Q974.2344,484.3438 974.2344,482.9531 Q974.2344,481.5781 974.6094,480.4219 Q974.9844,479.2656 975.7031,478.4375 Q976.4219,477.6094 977.4844,477.1563 Q978.5469,476.6875 979.9375,476.6875 Q980.8438,476.6875 981.75,476.9219 Q982.6563,477.1406 983.4844,477.5469 L982.6563,479.6406 Q981.9688,479.3125 981.2813,479.0781 Q980.5938,478.8281 979.9375,478.8281 Z " fill="#000000"/><text fill="#000000" font-family="sans-serif" font-size="14" lengthAdjust="spacing" textLength="68" x="994" y="487.8467">Parameter</text></g><!--class StructuralEntity--><g id="elem_StructuralEntity"><rect codeLine="428" fill="#F1F1F1" height="32" id="StructuralEntity" rx="2.5" ry="2.5" style="stroke:#181818;stroke-width:0.5;" width="130" x="1079" y="375"/><ellipse cx="1094" cy="391" fill="#ADD1B2" rx="11" ry="11" style="stroke:#181818;stroke-width:1.0;"/><path d="M1093.9375,386.8281 Q1093.1875,386.8281 1092.625,387.125 Q1092.0625,387.4063 1091.6719,387.9375 Q1091.2813,388.4688 1091.0781,389.25 Q1090.8906,390.0156 1090.8906,390.9688 Q1090.8906,391.9375 1091.0625,392.7031 Q1091.25,393.4531 1091.6094,393.9688 Q1091.9844,394.4844 1092.5625,394.7656 Q1093.1406,395.0313 1093.9375,395.0313 Q1094.6719,395.0313 1095.4063,394.8594 Q1096.1563,394.6875 1097.0313,394.3906 L1097.0313,396.5469 Q1096.625,396.7031 1096.2344,396.8281 Q1095.8438,396.9375 1095.4375,397.0156 Q1095.0313,397.0938 1094.6094,397.125 Q1094.1875,397.1719 1093.6875,397.1719 Q1092.2813,397.1719 1091.25,396.7188 Q1090.2344,396.2656 1089.5625,395.4531 Q1088.8906,394.6406 1088.5625,393.5 Q1088.2344,392.3438 1088.2344,390.9531 Q1088.2344,389.5781 1088.6094,388.4219 Q1088.9844,387.2656 1089.7031,386.4375 Q1090.4219,385.6094 1091.4844,385.1563 Q1092.5469,384.6875 1093.9375,384.6875 Q1094.8438,384.6875 1095.75,384.9219 Q1096.6563,385.1406 1097.4844,385.5469 L1096.6563,387.6406 Q1095.9688,387.3125 1095.2813,387.0781 Q1094.5938,386.8281 1093.9375,386.8281 Z " fill="#000000"/><text fill="#000000" font-family="sans-serif" font-size="14" lengthAdjust="spacing" textLength="98" x="1108" y="395.8467">StructuralEntity</text></g><!--class Property--><g id="elem_Property"><rect codeLine="147" fill="#F1F1F1" height="32" id="Property" rx="2.5" ry="2.5" style="stroke:#181818;stroke-width:0.5;" width="88" x="1100" y="467"/><ellipse cx="1115" cy="483" fill="#ADD1B2" rx="11" ry="11" style="stroke:#181818;stroke-width:1.0;"/><path d="M1114.9375,478.8281 Q1114.1875,478.8281 1113.625,479.125 Q1113.0625,479.4063 1112.6719,479.9375 Q1112.2813,480.4688 1112.0781,481.25 Q1111.8906,482.0156 1111.8906,482.9688 Q1111.8906,483.9375 1112.0625,484.7031 Q1112.25,485.4531 1112.6094,485.9688 Q1112.9844,486.4844 1113.5625,486.7656 Q1114.1406,487.0313 1114.9375,487.0313 Q1115.6719,487.0313 1116.4063,486.8594 Q1117.1563,486.6875 1118.0313,486.3906 L1118.0313,488.5469 Q1117.625,488.7031 1117.2344,488.8281 Q1116.8438,488.9375 1116.4375,489.0156 Q1116.0313,489.0938 1115.6094,489.125 Q1115.1875,489.1719 1114.6875,489.1719 Q1113.2813,489.1719 1112.25,488.7188 Q1111.2344,488.2656 1110.5625,487.4531 Q1109.8906,486.6406 1109.5625,485.5 Q1109.2344,484.3438 1109.2344,482.9531 Q1109.2344,481.5781 1109.6094,480.4219 Q1109.9844,479.2656 1110.7031,478.4375 Q1111.4219,477.6094 1112.4844,477.1563 Q1113.5469,476.6875 1114.9375,476.6875 Q1115.8438,476.6875 1116.75,476.9219 Q1117.6563,477.1406 1118.4844,477.5469 L1117.6563,479.6406 Q1116.9688,479.3125 1116.2813,479.0781 Q1115.5938,478.8281 1114.9375,478.8281 Z " fill="#000000"/><text fill="#000000" font-family="sans-serif" font-size="14" lengthAdjust="spacing" textLength="56" x="1129" y="487.8467">Property</text></g><!--class Inheritance--><g id="elem_Inheritance"><rect codeLine="174" fill="#F1F1F1" height="32" id="Inheritance" rx="2.5" ry="2.5" style="stroke:#181818;stroke-width:0.5;" width="105" x="1278.5" y="191"/><ellipse cx="1293.5" cy="207" fill="#ADD1B2" rx="11" ry="11" style="stroke:#181818;stroke-width:1.0;"/><path d="M1293.4375,202.8281 Q1292.6875,202.8281 1292.125,203.125 Q1291.5625,203.4063 1291.1719,203.9375 Q1290.7813,204.4688 1290.5781,205.25 Q1290.3906,206.0156 1290.3906,206.9688 Q1290.3906,207.9375 1290.5625,208.7031 Q1290.75,209.4531 1291.1094,209.9688 Q1291.4844,210.4844 1292.0625,210.7656 Q1292.6406,211.0313 1293.4375,211.0313 Q1294.1719,211.0313 1294.9063,210.8594 Q1295.6563,210.6875 1296.5313,210.3906 L1296.5313,212.5469 Q1296.125,212.7031 1295.7344,212.8281 Q1295.3438,212.9375 1294.9375,213.0156 Q1294.5313,213.0938 1294.1094,213.125 Q1293.6875,213.1719 1293.1875,213.1719 Q1291.7813,213.1719 1290.75,212.7188 Q1289.7344,212.2656 1289.0625,211.4531 Q1288.3906,210.6406 1288.0625,209.5 Q1287.7344,208.3438 1287.7344,206.9531 Q1287.7344,205.5781 1288.1094,204.4219 Q1288.4844,203.2656 1289.2031,202.4375 Q1289.9219,201.6094 1290.9844,201.1563 Q1292.0469,200.6875 1293.4375,200.6875 Q1294.3438,200.6875 1295.25,200.9219 Q1296.1563,201.1406 1296.9844,201.5469 L1296.1563,203.6406 Q1295.4688,203.3125 1294.7813,203.0781 Q1294.0938,202.8281 1293.4375,202.8281 Z " fill="#000000"/><text fill="#000000" font-family="sans-serif" font-size="14" lengthAdjust="spacing" textLength="73" x="1307.5" y="211.8467">Inheritance</text></g><!--class Class--><g id="elem_Class"><rect codeLine="184" fill="#F1F1F1" height="32" id="Class" rx="2.5" ry="2.5" style="stroke:#181818;stroke-width:0.5;" width="63" x="157.5" y="559"/><ellipse cx="172.5" cy="575" fill="#ADD1B2" rx="11" ry="11" style="stroke:#181818;stroke-width:1.0;"/><path d="M172.4375,570.8281 Q171.6875,570.8281 171.125,571.125 Q170.5625,571.4063 170.1719,571.9375 Q169.7813,572.4688 169.5781,573.25 Q169.3906,574.0156 169.3906,574.9688 Q169.3906,575.9375 169.5625,576.7031 Q169.75,577.4531 170.1094,577.9688 Q170.4844,578.4844 171.0625,578.7656 Q171.6406,579.0313 172.4375,579.0313 Q173.1719,579.0313 173.9063,578.8594 Q174.6563,578.6875 175.5313,578.3906 L175.5313,580.5469 Q175.125,580.7031 174.7344,580.8281 Q174.3438,580.9375 173.9375,581.0156 Q173.5313,581.0938 173.1094,581.125 Q172.6875,581.1719 172.1875,581.1719 Q170.7813,581.1719 169.75,580.7188 Q168.7344,580.2656 168.0625,579.4531 Q167.3906,578.6406 167.0625,577.5 Q166.7344,576.3438 166.7344,574.9531 Q166.7344,573.5781 167.1094,572.4219 Q167.4844,571.2656 168.2031,570.4375 Q168.9219,569.6094 169.9844,569.1563 Q171.0469,568.6875 172.4375,568.6875 Q173.3438,568.6875 174.25,568.9219 Q175.1563,569.1406 175.9844,569.5469 L175.1563,571.6406 Q174.4688,571.3125 173.7813,571.0781 Q173.0938,570.8281 172.4375,570.8281 Z " fill="#000000"/><text fill="#000000" font-family="sans-serif" font-size="14" lengthAdjust="spacing" textLength="31" x="186.5" y="579.8467">Class</text></g><!--class Type--><g id="elem_Type"><rect codeLine="409" fill="#F1F1F1" height="32" id="Type" rx="2.5" ry="2.5" style="stroke:#181818;stroke-width:0.5;" width="62" x="453" y="467"/><ellipse cx="468" cy="483" fill="#ADD1B2" rx="11" ry="11" style="stroke:#181818;stroke-width:1.0;"/><path d="M467.9375,478.8281 Q467.1875,478.8281 466.625,479.125 Q466.0625,479.4063 465.6719,479.9375 Q465.2813,480.4688 465.0781,481.25 Q464.8906,482.0156 464.8906,482.9688 Q464.8906,483.9375 465.0625,484.7031 Q465.25,485.4531 465.6094,485.9688 Q465.9844,486.4844 466.5625,486.7656 Q467.1406,487.0313 467.9375,487.0313 Q468.6719,487.0313 469.4063,486.8594 Q470.1563,486.6875 471.0313,486.3906 L471.0313,488.5469 Q470.625,488.7031 470.2344,488.8281 Q469.8438,488.9375 469.4375,489.0156 Q469.0313,489.0938 468.6094,489.125 Q468.1875,489.1719 467.6875,489.1719 Q466.2813,489.1719 465.25,488.7188 Q464.2344,488.2656 463.5625,487.4531 Q462.8906,486.6406 462.5625,485.5 Q462.2344,484.3438 462.2344,482.9531 Q462.2344,481.5781 462.6094,480.4219 Q462.9844,479.2656 463.7031,478.4375 Q464.4219,477.6094 465.4844,477.1563 Q466.5469,476.6875 467.9375,476.6875 Q468.8438,476.6875 469.75,476.9219 Q470.6563,477.1406 471.4844,477.5469 L470.6563,479.6406 Q469.9688,479.3125 469.2813,479.0781 Q468.5938,478.8281 467.9375,478.8281 Z " fill="#000000"/><text fill="#000000" font-family="sans-serif" font-size="14" lengthAdjust="spacing" textLength="30" x="482" y="487.8467">Type</text></g><!--class Method--><g id="elem_Method"><rect codeLine="203" fill="#F1F1F1" height="32" id="Method" rx="2.5" ry="2.5" style="stroke:#181818;stroke-width:0.5;" width="81" x="806.5" y="559"/><ellipse cx="821.5" cy="575" fill="#ADD1B2" rx="11" ry="11" style="stroke:#181818;stroke-width:1.0;"/><path d="M821.4375,570.8281 Q820.6875,570.8281 820.125,571.125 Q819.5625,571.4063 819.1719,571.9375 Q818.7813,572.4688 818.5781,573.25 Q818.3906,574.0156 818.3906,574.9688 Q818.3906,575.9375 818.5625,576.7031 Q818.75,577.4531 819.1094,577.9688 Q819.4844,578.4844 820.0625,578.7656 Q820.6406,579.0313 821.4375,579.0313 Q822.1719,579.0313 822.9063,578.8594 Q823.6563,578.6875 824.5313,578.3906 L824.5313,580.5469 Q824.125,580.7031 823.7344,580.8281 Q823.3438,580.9375 822.9375,581.0156 Q822.5313,581.0938 822.1094,581.125 Q821.6875,581.1719 821.1875,581.1719 Q819.7813,581.1719 818.75,580.7188 Q817.7344,580.2656 817.0625,579.4531 Q816.3906,578.6406 816.0625,577.5 Q815.7344,576.3438 815.7344,574.9531 Q815.7344,573.5781 816.1094,572.4219 Q816.4844,571.2656 817.2031,570.4375 Q817.9219,569.6094 818.9844,569.1563 Q820.0469,568.6875 821.4375,568.6875 Q822.3438,568.6875 823.25,568.9219 Q824.1563,569.1406 824.9844,569.5469 L824.1563,571.6406 Q823.4688,571.3125 822.7813,571.0781 Q822.0938,570.8281 821.4375,570.8281 Z " fill="#000000"/><text fill="#000000" font-family="sans-serif" font-size="14" lengthAdjust="spacing" textLength="49" x="835.5" y="579.8467">Method</text></g><!--class BehavioralEntity--><g id="elem_BehavioralEntity"><rect codeLine="316" fill="#F1F1F1" height="32" id="BehavioralEntity" rx="2.5" ry="2.5" style="stroke:#181818;stroke-width:0.5;" width="136" x="784" y="467"/><ellipse cx="799" cy="483" fill="#ADD1B2" rx="11" ry="11" style="stroke:#181818;stroke-width:1.0;"/><path d="M798.9375,478.8281 Q798.1875,478.8281 797.625,479.125 Q797.0625,479.4063 796.6719,479.9375 Q796.2813,480.4688 796.0781,481.25 Q795.8906,482.0156 795.8906,482.9688 Q795.8906,483.9375 796.0625,484.7031 Q796.25,485.4531 796.6094,485.9688 Q796.9844,486.4844 797.5625,486.7656 Q798.1406,487.0313 798.9375,487.0313 Q799.6719,487.0313 800.4063,486.8594 Q801.1563,486.6875 802.0313,486.3906 L802.0313,488.5469 Q801.625,488.7031 801.2344,488.8281 Q800.8438,488.9375 800.4375,489.0156 Q800.0313,489.0938 799.6094,489.125 Q799.1875,489.1719 798.6875,489.1719 Q797.2813,489.1719 796.25,488.7188 Q795.2344,488.2656 794.5625,487.4531 Q793.8906,486.6406 793.5625,485.5 Q793.2344,484.3438 793.2344,482.9531 Q793.2344,481.5781 793.6094,480.4219 Q793.9844,479.2656 794.7031,478.4375 Q795.4219,477.6094 796.4844,477.1563 Q797.5469,476.6875 798.9375,476.6875 Q799.8438,476.6875 800.75,476.9219 Q801.6563,477.1406 802.4844,477.5469 L801.6563,479.6406 Q800.9688,479.3125 800.2813,479.0781 Q799.5938,478.8281 798.9375,478.8281 Z " fill="#000000"/><text fill="#000000" font-family="sans-serif" font-size="14" lengthAdjust="spacing" textLength="104" x="813" y="487.8467">BehavioralEntity</text></g><!--class Interface--><g id="elem_Interface"><rect codeLine="228" fill="#F1F1F1" height="32" id="Interface" rx="2.5" ry="2.5" style="stroke:#181818;stroke-width:0.5;" width="90" x="256" y="559"/><ellipse cx="271" cy="575" fill="#ADD1B2" rx="11" ry="11" style="stroke:#181818;stroke-width:1.0;"/><path d="M270.9375,570.8281 Q270.1875,570.8281 269.625,571.125 Q269.0625,571.4063 268.6719,571.9375 Q268.2813,572.4688 268.0781,573.25 Q267.8906,574.0156 267.8906,574.9688 Q267.8906,575.9375 268.0625,576.7031 Q268.25,577.4531 268.6094,577.9688 Q268.9844,578.4844 269.5625,578.7656 Q270.1406,579.0313 270.9375,579.0313 Q271.6719,579.0313 272.4063,578.8594 Q273.1563,578.6875 274.0313,578.3906 L274.0313,580.5469 Q273.625,580.7031 273.2344,580.8281 Q272.8438,580.9375 272.4375,581.0156 Q272.0313,581.0938 271.6094,581.125 Q271.1875,581.1719 270.6875,581.1719 Q269.2813,581.1719 268.25,580.7188 Q267.2344,580.2656 266.5625,579.4531 Q265.8906,578.6406 265.5625,577.5 Q265.2344,576.3438 265.2344,574.9531 Q265.2344,573.5781 265.6094,572.4219 Q265.9844,571.2656 266.7031,570.4375 Q267.4219,569.6094 268.4844,569.1563 Q269.5469,568.6875 270.9375,568.6875 Q271.8438,568.6875 272.75,568.9219 Q273.6563,569.1406 274.4844,569.5469 L273.6563,571.6406 Q272.9688,571.3125 272.2813,571.0781 Q271.5938,570.8281 270.9375,570.8281 Z " fill="#000000"/><text fill="#000000" font-family="sans-serif" font-size="14" lengthAdjust="spacing" textLength="58" x="285" y="579.8467">Interface</text></g><!--class PrimitiveType--><g id="elem_PrimitiveType"><rect codeLine="244" fill="#F1F1F1" height="32" id="PrimitiveType" rx="2.5" ry="2.5" style="stroke:#181818;stroke-width:0.5;" width="121" x="381.5" y="559"/><ellipse cx="396.5" cy="575" fill="#ADD1B2" rx="11" ry="11" style="stroke:#181818;stroke-width:1.0;"/><path d="M396.4375,570.8281 Q395.6875,570.8281 395.125,571.125 Q394.5625,571.4063 394.1719,571.9375 Q393.7813,572.4688 393.5781,573.25 Q393.3906,574.0156 393.3906,574.9688 Q393.3906,575.9375 393.5625,576.7031 Q393.75,577.4531 394.1094,577.9688 Q394.4844,578.4844 395.0625,578.7656 Q395.6406,579.0313 396.4375,579.0313 Q397.1719,579.0313 397.9063,578.8594 Q398.6563,578.6875 399.5313,578.3906 L399.5313,580.5469 Q399.125,580.7031 398.7344,580.8281 Q398.3438,580.9375 397.9375,581.0156 Q397.5313,581.0938 397.1094,581.125 Q396.6875,581.1719 396.1875,581.1719 Q394.7813,581.1719 393.75,580.7188 Q392.7344,580.2656 392.0625,579.4531 Q391.3906,578.6406 391.0625,577.5 Q390.7344,576.3438 390.7344,574.9531 Q390.7344,573.5781 391.1094,572.4219 Q391.4844,571.2656 392.2031,570.4375 Q392.9219,569.6094 393.9844,569.1563 Q395.0469,568.6875 396.4375,568.6875 Q397.3438,568.6875 398.25,568.9219 Q399.1563,569.1406 399.9844,569.5469 L399.1563,571.6406 Q398.4688,571.3125 397.7813,571.0781 Q397.0938,570.8281 396.4375,570.8281 Z " fill="#000000"/><text fill="#000000" font-family="sans-serif" font-size="14" lengthAdjust="spacing" textLength="89" x="410.5" y="579.8467">PrimitiveType</text></g><!--class ParametricClass--><g id="elem_ParametricClass"><rect codeLine="248" fill="#F1F1F1" height="32" id="ParametricClass" rx="2.5" ry="2.5" style="stroke:#181818;stroke-width:0.5;" width="133" x="122.5" y="651"/><ellipse cx="137.5" cy="667" fill="#ADD1B2" rx="11" ry="11" style="stroke:#181818;stroke-width:1.0;"/><path d="M137.4375,662.8281 Q136.6875,662.8281 136.125,663.125 Q135.5625,663.4063 135.1719,663.9375 Q134.7813,664.4688 134.5781,665.25 Q134.3906,666.0156 134.3906,666.9688 Q134.3906,667.9375 134.5625,668.7031 Q134.75,669.4531 135.1094,669.9688 Q135.4844,670.4844 136.0625,670.7656 Q136.6406,671.0313 137.4375,671.0313 Q138.1719,671.0313 138.9063,670.8594 Q139.6563,670.6875 140.5313,670.3906 L140.5313,672.5469 Q140.125,672.7031 139.7344,672.8281 Q139.3438,672.9375 138.9375,673.0156 Q138.5313,673.0938 138.1094,673.125 Q137.6875,673.1719 137.1875,673.1719 Q135.7813,673.1719 134.75,672.7188 Q133.7344,672.2656 133.0625,671.4531 Q132.3906,670.6406 132.0625,669.5 Q131.7344,668.3438 131.7344,666.9531 Q131.7344,665.5781 132.1094,664.4219 Q132.4844,663.2656 133.2031,662.4375 Q133.9219,661.6094 134.9844,661.1563 Q136.0469,660.6875 137.4375,660.6875 Q138.3438,660.6875 139.25,660.9219 Q140.1563,661.1406 140.9844,661.5469 L140.1563,663.6406 Q139.4688,663.3125 138.7813,663.0781 Q138.0938,662.8281 137.4375,662.8281 Z " fill="#000000"/><text fill="#000000" font-family="sans-serif" font-size="14" lengthAdjust="spacing" textLength="101" x="151.5" y="671.8467">ParametricClass</text></g><!--class ParametricInterface--><g id="elem_ParametricInterface"><rect codeLine="259" fill="#F1F1F1" height="32" id="ParametricInterface" rx="2.5" ry="2.5" style="stroke:#181818;stroke-width:0.5;" width="160" x="291" y="651"/><ellipse cx="306" cy="667" fill="#ADD1B2" rx="11" ry="11" style="stroke:#181818;stroke-width:1.0;"/><path d="M305.9375,662.8281 Q305.1875,662.8281 304.625,663.125 Q304.0625,663.4063 303.6719,663.9375 Q303.2813,664.4688 303.0781,665.25 Q302.8906,666.0156 302.8906,666.9688 Q302.8906,667.9375 303.0625,668.7031 Q303.25,669.4531 303.6094,669.9688 Q303.9844,670.4844 304.5625,670.7656 Q305.1406,671.0313 305.9375,671.0313 Q306.6719,671.0313 307.4063,670.8594 Q308.1563,670.6875 309.0313,670.3906 L309.0313,672.5469 Q308.625,672.7031 308.2344,672.8281 Q307.8438,672.9375 307.4375,673.0156 Q307.0313,673.0938 306.6094,673.125 Q306.1875,673.1719 305.6875,673.1719 Q304.2813,673.1719 303.25,672.7188 Q302.2344,672.2656 301.5625,671.4531 Q300.8906,670.6406 300.5625,669.5 Q300.2344,668.3438 300.2344,666.9531 Q300.2344,665.5781 300.6094,664.4219 Q300.9844,663.2656 301.7031,662.4375 Q302.4219,661.6094 303.4844,661.1563 Q304.5469,660.6875 305.9375,660.6875 Q306.8438,660.6875 307.75,660.9219 Q308.6563,661.1406 309.4844,661.5469 L308.6563,663.6406 Q307.9688,663.3125 307.2813,663.0781 Q306.5938,662.8281 305.9375,662.8281 Z " fill="#000000"/><text fill="#000000" font-family="sans-serif" font-size="14" lengthAdjust="spacing" textLength="128" x="320" y="671.8467">ParametricInterface</text></g><!--class Function--><g id="elem_Function"><rect codeLine="270" fill="#F1F1F1" height="32" id="Function" rx="2.5" ry="2.5" style="stroke:#181818;stroke-width:0.5;" width="86" x="923" y="559"/><ellipse cx="938" cy="575" fill="#ADD1B2" rx="11" ry="11" style="stroke:#181818;stroke-width:1.0;"/><path d="M937.9375,570.8281 Q937.1875,570.8281 936.625,571.125 Q936.0625,571.4063 935.6719,571.9375 Q935.2813,572.4688 935.0781,573.25 Q934.8906,574.0156 934.8906,574.9688 Q934.8906,575.9375 935.0625,576.7031 Q935.25,577.4531 935.6094,577.9688 Q935.9844,578.4844 936.5625,578.7656 Q937.1406,579.0313 937.9375,579.0313 Q938.6719,579.0313 939.4063,578.8594 Q940.1563,578.6875 941.0313,578.3906 L941.0313,580.5469 Q940.625,580.7031 940.2344,580.8281 Q939.8438,580.9375 939.4375,581.0156 Q939.0313,581.0938 938.6094,581.125 Q938.1875,581.1719 937.6875,581.1719 Q936.2813,581.1719 935.25,580.7188 Q934.2344,580.2656 933.5625,579.4531 Q932.8906,578.6406 932.5625,577.5 Q932.2344,576.3438 932.2344,574.9531 Q932.2344,573.5781 932.6094,572.4219 Q932.9844,571.2656 933.7031,570.4375 Q934.4219,569.6094 935.4844,569.1563 Q936.5469,568.6875 937.9375,568.6875 Q938.8438,568.6875 939.75,568.9219 Q940.6563,569.1406 941.4844,569.5469 L940.6563,571.6406 Q939.9688,571.3125 939.2813,571.0781 Q938.5938,570.8281 937.9375,570.8281 Z " fill="#000000"/><text fill="#000000" font-family="sans-serif" font-size="14" lengthAdjust="spacing" textLength="54" x="952" y="579.8467">Function</text></g><!--class Accessor--><g id="elem_Accessor"><rect codeLine="274" fill="#F1F1F1" height="32" id="Accessor" rx="2.5" ry="2.5" style="stroke:#181818;stroke-width:0.5;" width="87" x="614.5" y="651"/><ellipse cx="629.5" cy="667" fill="#ADD1B2" rx="11" ry="11" style="stroke:#181818;stroke-width:1.0;"/><path d="M629.4375,662.8281 Q628.6875,662.8281 628.125,663.125 Q627.5625,663.4063 627.1719,663.9375 Q626.7813,664.4688 626.5781,665.25 Q626.3906,666.0156 626.3906,666.9688 Q626.3906,667.9375 626.5625,668.7031 Q626.75,669.4531 627.1094,669.9688 Q627.4844,670.4844 628.0625,670.7656 Q628.6406,671.0313 629.4375,671.0313 Q630.1719,671.0313 630.9063,670.8594 Q631.6563,670.6875 632.5313,670.3906 L632.5313,672.5469 Q632.125,672.7031 631.7344,672.8281 Q631.3438,672.9375 630.9375,673.0156 Q630.5313,673.0938 630.1094,673.125 Q629.6875,673.1719 629.1875,673.1719 Q627.7813,673.1719 626.75,672.7188 Q625.7344,672.2656 625.0625,671.4531 Q624.3906,670.6406 624.0625,669.5 Q623.7344,668.3438 623.7344,666.9531 Q623.7344,665.5781 624.1094,664.4219 Q624.4844,663.2656 625.2031,662.4375 Q625.9219,661.6094 626.9844,661.1563 Q628.0469,660.6875 629.4375,660.6875 Q630.3438,660.6875 631.25,660.9219 Q632.1563,661.1406 632.9844,661.5469 L632.1563,663.6406 Q631.4688,663.3125 630.7813,663.0781 Q630.0938,662.8281 629.4375,662.8281 Z " fill="#000000"/><text fill="#000000" font-family="sans-serif" font-size="14" lengthAdjust="spacing" textLength="55" x="643.5" y="671.8467">Accessor</text></g><!--class ParametricMethod--><g id="elem_ParametricMethod"><rect codeLine="278" fill="#F1F1F1" height="32" id="ParametricMethod" rx="2.5" ry="2.5" style="stroke:#181818;stroke-width:0.5;" width="151" x="736.5" y="651"/><ellipse cx="751.5" cy="667" fill="#ADD1B2" rx="11" ry="11" style="stroke:#181818;stroke-width:1.0;"/><path d="M751.4375,662.8281 Q750.6875,662.8281 750.125,663.125 Q749.5625,663.4063 749.1719,663.9375 Q748.7813,664.4688 748.5781,665.25 Q748.3906,666.0156 748.3906,666.9688 Q748.3906,667.9375 748.5625,668.7031 Q748.75,669.4531 749.1094,669.9688 Q749.4844,670.4844 750.0625,670.7656 Q750.6406,671.0313 751.4375,671.0313 Q752.1719,671.0313 752.9063,670.8594 Q753.6563,670.6875 754.5313,670.3906 L754.5313,672.5469 Q754.125,672.7031 753.7344,672.8281 Q753.3438,672.9375 752.9375,673.0156 Q752.5313,673.0938 752.1094,673.125 Q751.6875,673.1719 751.1875,673.1719 Q749.7813,673.1719 748.75,672.7188 Q747.7344,672.2656 747.0625,671.4531 Q746.3906,670.6406 746.0625,669.5 Q745.7344,668.3438 745.7344,666.9531 Q745.7344,665.5781 746.1094,664.4219 Q746.4844,663.2656 747.2031,662.4375 Q747.9219,661.6094 748.9844,661.1563 Q750.0469,660.6875 751.4375,660.6875 Q752.3438,660.6875 753.25,660.9219 Q754.1563,661.1406 754.9844,661.5469 L754.1563,663.6406 Q753.4688,663.3125 752.7813,663.0781 Q752.0938,662.8281 751.4375,662.8281 Z " fill="#000000"/><text fill="#000000" font-family="sans-serif" font-size="14" lengthAdjust="spacing" textLength="119" x="765.5" y="671.8467">ParametricMethod</text></g><!--class ParametricFunction--><g id="elem_ParametricFunction"><rect codeLine="285" fill="#F1F1F1" height="32" id="ParametricFunction" rx="2.5" ry="2.5" style="stroke:#181818;stroke-width:0.5;" width="156" x="923" y="651"/><ellipse cx="938" cy="667" fill="#ADD1B2" rx="11" ry="11" style="stroke:#181818;stroke-width:1.0;"/><path d="M937.9375,662.8281 Q937.1875,662.8281 936.625,663.125 Q936.0625,663.4063 935.6719,663.9375 Q935.2813,664.4688 935.0781,665.25 Q934.8906,666.0156 934.8906,666.9688 Q934.8906,667.9375 935.0625,668.7031 Q935.25,669.4531 935.6094,669.9688 Q935.9844,670.4844 936.5625,670.7656 Q937.1406,671.0313 937.9375,671.0313 Q938.6719,671.0313 939.4063,670.8594 Q940.1563,670.6875 941.0313,670.3906 L941.0313,672.5469 Q940.625,672.7031 940.2344,672.8281 Q939.8438,672.9375 939.4375,673.0156 Q939.0313,673.0938 938.6094,673.125 Q938.1875,673.1719 937.6875,673.1719 Q936.2813,673.1719 935.25,672.7188 Q934.2344,672.2656 933.5625,671.4531 Q932.8906,670.6406 932.5625,669.5 Q932.2344,668.3438 932.2344,666.9531 Q932.2344,665.5781 932.6094,664.4219 Q932.9844,663.2656 933.7031,662.4375 Q934.4219,661.6094 935.4844,661.1563 Q936.5469,660.6875 937.9375,660.6875 Q938.8438,660.6875 939.75,660.9219 Q940.6563,661.1406 941.4844,661.5469 L940.6563,663.6406 Q939.9688,663.3125 939.2813,663.0781 Q938.5938,662.8281 937.9375,662.8281 Z " fill="#000000"/><text fill="#000000" font-family="sans-serif" font-size="14" lengthAdjust="spacing" textLength="124" x="952" y="671.8467">ParametricFunction</text></g><!--class ArrowFunction--><g id="elem_ArrowFunction"><rect codeLine="292" fill="#F1F1F1" height="32" id="ArrowFunction" rx="2.5" ry="2.5" style="stroke:#181818;stroke-width:0.5;" width="125" x="1044.5" y="559"/><ellipse cx="1059.5" cy="575" fill="#ADD1B2" rx="11" ry="11" style="stroke:#181818;stroke-width:1.0;"/><path d="M1059.4375,570.8281 Q1058.6875,570.8281 1058.125,571.125 Q1057.5625,571.4063 1057.1719,571.9375 Q1056.7813,572.4688 1056.5781,573.25 Q1056.3906,574.0156 1056.3906,574.9688 Q1056.3906,575.9375 1056.5625,576.7031 Q1056.75,577.4531 1057.1094,577.9688 Q1057.4844,578.4844 1058.0625,578.7656 Q1058.6406,579.0313 1059.4375,579.0313 Q1060.1719,579.0313 1060.9063,578.8594 Q1061.6563,578.6875 1062.5313,578.3906 L1062.5313,580.5469 Q1062.125,580.7031 1061.7344,580.8281 Q1061.3438,580.9375 1060.9375,581.0156 Q1060.5313,581.0938 1060.1094,581.125 Q1059.6875,581.1719 1059.1875,581.1719 Q1057.7813,581.1719 1056.75,580.7188 Q1055.7344,580.2656 1055.0625,579.4531 Q1054.3906,578.6406 1054.0625,577.5 Q1053.7344,576.3438 1053.7344,574.9531 Q1053.7344,573.5781 1054.1094,572.4219 Q1054.4844,571.2656 1055.2031,570.4375 Q1055.9219,569.6094 1056.9844,569.1563 Q1058.0469,568.6875 1059.4375,568.6875 Q1060.3438,568.6875 1061.25,568.9219 Q1062.1563,569.1406 1062.9844,569.5469 L1062.1563,571.6406 Q1061.4688,571.3125 1060.7813,571.0781 Q1060.0938,570.8281 1059.4375,570.8281 Z " fill="#000000"/><text fill="#000000" font-family="sans-serif" font-size="14" lengthAdjust="spacing" textLength="93" x="1073.5" y="579.8467">ArrowFunction</text></g><!--class ParametricArrowFunction--><g id="elem_ParametricArrowFunction"><rect codeLine="296" fill="#F1F1F1" height="32" id="ParametricArrowFunction" rx="2.5" ry="2.5" style="stroke:#181818;stroke-width:0.5;" width="195" x="1114.5" y="651"/><ellipse cx="1129.5" cy="667" fill="#ADD1B2" rx="11" ry="11" style="stroke:#181818;stroke-width:1.0;"/><path d="M1129.4375,662.8281 Q1128.6875,662.8281 1128.125,663.125 Q1127.5625,663.4063 1127.1719,663.9375 Q1126.7813,664.4688 1126.5781,665.25 Q1126.3906,666.0156 1126.3906,666.9688 Q1126.3906,667.9375 1126.5625,668.7031 Q1126.75,669.4531 1127.1094,669.9688 Q1127.4844,670.4844 1128.0625,670.7656 Q1128.6406,671.0313 1129.4375,671.0313 Q1130.1719,671.0313 1130.9063,670.8594 Q1131.6563,670.6875 1132.5313,670.3906 L1132.5313,672.5469 Q1132.125,672.7031 1131.7344,672.8281 Q1131.3438,672.9375 1130.9375,673.0156 Q1130.5313,673.0938 1130.1094,673.125 Q1129.6875,673.1719 1129.1875,673.1719 Q1127.7813,673.1719 1126.75,672.7188 Q1125.7344,672.2656 1125.0625,671.4531 Q1124.3906,670.6406 1124.0625,669.5 Q1123.7344,668.3438 1123.7344,666.9531 Q1123.7344,665.5781 1124.1094,664.4219 Q1124.4844,663.2656 1125.2031,662.4375 Q1125.9219,661.6094 1126.9844,661.1563 Q1128.0469,660.6875 1129.4375,660.6875 Q1130.3438,660.6875 1131.25,660.9219 Q1132.1563,661.1406 1132.9844,661.5469 L1132.1563,663.6406 Q1131.4688,663.3125 1130.7813,663.0781 Q1130.0938,662.8281 1129.4375,662.8281 Z " fill="#000000"/><text fill="#000000" font-family="sans-serif" font-size="14" lengthAdjust="spacing" textLength="163" x="1143.5" y="671.8467">ParametricArrowFunction</text></g><!--class ParameterType--><g id="elem_ParameterType"><rect codeLine="303" fill="#F1F1F1" height="32" id="ParameterType" rx="2.5" ry="2.5" style="stroke:#181818;stroke-width:0.5;" width="130" x="538" y="559"/><ellipse cx="553" cy="575" fill="#ADD1B2" rx="11" ry="11" style="stroke:#181818;stroke-width:1.0;"/><path d="M552.9375,570.8281 Q552.1875,570.8281 551.625,571.125 Q551.0625,571.4063 550.6719,571.9375 Q550.2813,572.4688 550.0781,573.25 Q549.8906,574.0156 549.8906,574.9688 Q549.8906,575.9375 550.0625,576.7031 Q550.25,577.4531 550.6094,577.9688 Q550.9844,578.4844 551.5625,578.7656 Q552.1406,579.0313 552.9375,579.0313 Q553.6719,579.0313 554.4063,578.8594 Q555.1563,578.6875 556.0313,578.3906 L556.0313,580.5469 Q555.625,580.7031 555.2344,580.8281 Q554.8438,580.9375 554.4375,581.0156 Q554.0313,581.0938 553.6094,581.125 Q553.1875,581.1719 552.6875,581.1719 Q551.2813,581.1719 550.25,580.7188 Q549.2344,580.2656 548.5625,579.4531 Q547.8906,578.6406 547.5625,577.5 Q547.2344,576.3438 547.2344,574.9531 Q547.2344,573.5781 547.6094,572.4219 Q547.9844,571.2656 548.7031,570.4375 Q549.4219,569.6094 550.4844,569.1563 Q551.5469,568.6875 552.9375,568.6875 Q553.8438,568.6875 554.75,568.9219 Q555.6563,569.1406 556.4844,569.5469 L555.6563,571.6406 Q554.9688,571.3125 554.2813,571.0781 Q553.5938,570.8281 552.9375,570.8281 Z " fill="#000000"/><text fill="#000000" font-family="sans-serif" font-size="14" lengthAdjust="spacing" textLength="98" x="567" y="579.8467">ParameterType</text></g><!--class Invocation--><g id="elem_Invocation"><rect codeLine="339" fill="#F1F1F1" height="32" id="Invocation" rx="2.5" ry="2.5" style="stroke:#181818;stroke-width:0.5;" width="98" x="1419" y="191"/><ellipse cx="1434" cy="207" fill="#ADD1B2" rx="11" ry="11" style="stroke:#181818;stroke-width:1.0;"/><path d="M1433.9375,202.8281 Q1433.1875,202.8281 1432.625,203.125 Q1432.0625,203.4063 1431.6719,203.9375 Q1431.2813,204.4688 1431.0781,205.25 Q1430.8906,206.0156 1430.8906,206.9688 Q1430.8906,207.9375 1431.0625,208.7031 Q1431.25,209.4531 1431.6094,209.9688 Q1431.9844,210.4844 1432.5625,210.7656 Q1433.1406,211.0313 1433.9375,211.0313 Q1434.6719,211.0313 1435.4063,210.8594 Q1436.1563,210.6875 1437.0313,210.3906 L1437.0313,212.5469 Q1436.625,212.7031 1436.2344,212.8281 Q1435.8438,212.9375 1435.4375,213.0156 Q1435.0313,213.0938 1434.6094,213.125 Q1434.1875,213.1719 1433.6875,213.1719 Q1432.2813,213.1719 1431.25,212.7188 Q1430.2344,212.2656 1429.5625,211.4531 Q1428.8906,210.6406 1428.5625,209.5 Q1428.2344,208.3438 1428.2344,206.9531 Q1428.2344,205.5781 1428.6094,204.4219 Q1428.9844,203.2656 1429.7031,202.4375 Q1430.4219,201.6094 1431.4844,201.1563 Q1432.5469,200.6875 1433.9375,200.6875 Q1434.8438,200.6875 1435.75,200.9219 Q1436.6563,201.1406 1437.4844,201.5469 L1436.6563,203.6406 Q1435.9688,203.3125 1435.2813,203.0781 Q1434.5938,202.8281 1433.9375,202.8281 Z " fill="#000000"/><text fill="#000000" font-family="sans-serif" font-size="14" lengthAdjust="spacing" textLength="66" x="1448" y="211.8467">Invocation</text></g><!--class Reference--><g id="elem_Reference"><rect codeLine="355" fill="#F1F1F1" height="32" id="Reference" rx="2.5" ry="2.5" style="stroke:#181818;stroke-width:0.5;" width="97" x="1552.5" y="191"/><ellipse cx="1567.5" cy="207" fill="#ADD1B2" rx="11" ry="11" style="stroke:#181818;stroke-width:1.0;"/><path d="M1567.4375,202.8281 Q1566.6875,202.8281 1566.125,203.125 Q1565.5625,203.4063 1565.1719,203.9375 Q1564.7813,204.4688 1564.5781,205.25 Q1564.3906,206.0156 1564.3906,206.9688 Q1564.3906,207.9375 1564.5625,208.7031 Q1564.75,209.4531 1565.1094,209.9688 Q1565.4844,210.4844 1566.0625,210.7656 Q1566.6406,211.0313 1567.4375,211.0313 Q1568.1719,211.0313 1568.9063,210.8594 Q1569.6563,210.6875 1570.5313,210.3906 L1570.5313,212.5469 Q1570.125,212.7031 1569.7344,212.8281 Q1569.3438,212.9375 1568.9375,213.0156 Q1568.5313,213.0938 1568.1094,213.125 Q1567.6875,213.1719 1567.1875,213.1719 Q1565.7813,213.1719 1564.75,212.7188 Q1563.7344,212.2656 1563.0625,211.4531 Q1562.3906,210.6406 1562.0625,209.5 Q1561.7344,208.3438 1561.7344,206.9531 Q1561.7344,205.5781 1562.1094,204.4219 Q1562.4844,203.2656 1563.2031,202.4375 Q1563.9219,201.6094 1564.9844,201.1563 Q1566.0469,200.6875 1567.4375,200.6875 Q1568.3438,200.6875 1569.25,200.9219 Q1570.1563,201.1406 1570.9844,201.5469 L1570.1563,203.6406 Q1569.4688,203.3125 1568.7813,203.0781 Q1568.0938,202.8281 1567.4375,202.8281 Z " fill="#000000"/><text fill="#000000" font-family="sans-serif" font-size="14" lengthAdjust="spacing" textLength="65" x="1581.5" y="211.8467">Reference</text></g><!--class Variable--><g id="elem_Variable"><rect codeLine="365" fill="#F1F1F1" height="32" id="Variable" rx="2.5" ry="2.5" style="stroke:#181818;stroke-width:0.5;" width="84" x="1223" y="467"/><ellipse cx="1238" cy="483" fill="#ADD1B2" rx="11" ry="11" style="stroke:#181818;stroke-width:1.0;"/><path d="M1237.9375,478.8281 Q1237.1875,478.8281 1236.625,479.125 Q1236.0625,479.4063 1235.6719,479.9375 Q1235.2813,480.4688 1235.0781,481.25 Q1234.8906,482.0156 1234.8906,482.9688 Q1234.8906,483.9375 1235.0625,484.7031 Q1235.25,485.4531 1235.6094,485.9688 Q1235.9844,486.4844 1236.5625,486.7656 Q1237.1406,487.0313 1237.9375,487.0313 Q1238.6719,487.0313 1239.4063,486.8594 Q1240.1563,486.6875 1241.0313,486.3906 L1241.0313,488.5469 Q1240.625,488.7031 1240.2344,488.8281 Q1239.8438,488.9375 1239.4375,489.0156 Q1239.0313,489.0938 1238.6094,489.125 Q1238.1875,489.1719 1237.6875,489.1719 Q1236.2813,489.1719 1235.25,488.7188 Q1234.2344,488.2656 1233.5625,487.4531 Q1232.8906,486.6406 1232.5625,485.5 Q1232.2344,484.3438 1232.2344,482.9531 Q1232.2344,481.5781 1232.6094,480.4219 Q1232.9844,479.2656 1233.7031,478.4375 Q1234.4219,477.6094 1235.4844,477.1563 Q1236.5469,476.6875 1237.9375,476.6875 Q1238.8438,476.6875 1239.75,476.9219 Q1240.6563,477.1406 1241.4844,477.5469 L1240.6563,479.6406 Q1239.9688,479.3125 1239.2813,479.0781 Q1238.5938,478.8281 1237.9375,478.8281 Z " fill="#000000"/><text fill="#000000" font-family="sans-serif" font-size="14" lengthAdjust="spacing" textLength="52" x="1252" y="487.8467">Variable</text></g><!--class Access--><g id="elem_Access"><rect codeLine="438" fill="#F1F1F1" height="32" id="Access" rx="2.5" ry="2.5" style="stroke:#181818;stroke-width:0.5;" width="73" x="1684.5" y="191"/><ellipse cx="1699.5" cy="207" fill="#ADD1B2" rx="11" ry="11" style="stroke:#181818;stroke-width:1.0;"/><path d="M1699.4375,202.8281 Q1698.6875,202.8281 1698.125,203.125 Q1697.5625,203.4063 1697.1719,203.9375 Q1696.7813,204.4688 1696.5781,205.25 Q1696.3906,206.0156 1696.3906,206.9688 Q1696.3906,207.9375 1696.5625,208.7031 Q1696.75,209.4531 1697.1094,209.9688 Q1697.4844,210.4844 1698.0625,210.7656 Q1698.6406,211.0313 1699.4375,211.0313 Q1700.1719,211.0313 1700.9063,210.8594 Q1701.6563,210.6875 1702.5313,210.3906 L1702.5313,212.5469 Q1702.125,212.7031 1701.7344,212.8281 Q1701.3438,212.9375 1700.9375,213.0156 Q1700.5313,213.0938 1700.1094,213.125 Q1699.6875,213.1719 1699.1875,213.1719 Q1697.7813,213.1719 1696.75,212.7188 Q1695.7344,212.2656 1695.0625,211.4531 Q1694.3906,210.6406 1694.0625,209.5 Q1693.7344,208.3438 1693.7344,206.9531 Q1693.7344,205.5781 1694.1094,204.4219 Q1694.4844,203.2656 1695.2031,202.4375 Q1695.9219,201.6094 1696.9844,201.1563 Q1698.0469,200.6875 1699.4375,200.6875 Q1700.3438,200.6875 1701.25,200.9219 Q1702.1563,201.1406 1702.9844,201.5469 L1702.1563,203.6406 Q1701.4688,203.3125 1700.7813,203.0781 Q1700.0938,202.8281 1699.4375,202.8281 Z " fill="#000000"/><text fill="#000000" font-family="sans-serif" font-size="14" lengthAdjust="spacing" textLength="41" x="1713.5" y="211.8467">Access</text></g><!--class Concretisation--><g id="elem_Concretisation"><rect codeLine="451" fill="#F1F1F1" height="32" id="Concretisation" rx="2.5" ry="2.5" style="stroke:#181818;stroke-width:0.5;" width="123" x="1792.5" y="191"/><ellipse cx="1807.5" cy="207" fill="#ADD1B2" rx="11" ry="11" style="stroke:#181818;stroke-width:1.0;"/><path d="M1807.4375,202.8281 Q1806.6875,202.8281 1806.125,203.125 Q1805.5625,203.4063 1805.1719,203.9375 Q1804.7813,204.4688 1804.5781,205.25 Q1804.3906,206.0156 1804.3906,206.9688 Q1804.3906,207.9375 1804.5625,208.7031 Q1804.75,209.4531 1805.1094,209.9688 Q1805.4844,210.4844 1806.0625,210.7656 Q1806.6406,211.0313 1807.4375,211.0313 Q1808.1719,211.0313 1808.9063,210.8594 Q1809.6563,210.6875 1810.5313,210.3906 L1810.5313,212.5469 Q1810.125,212.7031 1809.7344,212.8281 Q1809.3438,212.9375 1808.9375,213.0156 Q1808.5313,213.0938 1808.1094,213.125 Q1807.6875,213.1719 1807.1875,213.1719 Q1805.7813,213.1719 1804.75,212.7188 Q1803.7344,212.2656 1803.0625,211.4531 Q1802.3906,210.6406 1802.0625,209.5 Q1801.7344,208.3438 1801.7344,206.9531 Q1801.7344,205.5781 1802.1094,204.4219 Q1802.4844,203.2656 1803.2031,202.4375 Q1803.9219,201.6094 1804.9844,201.1563 Q1806.0469,200.6875 1807.4375,200.6875 Q1808.3438,200.6875 1809.25,200.9219 Q1810.1563,201.1406 1810.9844,201.5469 L1810.1563,203.6406 Q1809.4688,203.3125 1808.7813,203.0781 Q1808.0938,202.8281 1807.4375,202.8281 Z " fill="#000000"/><text fill="#000000" font-family="sans-serif" font-size="14" lengthAdjust="spacing" textLength="91" x="1821.5" y="211.8467">Concretisation</text></g><!--class Enum--><g id="elem_Enum"><rect codeLine="461" fill="#F1F1F1" height="32" id="Enum" rx="2.5" ry="2.5" style="stroke:#181818;stroke-width:0.5;" width="68" x="703" y="559"/><ellipse cx="718" cy="575" fill="#ADD1B2" rx="11" ry="11" style="stroke:#181818;stroke-width:1.0;"/><path d="M717.9375,570.8281 Q717.1875,570.8281 716.625,571.125 Q716.0625,571.4063 715.6719,571.9375 Q715.2813,572.4688 715.0781,573.25 Q714.8906,574.0156 714.8906,574.9688 Q714.8906,575.9375 715.0625,576.7031 Q715.25,577.4531 715.6094,577.9688 Q715.9844,578.4844 716.5625,578.7656 Q717.1406,579.0313 717.9375,579.0313 Q718.6719,579.0313 719.4063,578.8594 Q720.1563,578.6875 721.0313,578.3906 L721.0313,580.5469 Q720.625,580.7031 720.2344,580.8281 Q719.8438,580.9375 719.4375,581.0156 Q719.0313,581.0938 718.6094,581.125 Q718.1875,581.1719 717.6875,581.1719 Q716.2813,581.1719 715.25,580.7188 Q714.2344,580.2656 713.5625,579.4531 Q712.8906,578.6406 712.5625,577.5 Q712.2344,576.3438 712.2344,574.9531 Q712.2344,573.5781 712.6094,572.4219 Q712.9844,571.2656 713.7031,570.4375 Q714.4219,569.6094 715.4844,569.1563 Q716.5469,568.6875 717.9375,568.6875 Q718.8438,568.6875 719.75,568.9219 Q720.6563,569.1406 721.4844,569.5469 L720.6563,571.6406 Q719.9688,571.3125 719.2813,571.0781 Q718.5938,570.8281 717.9375,570.8281 Z " fill="#000000"/><text fill="#000000" font-family="sans-serif" font-size="14" lengthAdjust="spacing" textLength="36" x="732" y="579.8467">Enum</text></g><!--class EnumValue--><g id="elem_EnumValue"><rect codeLine="468" fill="#F1F1F1" height="32" id="EnumValue" rx="2.5" ry="2.5" style="stroke:#181818;stroke-width:0.5;" width="103" x="1342.5" y="467"/><ellipse cx="1357.5" cy="483" fill="#ADD1B2" rx="11" ry="11" style="stroke:#181818;stroke-width:1.0;"/><path d="M1357.4375,478.8281 Q1356.6875,478.8281 1356.125,479.125 Q1355.5625,479.4063 1355.1719,479.9375 Q1354.7813,480.4688 1354.5781,481.25 Q1354.3906,482.0156 1354.3906,482.9688 Q1354.3906,483.9375 1354.5625,484.7031 Q1354.75,485.4531 1355.1094,485.9688 Q1355.4844,486.4844 1356.0625,486.7656 Q1356.6406,487.0313 1357.4375,487.0313 Q1358.1719,487.0313 1358.9063,486.8594 Q1359.6563,486.6875 1360.5313,486.3906 L1360.5313,488.5469 Q1360.125,488.7031 1359.7344,488.8281 Q1359.3438,488.9375 1358.9375,489.0156 Q1358.5313,489.0938 1358.1094,489.125 Q1357.6875,489.1719 1357.1875,489.1719 Q1355.7813,489.1719 1354.75,488.7188 Q1353.7344,488.2656 1353.0625,487.4531 Q1352.3906,486.6406 1352.0625,485.5 Q1351.7344,484.3438 1351.7344,482.9531 Q1351.7344,481.5781 1352.1094,480.4219 Q1352.4844,479.2656 1353.2031,478.4375 Q1353.9219,477.6094 1354.9844,477.1563 Q1356.0469,476.6875 1357.4375,476.6875 Q1358.3438,476.6875 1359.25,476.9219 Q1360.1563,477.1406 1360.9844,477.5469 L1360.1563,479.6406 Q1359.4688,479.3125 1358.7813,479.0781 Q1358.0938,478.8281 1357.4375,478.8281 Z " fill="#000000"/><text fill="#000000" font-family="sans-serif" font-size="14" lengthAdjust="spacing" textLength="71" x="1371.5" y="487.8467">EnumValue</text></g><!--class ImplicitVariable--><g id="elem_ImplicitVariable"><rect codeLine="475" fill="#F1F1F1" height="32" id="ImplicitVariable" rx="2.5" ry="2.5" style="stroke:#181818;stroke-width:0.5;" width="133" x="1204.5" y="559"/><ellipse cx="1219.5" cy="575" fill="#ADD1B2" rx="11" ry="11" style="stroke:#181818;stroke-width:1.0;"/><path d="M1219.4375,570.8281 Q1218.6875,570.8281 1218.125,571.125 Q1217.5625,571.4063 1217.1719,571.9375 Q1216.7813,572.4688 1216.5781,573.25 Q1216.3906,574.0156 1216.3906,574.9688 Q1216.3906,575.9375 1216.5625,576.7031 Q1216.75,577.4531 1217.1094,577.9688 Q1217.4844,578.4844 1218.0625,578.7656 Q1218.6406,579.0313 1219.4375,579.0313 Q1220.1719,579.0313 1220.9063,578.8594 Q1221.6563,578.6875 1222.5313,578.3906 L1222.5313,580.5469 Q1222.125,580.7031 1221.7344,580.8281 Q1221.3438,580.9375 1220.9375,581.0156 Q1220.5313,581.0938 1220.1094,581.125 Q1219.6875,581.1719 1219.1875,581.1719 Q1217.7813,581.1719 1216.75,580.7188 Q1215.7344,580.2656 1215.0625,579.4531 Q1214.3906,578.6406 1214.0625,577.5 Q1213.7344,576.3438 1213.7344,574.9531 Q1213.7344,573.5781 1214.1094,572.4219 Q1214.4844,571.2656 1215.2031,570.4375 Q1215.9219,569.6094 1216.9844,569.1563 Q1218.0469,568.6875 1219.4375,568.6875 Q1220.3438,568.6875 1221.25,568.9219 Q1222.1563,569.1406 1222.9844,569.5469 L1222.1563,571.6406 Q1221.4688,571.3125 1220.7813,571.0781 Q1220.0938,570.8281 1219.4375,570.8281 Z " fill="#000000"/><text fill="#000000" font-family="sans-serif" font-size="14" lengthAdjust="spacing" textLength="101" x="1233.5" y="579.8467">ImplicitVariable</text></g><!--class IndexedFileAnchor--><g id="elem_IndexedFileAnchor"><rect codeLine="479" fill="#F1F1F1" height="32" id="IndexedFileAnchor" rx="2.5" ry="2.5" style="stroke:#181818;stroke-width:0.5;" width="152" x="958" y="283"/><ellipse cx="973" cy="299" fill="#ADD1B2" rx="11" ry="11" style="stroke:#181818;stroke-width:1.0;"/><path d="M972.9375,294.8281 Q972.1875,294.8281 971.625,295.125 Q971.0625,295.4063 970.6719,295.9375 Q970.2813,296.4688 970.0781,297.25 Q969.8906,298.0156 969.8906,298.9688 Q969.8906,299.9375 970.0625,300.7031 Q970.25,301.4531 970.6094,301.9688 Q970.9844,302.4844 971.5625,302.7656 Q972.1406,303.0313 972.9375,303.0313 Q973.6719,303.0313 974.4063,302.8594 Q975.1563,302.6875 976.0313,302.3906 L976.0313,304.5469 Q975.625,304.7031 975.2344,304.8281 Q974.8438,304.9375 974.4375,305.0156 Q974.0313,305.0938 973.6094,305.125 Q973.1875,305.1719 972.6875,305.1719 Q971.2813,305.1719 970.25,304.7188 Q969.2344,304.2656 968.5625,303.4531 Q967.8906,302.6406 967.5625,301.5 Q967.2344,300.3438 967.2344,298.9531 Q967.2344,297.5781 967.6094,296.4219 Q967.9844,295.2656 968.7031,294.4375 Q969.4219,293.6094 970.4844,293.1563 Q971.5469,292.6875 972.9375,292.6875 Q973.8438,292.6875 974.75,292.9219 Q975.6563,293.1406 976.4844,293.5469 L975.6563,295.6406 Q974.9688,295.3125 974.2813,295.0781 Q973.5938,294.8281 972.9375,294.8281 Z " fill="#000000"/><text fill="#000000" font-family="sans-serif" font-size="14" lengthAdjust="spacing" textLength="120" x="987" y="303.8467">IndexedFileAnchor</text></g><!--class TextAnchor--><g id="elem_TextAnchor"><rect codeLine="492" fill="#F1F1F1" height="32" id="TextAnchor" rx="2.5" ry="2.5" style="stroke:#181818;stroke-width:0.5;" width="104" x="1145" y="283"/><ellipse cx="1160" cy="299" fill="#ADD1B2" rx="11" ry="11" style="stroke:#181818;stroke-width:1.0;"/><path d="M1159.9375,294.8281 Q1159.1875,294.8281 1158.625,295.125 Q1158.0625,295.4063 1157.6719,295.9375 Q1157.2813,296.4688 1157.0781,297.25 Q1156.8906,298.0156 1156.8906,298.9688 Q1156.8906,299.9375 1157.0625,300.7031 Q1157.25,301.4531 1157.6094,301.9688 Q1157.9844,302.4844 1158.5625,302.7656 Q1159.1406,303.0313 1159.9375,303.0313 Q1160.6719,303.0313 1161.4063,302.8594 Q1162.1563,302.6875 1163.0313,302.3906 L1163.0313,304.5469 Q1162.625,304.7031 1162.2344,304.8281 Q1161.8438,304.9375 1161.4375,305.0156 Q1161.0313,305.0938 1160.6094,305.125 Q1160.1875,305.1719 1159.6875,305.1719 Q1158.2813,305.1719 1157.25,304.7188 Q1156.2344,304.2656 1155.5625,303.4531 Q1154.8906,302.6406 1154.5625,301.5 Q1154.2344,300.3438 1154.2344,298.9531 Q1154.2344,297.5781 1154.6094,296.4219 Q1154.9844,295.2656 1155.7031,294.4375 Q1156.4219,293.6094 1157.4844,293.1563 Q1158.5469,292.6875 1159.9375,292.6875 Q1160.8438,292.6875 1161.75,292.9219 Q1162.6563,293.1406 1163.4844,293.5469 L1162.6563,295.6406 Q1161.9688,295.3125 1161.2813,295.0781 Q1160.5938,294.8281 1159.9375,294.8281 Z " fill="#000000"/><text fill="#000000" font-family="sans-serif" font-size="14" lengthAdjust="spacing" textLength="72" x="1174" y="303.8467">TextAnchor</text></g><!--class ParameterConcretisation--><g id="elem_ParameterConcretisation"><rect codeLine="505" fill="#F1F1F1" height="32" id="ParameterConcretisation" rx="2.5" ry="2.5" style="stroke:#181818;stroke-width:0.5;" width="191" x="1950.5" y="191"/><ellipse cx="1965.5" cy="207" fill="#ADD1B2" rx="11" ry="11" style="stroke:#181818;stroke-width:1.0;"/><path d="M1965.4375,202.8281 Q1964.6875,202.8281 1964.125,203.125 Q1963.5625,203.4063 1963.1719,203.9375 Q1962.7813,204.4688 1962.5781,205.25 Q1962.3906,206.0156 1962.3906,206.9688 Q1962.3906,207.9375 1962.5625,208.7031 Q1962.75,209.4531 1963.1094,209.9688 Q1963.4844,210.4844 1964.0625,210.7656 Q1964.6406,211.0313 1965.4375,211.0313 Q1966.1719,211.0313 1966.9063,210.8594 Q1967.6563,210.6875 1968.5313,210.3906 L1968.5313,212.5469 Q1968.125,212.7031 1967.7344,212.8281 Q1967.3438,212.9375 1966.9375,213.0156 Q1966.5313,213.0938 1966.1094,213.125 Q1965.6875,213.1719 1965.1875,213.1719 Q1963.7813,213.1719 1962.75,212.7188 Q1961.7344,212.2656 1961.0625,211.4531 Q1960.3906,210.6406 1960.0625,209.5 Q1959.7344,208.3438 1959.7344,206.9531 Q1959.7344,205.5781 1960.1094,204.4219 Q1960.4844,203.2656 1961.2031,202.4375 Q1961.9219,201.6094 1962.9844,201.1563 Q1964.0469,200.6875 1965.4375,200.6875 Q1966.3438,200.6875 1967.25,200.9219 Q1968.1563,201.1406 1968.9844,201.5469 L1968.1563,203.6406 Q1967.4688,203.3125 1966.7813,203.0781 Q1966.0938,202.8281 1965.4375,202.8281 Z " fill="#000000"/><text fill="#000000" font-family="sans-serif" font-size="14" lengthAdjust="spacing" textLength="159" x="1979.5" y="211.8467">ParameterConcretisation</text></g><!--class SearchParameters--><g id="elem_SearchParameters"><rect codeLine="518" fill="#F1F1F1" height="32" id="SearchParameters" rx="2.5" ry="2.5" style="stroke:#181818;stroke-width:0.5;" width="148" x="797" y="7"/><ellipse cx="812" cy="23" fill="#B4A7E5" rx="11" ry="11" style="stroke:#181818;stroke-width:1.0;"/><path d="M814.5625,29 L809.0469,29 L809.0469,27.5313 L810.5313,26.8594 L810.5313,19 L809.0469,18.3281 L809.0469,16.8594 L814.5625,16.8594 L814.5625,18.3281 L813.0938,19 L813.0938,26.8594 L814.5625,27.5313 L814.5625,29 Z " fill="#000000"/><text fill="#000000" font-family="sans-serif" font-size="14" font-style="italic" lengthAdjust="spacing" textLength="116" x="826" y="27.8467">SearchParameters</text></g><!--class EntityDictionary--><g id="elem_EntityDictionary"><rect codeLine="523" fill="#F1F1F1" height="32" id="EntityDictionary" rx="2.5" ry="2.5" style="stroke:#181818;stroke-width:0.5;" width="133" x="980.5" y="7"/><ellipse cx="995.5" cy="23" fill="#ADD1B2" rx="11" ry="11" style="stroke:#181818;stroke-width:1.0;"/><path d="M995.4375,18.8281 Q994.6875,18.8281 994.125,19.125 Q993.5625,19.4063 993.1719,19.9375 Q992.7813,20.4688 992.5781,21.25 Q992.3906,22.0156 992.3906,22.9688 Q992.3906,23.9375 992.5625,24.7031 Q992.75,25.4531 993.1094,25.9688 Q993.4844,26.4844 994.0625,26.7656 Q994.6406,27.0313 995.4375,27.0313 Q996.1719,27.0313 996.9063,26.8594 Q997.6563,26.6875 998.5313,26.3906 L998.5313,28.5469 Q998.125,28.7031 997.7344,28.8281 Q997.3438,28.9375 996.9375,29.0156 Q996.5313,29.0938 996.1094,29.125 Q995.6875,29.1719 995.1875,29.1719 Q993.7813,29.1719 992.75,28.7188 Q991.7344,28.2656 991.0625,27.4531 Q990.3906,26.6406 990.0625,25.5 Q989.7344,24.3438 989.7344,22.9531 Q989.7344,21.5781 990.1094,20.4219 Q990.4844,19.2656 991.2031,18.4375 Q991.9219,17.6094 992.9844,17.1563 Q994.0469,16.6875 995.4375,16.6875 Q996.3438,16.6875 997.25,16.9219 Q998.1563,17.1406 998.9844,17.5469 L998.1563,19.6406 Q997.4688,19.3125 996.7813,19.0781 Q996.0938,18.8281 995.4375,18.8281 Z " fill="#000000"/><text fill="#000000" font-family="sans-serif" font-size="14" lengthAdjust="spacing" textLength="101" x="1009.5" y="27.8467">EntityDictionary</text></g><!--class FamixRepository--><g id="elem_FamixRepository"><rect codeLine="569" fill="#F1F1F1" height="32" id="FamixRepository" rx="2.5" ry="2.5" style="stroke:#181818;stroke-width:0.5;" width="138" x="1149" y="7"/><ellipse cx="1164" cy="23" fill="#ADD1B2" rx="11" ry="11" style="stroke:#181818;stroke-width:1.0;"/><path d="M1163.9375,18.8281 Q1163.1875,18.8281 1162.625,19.125 Q1162.0625,19.4063 1161.6719,19.9375 Q1161.2813,20.4688 1161.0781,21.25 Q1160.8906,22.0156 1160.8906,22.9688 Q1160.8906,23.9375 1161.0625,24.7031 Q1161.25,25.4531 1161.6094,25.9688 Q1161.9844,26.4844 1162.5625,26.7656 Q1163.1406,27.0313 1163.9375,27.0313 Q1164.6719,27.0313 1165.4063,26.8594 Q1166.1563,26.6875 1167.0313,26.3906 L1167.0313,28.5469 Q1166.625,28.7031 1166.2344,28.8281 Q1165.8438,28.9375 1165.4375,29.0156 Q1165.0313,29.0938 1164.6094,29.125 Q1164.1875,29.1719 1163.6875,29.1719 Q1162.2813,29.1719 1161.25,28.7188 Q1160.2344,28.2656 1159.5625,27.4531 Q1158.8906,26.6406 1158.5625,25.5 Q1158.2344,24.3438 1158.2344,22.9531 Q1158.2344,21.5781 1158.6094,20.4219 Q1158.9844,19.2656 1159.7031,18.4375 Q1160.4219,17.6094 1161.4844,17.1563 Q1162.5469,16.6875 1163.9375,16.6875 Q1164.8438,16.6875 1165.75,16.9219 Q1166.6563,17.1406 1167.4844,17.5469 L1166.6563,19.6406 Q1165.9688,19.3125 1165.2813,19.0781 Q1164.5938,18.8281 1163.9375,18.8281 Z " fill="#000000"/><text fill="#000000" font-family="sans-serif" font-size="14" lengthAdjust="spacing" textLength="106" x="1178" y="27.8467">FamixRepository</text></g><!--class Importer--><g id="elem_Importer"><rect codeLine="605" fill="#F1F1F1" height="32" id="Importer" rx="2.5" ry="2.5" style="stroke:#181818;stroke-width:0.5;" width="91" x="825.5" y="99"/><ellipse cx="840.5" cy="115" fill="#ADD1B2" rx="11" ry="11" style="stroke:#181818;stroke-width:1.0;"/><path d="M840.4375,110.8281 Q839.6875,110.8281 839.125,111.125 Q838.5625,111.4063 838.1719,111.9375 Q837.7813,112.4688 837.5781,113.25 Q837.3906,114.0156 837.3906,114.9688 Q837.3906,115.9375 837.5625,116.7031 Q837.75,117.4531 838.1094,117.9688 Q838.4844,118.4844 839.0625,118.7656 Q839.6406,119.0313 840.4375,119.0313 Q841.1719,119.0313 841.9063,118.8594 Q842.6563,118.6875 843.5313,118.3906 L843.5313,120.5469 Q843.125,120.7031 842.7344,120.8281 Q842.3438,120.9375 841.9375,121.0156 Q841.5313,121.0938 841.1094,121.125 Q840.6875,121.1719 840.1875,121.1719 Q838.7813,121.1719 837.75,120.7188 Q836.7344,120.2656 836.0625,119.4531 Q835.3906,118.6406 835.0625,117.5 Q834.7344,116.3438 834.7344,114.9531 Q834.7344,113.5781 835.1094,112.4219 Q835.4844,111.2656 836.2031,110.4375 Q836.9219,109.6094 837.9844,109.1563 Q839.0469,108.6875 840.4375,108.6875 Q841.3438,108.6875 842.25,108.9219 Q843.1563,109.1406 843.9844,109.5469 L843.1563,111.6406 Q842.4688,111.3125 841.7813,111.0781 Q841.0938,110.8281 840.4375,110.8281 Z " fill="#000000"/><text fill="#000000" font-family="sans-serif" font-size="14" lengthAdjust="spacing" textLength="59" x="854.5" y="119.8467">Importer</text></g><!--class FamixJSONExporter--><g id="elem_FamixJSONExporter"><rect codeLine="617" fill="#F1F1F1" height="32" id="FamixJSONExporter" rx="2.5" ry="2.5" style="stroke:#181818;stroke-width:0.5;" width="156" x="952" y="99"/><ellipse cx="967" cy="115" fill="#ADD1B2" rx="11" ry="11" style="stroke:#181818;stroke-width:1.0;"/><path d="M966.9375,110.8281 Q966.1875,110.8281 965.625,111.125 Q965.0625,111.4063 964.6719,111.9375 Q964.2813,112.4688 964.0781,113.25 Q963.8906,114.0156 963.8906,114.9688 Q963.8906,115.9375 964.0625,116.7031 Q964.25,117.4531 964.6094,117.9688 Q964.9844,118.4844 965.5625,118.7656 Q966.1406,119.0313 966.9375,119.0313 Q967.6719,119.0313 968.4063,118.8594 Q969.1563,118.6875 970.0313,118.3906 L970.0313,120.5469 Q969.625,120.7031 969.2344,120.8281 Q968.8438,120.9375 968.4375,121.0156 Q968.0313,121.0938 967.6094,121.125 Q967.1875,121.1719 966.6875,121.1719 Q965.2813,121.1719 964.25,120.7188 Q963.2344,120.2656 962.5625,119.4531 Q961.8906,118.6406 961.5625,117.5 Q961.2344,116.3438 961.2344,114.9531 Q961.2344,113.5781 961.6094,112.4219 Q961.9844,111.2656 962.7031,110.4375 Q963.4219,109.6094 964.4844,109.1563 Q965.5469,108.6875 966.9375,108.6875 Q967.8438,108.6875 968.75,108.9219 Q969.6563,109.1406 970.4844,109.5469 L969.6563,111.6406 Q968.9688,111.3125 968.2813,111.0781 Q967.5938,110.8281 966.9375,110.8281 Z " fill="#000000"/><text fill="#000000" font-family="sans-serif" font-size="14" lengthAdjust="spacing" textLength="124" x="981" y="119.8467">FamixJSONExporter</text></g><!--reverse link FamixBaseElement to Entity--><g id="link_FamixBaseElement_Entity"><path d="M1399,59.61 C1399,73.31 1399,88.22 1399,98.96 " fill="none" id="FamixBaseElement-backto-Entity" style="stroke:#181818;stroke-width:1.0;"/><polygon fill="none" points="1392,59.27,1399,39.27,1406,59.27,1392,59.27" style="stroke:#181818;stroke-width:1.0;"/></g><!--reverse link Entity to SourceLanguage--><g id="link_Entity_SourceLanguage"><path d="M1344.72,121.75 C1238.41,133.23 995.36,160.51 792,191 C786.22,191.87 780.23,192.82 774.22,193.81 " fill="none" id="Entity-backto-SourceLanguage" style="stroke:#181818;stroke-width:1.0;"/><polygon fill="none" points="1344.06,114.78,1364.69,119.61,1345.55,128.7,1344.06,114.78" style="stroke:#181818;stroke-width:1.0;"/></g><!--reverse link SourcedEntity to Comment--><g id="link_SourcedEntity_Comment"><path d="M828.02,233.79 C802.78,249.68 771.28,269.5 750.01,282.89 " fill="none" id="SourcedEntity-backto-Comment" style="stroke:#181818;stroke-width:1.0;"/><polygon fill="none" points="824.41,227.79,845.07,223.06,831.87,239.64,824.41,227.79" style="stroke:#181818;stroke-width:1.0;"/></g><!--reverse link Entity to SourceAnchor--><g id="link_Entity_SourceAnchor"><path d="M1345.14,129.14 C1277.3,145.68 1161.04,174.04 1090.29,191.3 " fill="none" id="Entity-backto-SourceAnchor" style="stroke:#181818;stroke-width:1.0;"/><polygon fill="none" points="1343.86,122.24,1364.95,124.31,1347.18,135.85,1343.86,122.24" style="stroke:#181818;stroke-width:1.0;"/></g><!--reverse link Entity to SourcedEntity--><g id="link_Entity_SourcedEntity"><path d="M1345.02,124.83 C1260.96,138.64 1093.71,166.31 952,191 C944.5,192.31 936.62,193.7 928.83,195.1 " fill="none" id="Entity-backto-SourcedEntity" style="stroke:#181818;stroke-width:1.0;"/><polygon fill="none" points="1343.9,117.92,1364.77,121.59,1346.16,131.74,1343.9,117.92" style="stroke:#181818;stroke-width:1.0;"/></g><!--reverse link ContainerEntity to ScopingEntity--><g id="link_ContainerEntity_ScopingEntity"><path d="M462.31,412.96 C408.18,429.47 333.99,452.11 285.54,466.89 " fill="none" id="ContainerEntity-backto-ScopingEntity" style="stroke:#181818;stroke-width:1.0;"/><polygon fill="none" points="460.45,406.2,481.62,407.06,464.54,419.6,460.45,406.2" style="stroke:#181818;stroke-width:1.0;"/></g><!--reverse link ScopingEntity to ScriptEntity--><g id="link_ScopingEntity_ScriptEntity"><path d="M188.44,508.18 C156.69,524.32 115.94,545.05 88.72,558.89 " fill="none" id="ScopingEntity-backto-ScriptEntity" style="stroke:#181818;stroke-width:1.0;"/><polygon fill="none" points="185.37,501.89,206.37,499.06,191.72,514.37,185.37,501.89" style="stroke:#181818;stroke-width:1.0;"/></g><!--reverse link ScriptEntity to Module--><g id="link_ScriptEntity_Module"><path d="M54.32,611.12 C52.47,624.95 50.45,640.09 49.01,650.96 " fill="none" id="ScriptEntity-backto-Module" style="stroke:#181818;stroke-width:1.0;"/><polygon fill="none" points="47.38,610.17,56.96,591.27,61.26,612.02,47.38,610.17" style="stroke:#181818;stroke-width:1.0;"/></g><!--reverse link Entity to ImportClause--><g id="link_Entity_ImportClause"><path d="M1346.34,138.04 C1307.12,154.46 1254.6,176.45 1220.06,190.91 " fill="none" id="Entity-backto-ImportClause" style="stroke:#181818;stroke-width:1.0;"/><polygon fill="none" points="1343.78,131.53,1364.93,130.26,1349.19,144.44,1343.78,131.53" style="stroke:#181818;stroke-width:1.0;"/></g><!--reverse link NamedEntity to Alias--><g id="link_NamedEntity_Alias"><path d="M845.62,332.18 C836.38,346.77 825.9,363.31 818.53,374.96 " fill="none" id="NamedEntity-backto-Alias" style="stroke:#181818;stroke-width:1.0;"/><polygon fill="none" points="839.72,328.42,856.33,315.27,851.54,335.91,839.72,328.42" style="stroke:#181818;stroke-width:1.0;"/></g><!--reverse link NamedEntity to Decorator--><g id="link_NamedEntity_Decorator"><path d="M886.38,332.18 C895.62,346.77 906.1,363.31 913.47,374.96 " fill="none" id="NamedEntity-backto-Decorator" style="stroke:#181818;stroke-width:1.0;"/><polygon fill="none" points="880.46,335.91,875.67,315.27,892.28,328.42,880.46,335.91" style="stroke:#181818;stroke-width:1.0;"/></g><!--reverse link SourcedEntity to NamedEntity--><g id="link_SourcedEntity_NamedEntity"><path d="M867.81,243.61 C867.36,257.31 866.86,272.22 866.5,282.96 " fill="none" id="SourcedEntity-backto-NamedEntity" style="stroke:#181818;stroke-width:1.0;"/><polygon fill="none" points="860.83,243.02,868.49,223.27,874.82,243.49,860.83,243.02" style="stroke:#181818;stroke-width:1.0;"/></g><!--reverse link StructuralEntity to Parameter--><g id="link_StructuralEntity_Parameter"><path d="M1105.7,418.72 C1083.16,434.45 1055.47,453.76 1036.66,466.89 " fill="none" id="StructuralEntity-backto-Parameter" style="stroke:#181818;stroke-width:1.0;"/><polygon fill="none" points="1102,412.77,1122.41,407.06,1110.01,424.25,1102,412.77" style="stroke:#181818;stroke-width:1.0;"/></g><!--reverse link StructuralEntity to Property--><g id="link_StructuralEntity_Property"><path d="M1144,427.61 C1144,441.31 1144,456.22 1144,466.96 " fill="none" id="StructuralEntity-backto-Property" style="stroke:#181818;stroke-width:1.0;"/><polygon fill="none" points="1137,427.27,1144,407.27,1151,427.27,1137,427.27" style="stroke:#181818;stroke-width:1.0;"/></g><!--reverse link Entity to Inheritance--><g id="link_Entity_Inheritance"><path d="M1375.05,147.69 C1363.94,162.4 1351.26,179.18 1342.36,190.96 " fill="none" id="Entity-backto-Inheritance" style="stroke:#181818;stroke-width:1.0;"/><polygon fill="none" points="1369.82,143,1387.46,131.27,1380.99,151.44,1369.82,143" style="stroke:#181818;stroke-width:1.0;"/></g><!--reverse link Type to Class--><g id="link_Type_Class"><path d="M433.47,499.39 C383.73,514.54 305.63,538.34 238,559 C232.38,560.72 226.41,562.54 220.63,564.31 " fill="none" id="Type-backto-Class" style="stroke:#181818;stroke-width:1.0;"/><polygon fill="none" points="431.76,492.59,452.93,493.46,435.84,505.98,431.76,492.59" style="stroke:#181818;stroke-width:1.0;"/></g><!--reverse link BehavioralEntity to Method--><g id="link_BehavioralEntity_Method"><path d="M850.02,519.61 C849.26,533.31 848.43,548.22 847.84,558.96 " fill="none" id="BehavioralEntity-backto-Method" style="stroke:#181818;stroke-width:1.0;"/><polygon fill="none" points="843.05,518.85,851.15,499.27,857.03,519.62,843.05,518.85" style="stroke:#181818;stroke-width:1.0;"/></g><!--reverse link Type to Interface--><g id="link_Type_Interface"><path d="M435.29,507.96 C402.4,524.13 360,544.98 331.73,558.89 " fill="none" id="Type-backto-Interface" style="stroke:#181818;stroke-width:1.0;"/><polygon fill="none" points="432.33,501.61,453.37,499.06,438.51,514.17,432.33,501.61" style="stroke:#181818;stroke-width:1.0;"/></g><!--reverse link Type to PrimitiveType--><g id="link_Type_PrimitiveType"><path d="M468.3,517.64 C461.66,531.86 454.27,547.7 449.02,558.96 " fill="none" id="Type-backto-PrimitiveType" style="stroke:#181818;stroke-width:1.0;"/><polygon fill="none" points="462.07,514.43,476.88,499.27,474.76,520.35,462.07,514.43" style="stroke:#181818;stroke-width:1.0;"/></g><!--reverse link Class to ParametricClass--><g id="link_Class_ParametricClass"><path d="M189,611.61 C189,625.31 189,640.22 189,650.96 " fill="none" id="Class-backto-ParametricClass" style="stroke:#181818;stroke-width:1.0;"/><polygon fill="none" points="182,611.27,189,591.27,196,611.27,182,611.27" style="stroke:#181818;stroke-width:1.0;"/></g><!--reverse link Interface to ParametricInterface--><g id="link_Interface_ParametricInterface"><path d="M325.27,607.21 C336.8,622.03 350.04,639.06 359.3,650.96 " fill="none" id="Interface-backto-ParametricInterface" style="stroke:#181818;stroke-width:1.0;"/><polygon fill="none" points="319.63,611.35,312.87,591.27,330.68,602.76,319.63,611.35" style="stroke:#181818;stroke-width:1.0;"/></g><!--reverse link BehavioralEntity to Function--><g id="link_BehavioralEntity_Function"><path d="M887.03,511.66 C906.73,527.21 930.56,546.02 946.86,558.89 " fill="none" id="BehavioralEntity-backto-Function" style="stroke:#181818;stroke-width:1.0;"/><polygon fill="none" points="882.44,516.95,871.08,499.06,891.12,505.96,882.44,516.95" style="stroke:#181818;stroke-width:1.0;"/></g><!--reverse link Method to Accessor--><g id="link_Method_Accessor"><path d="M797.16,599.73 C763.14,615.94 719.07,636.92 689.74,650.89 " fill="none" id="Method-backto-Accessor" style="stroke:#181818;stroke-width:1.0;"/><polygon fill="none" points="794.3,593.34,815.37,591.06,800.32,605.98,794.3,593.34" style="stroke:#181818;stroke-width:1.0;"/></g><!--reverse link Method to ParametricMethod--><g id="link_Method_ParametricMethod"><path d="M833.73,610.13 C828.25,624.23 822.18,639.83 817.85,650.96 " fill="none" id="Method-backto-ParametricMethod" style="stroke:#181818;stroke-width:1.0;"/><polygon fill="none" points="827.29,607.37,841.06,591.27,840.34,612.44,827.29,607.37" style="stroke:#181818;stroke-width:1.0;"/></g><!--reverse link Function to ParametricFunction--><g id="link_Function_ParametricFunction"><path d="M979.27,610.13 C984.75,624.23 990.82,639.83 995.15,650.96 " fill="none" id="Function-backto-ParametricFunction" style="stroke:#181818;stroke-width:1.0;"/><polygon fill="none" points="972.66,612.44,971.94,591.27,985.71,607.37,972.66,612.44" style="stroke:#181818;stroke-width:1.0;"/></g><!--reverse link BehavioralEntity to ArrowFunction--><g id="link_BehavioralEntity_ArrowFunction"><path d="M913.55,505.72 C960.14,522.17 1022.94,544.33 1064.18,558.89 " fill="none" id="BehavioralEntity-backto-ArrowFunction" style="stroke:#181818;stroke-width:1.0;"/><polygon fill="none" points="911.21,512.32,894.68,499.06,915.87,499.12,911.21,512.32" style="stroke:#181818;stroke-width:1.0;"/></g><!--reverse link ArrowFunction to ParametricArrowFunction--><g id="link_ArrowFunction_ParametricArrowFunction"><path d="M1140.06,604.34 C1158.08,619.79 1179.66,638.28 1194.45,650.96 " fill="none" id="ArrowFunction-backto-ParametricArrowFunction" style="stroke:#181818;stroke-width:1.0;"/><polygon fill="none" points="1135.44,609.6,1124.81,591.27,1144.55,598.97,1135.44,609.6" style="stroke:#181818;stroke-width:1.0;"/></g><!--reverse link Type to ParameterType--><g id="link_Type_ParameterType"><path d="M519.95,511.19 C540.63,526.83 565.84,545.89 583.02,558.89 " fill="none" id="Type-backto-ParameterType" style="stroke:#181818;stroke-width:1.0;"/><polygon fill="none" points="515.65,516.71,503.92,499.06,524.09,505.55,515.65,516.71" style="stroke:#181818;stroke-width:1.0;"/></g><!--reverse link ContainerEntity to BehavioralEntity--><g id="link_ContainerEntity_BehavioralEntity"><path d="M604.22,412.53 C663.35,429.11 745.2,452.06 798.36,466.96 " fill="none" id="ContainerEntity-backto-BehavioralEntity" style="stroke:#181818;stroke-width:1.0;"/><polygon fill="none" points="602.1,419.2,584.73,407.06,605.88,405.72,602.1,419.2" style="stroke:#181818;stroke-width:1.0;"/></g><!--reverse link Entity to Invocation--><g id="link_Entity_Invocation"><path d="M1422.93,147.21 C1434.29,162.03 1447.34,179.06 1456.47,190.96 " fill="none" id="Entity-backto-Invocation" style="stroke:#181818;stroke-width:1.0;"/><polygon fill="none" points="1417.32,151.4,1410.7,131.27,1428.43,142.88,1417.32,151.4" style="stroke:#181818;stroke-width:1.0;"/></g><!--reverse link Entity to Reference--><g id="link_Entity_Reference"><path d="M1451.25,139.28 C1487.75,155.54 1535.43,176.79 1567.08,190.89 " fill="none" id="Entity-backto-Reference" style="stroke:#181818;stroke-width:1.0;"/><polygon fill="none" points="1448.23,145.6,1432.81,131.06,1453.93,132.81,1448.23,145.6" style="stroke:#181818;stroke-width:1.0;"/></g><!--reverse link StructuralEntity to Variable--><g id="link_StructuralEntity_Variable"><path d="M1180.55,419.19 C1201.58,434.83 1227.21,453.89 1244.68,466.89 " fill="none" id="StructuralEntity-backto-Variable" style="stroke:#181818;stroke-width:1.0;"/><polygon fill="none" points="1176.12,424.62,1164.25,407.06,1184.48,413.38,1176.12,424.62" style="stroke:#181818;stroke-width:1.0;"/></g><!--reverse link NamedEntity to ContainerEntity--><g id="link_NamedEntity_ContainerEntity"><path d="M790.39,320.31 C728.62,336.91 642.7,359.99 586.97,374.96 " fill="none" id="NamedEntity-backto-ContainerEntity" style="stroke:#181818;stroke-width:1.0;"/><polygon fill="none" points="788.8,313.49,809.93,315.06,792.43,327.01,788.8,313.49" style="stroke:#181818;stroke-width:1.0;"/></g><!--reverse link ContainerEntity to Type--><g id="link_ContainerEntity_Type"><path d="M513.69,425.15 C506.2,439.5 497.8,455.57 491.86,466.96 " fill="none" id="ContainerEntity-backto-Type" style="stroke:#181818;stroke-width:1.0;"/><polygon fill="none" points="507.56,421.76,523.03,407.27,519.97,428.24,507.56,421.76" style="stroke:#181818;stroke-width:1.0;"/></g><!--reverse link NamedEntity to StructuralEntity--><g id="link_NamedEntity_StructuralEntity"><path d="M931.74,321.28 C982.67,337.77 1051.96,360.2 1097.32,374.89 " fill="none" id="NamedEntity-backto-StructuralEntity" style="stroke:#181818;stroke-width:1.0;"/><polygon fill="none" points="929.4,327.88,912.53,315.06,933.71,314.56,929.4,327.88" style="stroke:#181818;stroke-width:1.0;"/></g><!--reverse link Entity to Access--><g id="link_Entity_Access"><path d="M1452.8,131.04 C1518.41,149.38 1627.53,179.88 1684.24,195.73 " fill="none" id="Entity-backto-Access" style="stroke:#181818;stroke-width:1.0;"/><polygon fill="none" points="1450.53,137.67,1433.15,125.55,1454.3,124.19,1450.53,137.67" style="stroke:#181818;stroke-width:1.0;"/></g><!--reverse link Entity to Concretisation--><g id="link_Entity_Concretisation"><path d="M1453.03,126.69 C1538.14,143.52 1702.96,176.12 1792.5,193.83 " fill="none" id="Entity-backto-Concretisation" style="stroke:#181818;stroke-width:1.0;"/><polygon fill="none" points="1451.46,133.51,1433.2,122.76,1454.18,119.78,1451.46,133.51" style="stroke:#181818;stroke-width:1.0;"/></g><!--reverse link Type to Enum--><g id="link_Type_Enum"><path d="M534.08,501.81 C584.04,519.59 659.46,546.42 702.9,561.87 " fill="none" id="Type-backto-Enum" style="stroke:#181818;stroke-width:1.0;"/><polygon fill="none" points="531.52,508.33,515.02,495.04,536.21,495.14,531.52,508.33" style="stroke:#181818;stroke-width:1.0;"/></g><!--reverse link StructuralEntity to EnumValue--><g id="link_StructuralEntity_EnumValue"><path d="M1204.95,413.94 C1250.57,430.36 1311.77,452.4 1352.02,466.89 " fill="none" id="StructuralEntity-backto-EnumValue" style="stroke:#181818;stroke-width:1.0;"/><polygon fill="none" points="1202.29,420.42,1185.84,407.06,1207.03,407.25,1202.29,420.42" style="stroke:#181818;stroke-width:1.0;"/></g><!--reverse link Variable to ImplicitVariable--><g id="link_Variable_ImplicitVariable"><path d="M1267.37,519.61 C1268.29,533.31 1269.28,548.22 1270,558.96 " fill="none" id="Variable-backto-ImplicitVariable" style="stroke:#181818;stroke-width:1.0;"/><polygon fill="none" points="1260.36,519.69,1266.02,499.27,1274.33,518.76,1260.36,519.69" style="stroke:#181818;stroke-width:1.0;"/></g><!--reverse link SourceAnchor to IndexedFileAnchor--><g id="link_SourceAnchor_IndexedFileAnchor"><path d="M1031.58,243.61 C1032.19,257.31 1032.85,272.22 1033.33,282.96 " fill="none" id="SourceAnchor-backto-IndexedFileAnchor" style="stroke:#181818;stroke-width:1.0;"/><polygon fill="none" points="1024.57,243.56,1030.68,223.27,1038.56,242.94,1024.57,243.56" style="stroke:#181818;stroke-width:1.0;"/></g><!--reverse link SourceAnchor to TextAnchor--><g id="link_SourceAnchor_TextAnchor"><path d="M1075.72,232.64 C1105.55,248.71 1143.52,269.18 1168.96,282.89 " fill="none" id="SourceAnchor-backto-TextAnchor" style="stroke:#181818;stroke-width:1.0;"/><polygon fill="none" points="1072.24,238.71,1057.95,223.06,1078.88,226.39,1072.24,238.71" style="stroke:#181818;stroke-width:1.0;"/></g><!--reverse link Entity to ParameterConcretisation--><g id="link_Entity_ParameterConcretisation"><path d="M1453.35,123.56 C1563.17,138.84 1812.72,173.55 1950.39,192.7 " fill="none" id="Entity-backto-ParameterConcretisation" style="stroke:#181818;stroke-width:1.0;"/><polygon fill="none" points="1452.17,130.46,1433.33,120.78,1454.1,116.6,1452.17,130.46" style="stroke:#181818;stroke-width:1.0;"/></g><!--SRC=[xHrTSzmsxZs_GWzzKAPsvvxLZZiRs-cuRMnVraqVRcuyMebhwwgLzaIjwvqu__tuJO84kNAJtRPpxaEw8a0014a013zytzGaMv7LWWpqLTMMb6RdtTYCsumyZgIhQVQsN3MFRqfApbko8jsOVNoLiV- -lYFZZ_Eho_nraT5nQBexMLpMzVNGhyamDeJUzEUFwtuOoP0JzQEG17bL3MCK7lgcVlL92J3lDqD5VYwxkqrvHumWIYx9_fWAf5eKCav5DYVZTtEdS7iY1UhA5O4YCiddi3PlHAm-Qn0epbtEso83GDsKFMlej5-9hj2g0J9e3JNqn_bPNnNPekzRKdP6g0i9u7814BKWlwxRhkEgxyQowRYaWB5XSAeHX5v35EgYnAW5B5c3WtuybUM-Ygc5U3KFr46o9REkkk-7o00cSZh5TAXcMro36W6dSz1srfx9yCVXVDmii678o_5HA21UHJ0WgAFW0gZRc-EoqAhHHQ8UKfoeDnZ5x5CsHyt54sTCIh0sAX21ALqLv8fEeQSpO58Jfk61rD0O5fvnD4pFK7JRR5Y1HYjCOtkeqLNrQqRF6rt6TC1XLjqtRVskhpUjzWRomtQC0kf-0M0chVpE7Jf59lz_iEOEpNhqMWjreDhQRRZ3lbh-pDH0hvOt3Bd8PA4HyZB4uJAxM1J7Ib07GrJZdTwNGrcn1j6e41Ob8OE352TzeBwG7U_qWjCrAW3wgg6prQ8HCnXOi1ZWE57XaaKfT5rMP3BeE5b93-0fvSUHuZKp1Dt81o0t0EuuDDg_jYXYMeL852B5QOAXrM_6kvw1BbQyUzHybX-dRRcXpgo-WgXwTYF8R5X0vBnna8hChNAWOUQoZBbFWMBKf6sITQCGpeLqCMY88Ibo-KBpfjZPy9QFCJyskG0ud6E0HGEi164Wm4h8D5-JgbasN4Wlv7i7uKZevsD4A1weYsTjKrBJjqwhTGVBAP7IzxM34TCsm8cI19ekkMIsGswsQpkgPYwCyxHGwaCHEWVIBGjY-g4SdHWRqM-jaHYLWL3Qz5qmgCv276HWOLW9wduyn_7I4-iC8iNwsaTBqJvGJxXwJwvAbvkstVvpmyOCculr9ROuVnkW87s18CL9WvuOI4MQ1r9VT0zzLOwimxH_CGNMkxmFaOs7yT6P6aFqF6J7F8tv3MrlnvO4qxpU1KHDUps8d9UT_17tUCTeqYJI4wAuYsbR6WVL5c4tJZmZOuHteKngyIcDIo6jA3QX-a7HDfFp99pLXeMFnDYO8ZkL2sjO3ZHzcFLc2cG0Etd6OLEDcw5iKzxY3Ral7vhUO4LT1ewOzXj-dKFfGjRVxbH5GqzvXNbJ-u7kGChwgcktaugFRoFe8aTXME292Wl6f0435YfN86TFp1Gm5InP31_jkWXckk-2Ig3pleghBW5gw1bPDbqpadOxOvxkhYFr7q6vMdFBLxRJ0J-M3wLSWbqFpGFpTC_5EBxTBHd7mINWa5qYF3IqMJIjKFu7yvl7GdGQml7jJX9xN8TqzsHenhAhelds3MCWa5DZTswmqYFNmKiIXZc_pMA208j9x1UQ-M8AwtscyiM_MkUyiwrvcoqOix8QCRkaORXPCb2423HAHdpf8BNnjKxKDb0xKG_7Ae4P8VMZC5OShkt8UD_NEZqdFfpqd0IQz9mBvkavyPrB4cpfAlxlZG_6qHd99gmp9ITmeBguDghpiVa6a8UT-wmATmRvWtQoI8jd2BI0uYoc2BFFV9de3ZEE_T01Zrx-J1zu_5lJrK68-nChH49SKUnMW67x8IPgt2r_uJ2beRY34smK26UYWI45dy5cqJRengI4HCXBM50zaBuVIJK6SOUINm5ZBT1WZCwXSe9wkA9UuSLWlnZiBxFAQbRDs3mGCRYGaRR_rUxGL33waLzgeD-HZgcaCYjZFTxrDnVLziKFFhOP-mW-QuAFd_liYWpK1BrICMime1p1YOLgOEM-_85JOhz1NxWRoJu9iwKyaOZORFQ8v85aYAVqwHqs3SBK6Xf1M_8oGFvl1yZRJLVn5VgkG7EV-paLi_NKsN9GeUy1hQONR0C1NiRLv-as666cu4M_dp5fXg7__IymUMq_unB1qfSU_m8x6h7uKkK2b9VKwmCkhHSTFg5XmLDe3v-iRNwI0fgUVC9c-9FNtK-nuU6b9PJ8ugJ5NrrewWlzzz4wY9OM9HMZrpkcy4OL1oSK301MX5kJmzt6ESW9P-nC0_L4XNDHWtDDvA3d7WB3kUDi9D_kACVDW1o4rn0awsLXGNr_OmkFm4_SYHCBkvsaXB5hQoJ8HeyUkYOvSlGGieuSFNIGugJnlVeffmWkGkJKAO8GFG_PHKyHw2Eyo7GvSq31b070a0ZWyVTUU-qrUQVx9BAFLfLTtTJbg3DB_bHsOWQ3gTKLmUMXWSRD3Vtq_hq-1JFW1v7KEPOXTWB9m54oC9_6b2024sYQh0KIS97anp2emOWGWipsQUZsE6pUaoLXVhbAttPAA570aqgK6152G8aZysbaz4p7ZIWCZ8OgTgiSI6KVog4f5-uPxUI96Q_1SLLUO-WfpU8Lfd4zs7qn61RiF8twrzUMlE_1Qa4Sio_YLNNCQgoUlQ-3rUH6bjVq9Q-GmXs2RwksNp4VKPtsgtLB7aKDBtevHP2G-0L5Ip50ewZvoFo5YeGZKPH5IKHH3bASD7hEtzW_rNlcEppdRr5rX_d8pZb_0ye3JeKrkgXIrEsNqvvlbARlrd2StNTh15Q2Edu1OafuUHKYfyBB43qFsKN3orAizio9Jl7bB9iKr9pfTE5ytII-SqcaK4j7T5wBSq_Ooam0y5MP25q5WKZSgedhDQPY09Qjli4mk9fd79k9eCkb6Fgho91AGB87vSwKHDgxMJ5qYH73Gs6yTKckYHN6Inx8qO1aJ-oYdhtm6_Cgu09np9EWLuYJSGqJRfOuZdnZuP4ZoGOZDxImeybKHIA4_jgCzsTWAIMkcNkHYhEb7ArfhgZZTVaMiwuRLAKnI144JJ3f0XSGJQmzyJNCcvqKTgzjV4X0OR43OSTAI2-j9_YWYm0ruOC2v3pW5F51-xnZwWV9YL1GYpjBMlmB3ojc-I5U3ecZdk00YOozxnD6rdEbIfd6JQ1EggOieC69aaDTJ3Zh0oSZEX55eWvIdA1t9klNeS7Fama0VXPBWlowXrimyOsLXgPIEIehfMF-pyYWXsboFtTc5rPxO4DzDlji6Ne8OhywF0LSzgT4ZyzU6tUWYN3ErYRexjr3sMwqI-187_Yt6wroiFO5FeA8LTbdBgWKcO4Vi5M2tpElM_5wqJFA5fW-bipn3dUzl6sgPWnoPQRWu_uJuZLv9FNRflMVmm5lvEWyvrWEutKVvY7c2e0iimt8hmmi3ME9qJqNnGXL1O3L0CKbQn9-VrK1i5kh6kHNFjJwZ2d_fHl-z6um-rBFYJDYkr_HRJR7qRcO5C747NwuktQCd3W1fqlY9rw4D24gnL1tSS54KZgqwL-dC3Y8ev6Td6-8Re_SgF8SiYgyC77lWwSnGSASb4DrRxStjHsdedms3ELMy_tNloL8Rj6W835ZlpTpxnDu2F2i4V56EPZZMKikuNkoLhAoNprjndxOgWcvUXGfaNSbms3_V2UP7KdiRvoK2aSLeL04LOT9yiiBdom94pj5oBYnbK_Am2mv-Nn8X9RxQ1H7vfOaYMfukay8sVfyD4VgYsZBarWTfpAbuK4n8PIA4MUTkeGHar27bxvMF81pLiV7r235_9VBdowlVhsy_J3x-PTpEFAPNEh9kgl5VqWr6faaIQcOe-nc_guVrlSI1sPtmLjjZ5oXDUk-Ct6KTIAd7j1vNPZXu4Kaai6g_8q8106tKBLbUgwVsGi87sLYGXW4H2XuG64WvKYkXX-O7n99OSOgN-edrlZNKHQyo6IaJumgdBnwrcobN_kHsH5ji5oYRdrHhbvWa6aJyO5L5W2SjvYeUTNg-xLOzUGanycQIPiBYrZOmuuOWqdJFoA_Ni6PjnOBNCuKwTtpAvnEHnbfdRQ4wdDFUC9YIHkMQR9EwL6cdUpC7eChk-th0xKm66o9AscmCRhKdDgm8Yj8P29Wzz4WQTRVCbVU3vXI3KTMyeDDlq7KEGfWwjuCOe_xjCWstMzT_xip_IRQOKqtOaVqpjEI_IYmFdT6WdsjA2dP1CiVTYGynkT4azZiDC0u7P777TVI34qZPkFBs9GMH9M0_FSbynhVZVGR_ViaOg2YWpxbceEs9NRgi7PfM427vnBOucYpSfCB60MRdF1gopmC9_5El08jISZVeBP0n7MQVaBdA0lUfqAi6JOTiRvs300iVUQ4D6qpSWRgYRtJ-hxixhZNNpsgTmmb8MS7XJlmu05bDPea3LoHSgJp4UYiIRal8FQ8CTQ6vuQAeQUNcp8oTBge6JFnL1vhHuq-lEbKTKuHXDLNpxIpKutM7p70KvfYR-YYGKl4wpBQtVsfyux894TjMyCtB4M8fJrnL43dlQxWGKLi5FflHxhX7c3Ij_Lfae_ykEYMVP5zL8ITzdol7nFpcYxApl-xALjNATzc-WrA6_Iw0V2tcVTc8o-yBiTxFISq0HDqIqO6dxCsmv0XqujEBgUfcP6yz8mioqqxIf03-HJh07118I_vb_lkd_tDNOdzEaawMVy-XEzfaMiTm4hvAGhOsNkFLE_8OJawfjHjUJn-a7WqciN1g8KXnGvk42mQVZMOTeg1MRPQ0cFG9rgBs724J5LMxuBPrf9rY6fiPF4rWPvME2HeP9-uq9Z6oxGwlMISG8aRKYbnrNm9RVVT0misRlhtf2sv_-HcA2yNj6yt8x19HvbRoe8KdY1m4iig6MAkCiFScVTd0To3QSuVtz0v7hEu9kvTH1Tg6cRE3Ng9BfiRG9vBL-3OwnyI_25rP4sYJ3rdfx0RJnZkpSEqMLEVzXkvy7Ts2uwnFZ4fiSz9FV4DWv12_eUf-dbYZFZhvmZ8yxfEuv4D3m1UEmeAP97h0ixlpVQYpa7Gv8z6lDPpNsR5gSg4EBzUzmyUS2pxOLMErlr_yjfuAvuJRVsptFZyyR5r_9MFz-gke15k1n4dovLievFCCjLi5YjPrKjHcUegdP6iAt6yYawUO5UlmAdgqJ5hs2GTk7IrqikiP5fw9olfLSJ_Y8DjOZEDjcTV42eU8zGWVNqhSqhYEVuPPTXlXtwb7Hdxr-FDoSaFM5-U6PXAmPd_j_nTIsOkU2Kc9sdva-SyLscRoso9dCP7EloqUVNWBydu0tx7nXPyp9uCpbDLqWKgNmXtZxYmt1nHOO-etPDw7TbNOkJugivCSKDUPYsjX2u7TUs9x_DsO4sjBqB10U_nXC9AVhdVBAJkfrUbUimjSvmzyaUqh7cLtnzrlK_P7XzHyH62Fqc4ckJZnMQv98FQGMHAbwKgUKkMpMDCqcqETSyplEuoA3cu_WS0]--></g></svg>