<?xml version="1.0" encoding="us-ascii" standalone="no"?><svg xmlns="http://www.w3.org/2000/svg" xmlns:xlink="http://www.w3.org/1999/xlink" contentStyleType="text/css" height="690px" preserveAspectRatio="none" style="width:2124px;height:690px;background:#FFFFFF;" version="1.1" viewBox="0 0 2124 690" width="2124px" zoomAndPan="magnify"><defs/><g><!--class Entity--><g id="elem_Entity"><rect codeLine="1" fill="#F1F1F1" height="32" id="Entity" rx="2.5" ry="2.5" style="stroke:#181818;stroke-width:0.5;" width="68" x="1341" y="99"/><ellipse cx="1356" cy="115" fill="#ADD1B2" rx="11" ry="11" style="stroke:#181818;stroke-width:1.0;"/><path d="M1355.9375,110.8281 Q1355.1875,110.8281 1354.625,111.125 Q1354.0625,111.4063 1353.6719,111.9375 Q1353.2813,112.4688 1353.0781,113.25 Q1352.8906,114.0156 1352.8906,114.9688 Q1352.8906,115.9375 1353.0625,116.7031 Q1353.25,117.4531 1353.6094,117.9688 Q1353.9844,118.4844 1354.5625,118.7656 Q1355.1406,119.0313 1355.9375,119.0313 Q1356.6719,119.0313 1357.4063,118.8594 Q1358.1563,118.6875 1359.0313,118.3906 L1359.0313,120.5469 Q1358.625,120.7031 1358.2344,120.8281 Q1357.8438,120.9375 1357.4375,121.0156 Q1357.0313,121.0938 1356.6094,121.125 Q1356.1875,121.1719 1355.6875,121.1719 Q1354.2813,121.1719 1353.25,120.7188 Q1352.2344,120.2656 1351.5625,119.4531 Q1350.8906,118.6406 1350.5625,117.5 Q1350.2344,116.3438 1350.2344,114.9531 Q1350.2344,113.5781 1350.6094,112.4219 Q1350.9844,111.2656 1351.7031,110.4375 Q1352.4219,109.6094 1353.4844,109.1563 Q1354.5469,108.6875 1355.9375,108.6875 Q1356.8438,108.6875 1357.75,108.9219 Q1358.6563,109.1406 1359.4844,109.5469 L1358.6563,111.6406 Q1357.9688,111.3125 1357.2813,111.0781 Q1356.5938,110.8281 1355.9375,110.8281 Z " fill="#000000"/><text fill="#000000" font-family="sans-serif" font-size="14" lengthAdjust="spacing" textLength="36" x="1370" y="119.8467">Entity</text></g><!--class FamixBaseElement--><g id="elem_FamixBaseElement"><rect codeLine="595" fill="#F1F1F1" height="32" id="FamixBaseElement" rx="2.5" ry="2.5" style="stroke:#181818;stroke-width:0.5;" width="153" x="1298.5" y="7"/><ellipse cx="1313.5" cy="23" fill="#A9DCDF" rx="11" ry="11" style="stroke:#181818;stroke-width:1.0;"/><path d="M1316.4531,28 L1315.625,25.1094 L1311.4375,25.1094 L1310.5938,28 L1308,28 L1311.9375,15.8125 L1315.0938,15.8125 L1319.0469,28 L1316.4531,28 Z M1315.0156,22.9531 L1314.25,20.2969 Q1314.1875,20.1406 1314.0938,19.8125 Q1314,19.4688 1313.875,19.0625 Q1313.7656,18.6406 1313.6563,18.2344 Q1313.5625,17.8125 1313.5313,17.5313 Q1313.5,17.7031 1313.4375,17.9531 Q1313.3906,18.2031 1313.3125,18.4844 Q1313.25,18.7656 1313.1719,19.0469 Q1313.0938,19.3281 1313.0313,19.5781 Q1312.9688,19.8281 1312.9063,20.0156 Q1312.8594,20.2031 1312.8281,20.2969 L1312.0625,22.9531 L1315.0156,22.9531 Z " fill="#000000"/><text fill="#000000" font-family="sans-serif" font-size="14" font-style="italic" lengthAdjust="spacing" textLength="121" x="1327.5" y="27.8467">FamixBaseElement</text></g><!--class SourceLanguage--><g id="elem_SourceLanguage"><rect codeLine="5" fill="#F1F1F1" height="32" id="SourceLanguage" rx="2.5" ry="2.5" style="stroke:#181818;stroke-width:0.5;" width="134" x="622" y="191"/><ellipse cx="637" cy="207" fill="#ADD1B2" rx="11" ry="11" style="stroke:#181818;stroke-width:1.0;"/><path d="M636.9375,202.8281 Q636.1875,202.8281 635.625,203.125 Q635.0625,203.4063 634.6719,203.9375 Q634.2813,204.4688 634.0781,205.25 Q633.8906,206.0156 633.8906,206.9688 Q633.8906,207.9375 634.0625,208.7031 Q634.25,209.4531 634.6094,209.9688 Q634.9844,210.4844 635.5625,210.7656 Q636.1406,211.0313 636.9375,211.0313 Q637.6719,211.0313 638.4063,210.8594 Q639.1563,210.6875 640.0313,210.3906 L640.0313,212.5469 Q639.625,212.7031 639.2344,212.8281 Q638.8438,212.9375 638.4375,213.0156 Q638.0313,213.0938 637.6094,213.125 Q637.1875,213.1719 636.6875,213.1719 Q635.2813,213.1719 634.25,212.7188 Q633.2344,212.2656 632.5625,211.4531 Q631.8906,210.6406 631.5625,209.5 Q631.2344,208.3438 631.2344,206.9531 Q631.2344,205.5781 631.6094,204.4219 Q631.9844,203.2656 632.7031,202.4375 Q633.4219,201.6094 634.4844,201.1563 Q635.5469,200.6875 636.9375,200.6875 Q637.8438,200.6875 638.75,200.9219 Q639.6563,201.1406 640.4844,201.5469 L639.6563,203.6406 Q638.9688,203.3125 638.2813,203.0781 Q637.5938,202.8281 636.9375,202.8281 Z " fill="#000000"/><text fill="#000000" font-family="sans-serif" font-size="14" lengthAdjust="spacing" textLength="102" x="651" y="211.8467">SourceLanguage</text></g><!--class Comment--><g id="elem_Comment"><rect codeLine="13" fill="#F1F1F1" height="32" id="Comment" rx="2.5" ry="2.5" style="stroke:#181818;stroke-width:0.5;" width="95" x="663.5" y="283"/><ellipse cx="678.5" cy="299" fill="#ADD1B2" rx="11" ry="11" style="stroke:#181818;stroke-width:1.0;"/><path d="M678.4375,294.8281 Q677.6875,294.8281 677.125,295.125 Q676.5625,295.4063 676.1719,295.9375 Q675.7813,296.4688 675.5781,297.25 Q675.3906,298.0156 675.3906,298.9688 Q675.3906,299.9375 675.5625,300.7031 Q675.75,301.4531 676.1094,301.9688 Q676.4844,302.4844 677.0625,302.7656 Q677.6406,303.0313 678.4375,303.0313 Q679.1719,303.0313 679.9063,302.8594 Q680.6563,302.6875 681.5313,302.3906 L681.5313,304.5469 Q681.125,304.7031 680.7344,304.8281 Q680.3438,304.9375 679.9375,305.0156 Q679.5313,305.0938 679.1094,305.125 Q678.6875,305.1719 678.1875,305.1719 Q676.7813,305.1719 675.75,304.7188 Q674.7344,304.2656 674.0625,303.4531 Q673.3906,302.6406 673.0625,301.5 Q672.7344,300.3438 672.7344,298.9531 Q672.7344,297.5781 673.1094,296.4219 Q673.4844,295.2656 674.2031,294.4375 Q674.9219,293.6094 675.9844,293.1563 Q677.0469,292.6875 678.4375,292.6875 Q679.3438,292.6875 680.25,292.9219 Q681.1563,293.1406 681.9844,293.5469 L681.1563,295.6406 Q680.4688,295.3125 679.7813,295.0781 Q679.0938,294.8281 678.4375,294.8281 Z " fill="#000000"/><text fill="#000000" font-family="sans-serif" font-size="14" lengthAdjust="spacing" textLength="63" x="692.5" y="303.8467">Comment</text></g><!--class SourcedEntity--><g id="elem_SourcedEntity"><rect codeLine="33" fill="#F1F1F1" height="32" id="SourcedEntity" rx="2.5" ry="2.5" style="stroke:#181818;stroke-width:0.5;" width="119" x="791.5" y="191"/><ellipse cx="806.5" cy="207" fill="#ADD1B2" rx="11" ry="11" style="stroke:#181818;stroke-width:1.0;"/><path d="M806.4375,202.8281 Q805.6875,202.8281 805.125,203.125 Q804.5625,203.4063 804.1719,203.9375 Q803.7813,204.4688 803.5781,205.25 Q803.3906,206.0156 803.3906,206.9688 Q803.3906,207.9375 803.5625,208.7031 Q803.75,209.4531 804.1094,209.9688 Q804.4844,210.4844 805.0625,210.7656 Q805.6406,211.0313 806.4375,211.0313 Q807.1719,211.0313 807.9063,210.8594 Q808.6563,210.6875 809.5313,210.3906 L809.5313,212.5469 Q809.125,212.7031 808.7344,212.8281 Q808.3438,212.9375 807.9375,213.0156 Q807.5313,213.0938 807.1094,213.125 Q806.6875,213.1719 806.1875,213.1719 Q804.7813,213.1719 803.75,212.7188 Q802.7344,212.2656 802.0625,211.4531 Q801.3906,210.6406 801.0625,209.5 Q800.7344,208.3438 800.7344,206.9531 Q800.7344,205.5781 801.1094,204.4219 Q801.4844,203.2656 802.2031,202.4375 Q802.9219,201.6094 803.9844,201.1563 Q805.0469,200.6875 806.4375,200.6875 Q807.3438,200.6875 808.25,200.9219 Q809.1563,201.1406 809.9844,201.5469 L809.1563,203.6406 Q808.4688,203.3125 807.7813,203.0781 Q807.0938,202.8281 806.4375,202.8281 Z " fill="#000000"/><text fill="#000000" font-family="sans-serif" font-size="14" lengthAdjust="spacing" textLength="87" x="820.5" y="211.8467">SourcedEntity</text></g><!--class SourceAnchor--><g id="elem_SourceAnchor"><rect codeLine="26" fill="#F1F1F1" height="32" id="SourceAnchor" rx="2.5" ry="2.5" style="stroke:#181818;stroke-width:0.5;" width="120" x="946" y="191"/><ellipse cx="961" cy="207" fill="#ADD1B2" rx="11" ry="11" style="stroke:#181818;stroke-width:1.0;"/><path d="M960.9375,202.8281 Q960.1875,202.8281 959.625,203.125 Q959.0625,203.4063 958.6719,203.9375 Q958.2813,204.4688 958.0781,205.25 Q957.8906,206.0156 957.8906,206.9688 Q957.8906,207.9375 958.0625,208.7031 Q958.25,209.4531 958.6094,209.9688 Q958.9844,210.4844 959.5625,210.7656 Q960.1406,211.0313 960.9375,211.0313 Q961.6719,211.0313 962.4063,210.8594 Q963.1563,210.6875 964.0313,210.3906 L964.0313,212.5469 Q963.625,212.7031 963.2344,212.8281 Q962.8438,212.9375 962.4375,213.0156 Q962.0313,213.0938 961.6094,213.125 Q961.1875,213.1719 960.6875,213.1719 Q959.2813,213.1719 958.25,212.7188 Q957.2344,212.2656 956.5625,211.4531 Q955.8906,210.6406 955.5625,209.5 Q955.2344,208.3438 955.2344,206.9531 Q955.2344,205.5781 955.6094,204.4219 Q955.9844,203.2656 956.7031,202.4375 Q957.4219,201.6094 958.4844,201.1563 Q959.5469,200.6875 960.9375,200.6875 Q961.8438,200.6875 962.75,200.9219 Q963.6563,201.1406 964.4844,201.5469 L963.6563,203.6406 Q962.9688,203.3125 962.2813,203.0781 Q961.5938,202.8281 960.9375,202.8281 Z " fill="#000000"/><text fill="#000000" font-family="sans-serif" font-size="14" lengthAdjust="spacing" textLength="88" x="975" y="211.8467">SourceAnchor</text></g><!--class ScopingEntity--><g id="elem_ScopingEntity"><rect codeLine="49" fill="#F1F1F1" height="32" id="ScopingEntity" rx="2.5" ry="2.5" style="stroke:#181818;stroke-width:0.5;" width="116" x="173" y="467"/><ellipse cx="188" cy="483" fill="#ADD1B2" rx="11" ry="11" style="stroke:#181818;stroke-width:1.0;"/><path d="M187.9375,478.8281 Q187.1875,478.8281 186.625,479.125 Q186.0625,479.4063 185.6719,479.9375 Q185.2813,480.4688 185.0781,481.25 Q184.8906,482.0156 184.8906,482.9688 Q184.8906,483.9375 185.0625,484.7031 Q185.25,485.4531 185.6094,485.9688 Q185.9844,486.4844 186.5625,486.7656 Q187.1406,487.0313 187.9375,487.0313 Q188.6719,487.0313 189.4063,486.8594 Q190.1563,486.6875 191.0313,486.3906 L191.0313,488.5469 Q190.625,488.7031 190.2344,488.8281 Q189.8438,488.9375 189.4375,489.0156 Q189.0313,489.0938 188.6094,489.125 Q188.1875,489.1719 187.6875,489.1719 Q186.2813,489.1719 185.25,488.7188 Q184.2344,488.2656 183.5625,487.4531 Q182.8906,486.6406 182.5625,485.5 Q182.2344,484.3438 182.2344,482.9531 Q182.2344,481.5781 182.6094,480.4219 Q182.9844,479.2656 183.7031,478.4375 Q184.4219,477.6094 185.4844,477.1563 Q186.5469,476.6875 187.9375,476.6875 Q188.8438,476.6875 189.75,476.9219 Q190.6563,477.1406 191.4844,477.5469 L190.6563,479.6406 Q189.9688,479.3125 189.2813,479.0781 Q188.5938,478.8281 187.9375,478.8281 Z " fill="#000000"/><text fill="#000000" font-family="sans-serif" font-size="14" lengthAdjust="spacing" textLength="84" x="202" y="487.8467">ScopingEntity</text></g><!--class ContainerEntity--><g id="elem_ContainerEntity"><rect codeLine="372" fill="#F1F1F1" height="32" id="ContainerEntity" rx="2.5" ry="2.5" style="stroke:#181818;stroke-width:0.5;" width="130" x="451" y="375"/><ellipse cx="466" cy="391" fill="#ADD1B2" rx="11" ry="11" style="stroke:#181818;stroke-width:1.0;"/><path d="M465.9375,386.8281 Q465.1875,386.8281 464.625,387.125 Q464.0625,387.4063 463.6719,387.9375 Q463.2813,388.4688 463.0781,389.25 Q462.8906,390.0156 462.8906,390.9688 Q462.8906,391.9375 463.0625,392.7031 Q463.25,393.4531 463.6094,393.9688 Q463.9844,394.4844 464.5625,394.7656 Q465.1406,395.0313 465.9375,395.0313 Q466.6719,395.0313 467.4063,394.8594 Q468.1563,394.6875 469.0313,394.3906 L469.0313,396.5469 Q468.625,396.7031 468.2344,396.8281 Q467.8438,396.9375 467.4375,397.0156 Q467.0313,397.0938 466.6094,397.125 Q466.1875,397.1719 465.6875,397.1719 Q464.2813,397.1719 463.25,396.7188 Q462.2344,396.2656 461.5625,395.4531 Q460.8906,394.6406 460.5625,393.5 Q460.2344,392.3438 460.2344,390.9531 Q460.2344,389.5781 460.6094,388.4219 Q460.9844,387.2656 461.7031,386.4375 Q462.4219,385.6094 463.4844,385.1563 Q464.5469,384.6875 465.9375,384.6875 Q466.8438,384.6875 467.75,384.9219 Q468.6563,385.1406 469.4844,385.5469 L468.6563,387.6406 Q467.9688,387.3125 467.2813,387.0781 Q466.5938,386.8281 465.9375,386.8281 Z " fill="#000000"/><text fill="#000000" font-family="sans-serif" font-size="14" lengthAdjust="spacing" textLength="98" x="480" y="395.8467">ContainerEntity</text></g><!--class ScriptEntity--><g id="elem_ScriptEntity"><rect codeLine="56" fill="#F1F1F1" height="32" id="ScriptEntity" rx="2.5" ry="2.5" style="stroke:#181818;stroke-width:0.5;" width="104" x="7" y="559"/><ellipse cx="22" cy="575" fill="#ADD1B2" rx="11" ry="11" style="stroke:#181818;stroke-width:1.0;"/><path d="M21.9375,570.8281 Q21.1875,570.8281 20.625,571.125 Q20.0625,571.4063 19.6719,571.9375 Q19.2813,572.4688 19.0781,573.25 Q18.8906,574.0156 18.8906,574.9688 Q18.8906,575.9375 19.0625,576.7031 Q19.25,577.4531 19.6094,577.9688 Q19.9844,578.4844 20.5625,578.7656 Q21.1406,579.0313 21.9375,579.0313 Q22.6719,579.0313 23.4063,578.8594 Q24.1563,578.6875 25.0313,578.3906 L25.0313,580.5469 Q24.625,580.7031 24.2344,580.8281 Q23.8438,580.9375 23.4375,581.0156 Q23.0313,581.0938 22.6094,581.125 Q22.1875,581.1719 21.6875,581.1719 Q20.2813,581.1719 19.25,580.7188 Q18.2344,580.2656 17.5625,579.4531 Q16.8906,578.6406 16.5625,577.5 Q16.2344,576.3438 16.2344,574.9531 Q16.2344,573.5781 16.6094,572.4219 Q16.9844,571.2656 17.7031,570.4375 Q18.4219,569.6094 19.4844,569.1563 Q20.5469,568.6875 21.9375,568.6875 Q22.8438,568.6875 23.75,568.9219 Q24.6563,569.1406 25.4844,569.5469 L24.6563,571.6406 Q23.9688,571.3125 23.2813,571.0781 Q22.5938,570.8281 21.9375,570.8281 Z " fill="#000000"/><text fill="#000000" font-family="sans-serif" font-size="14" lengthAdjust="spacing" textLength="72" x="36" y="579.8467">ScriptEntity</text></g><!--class Module--><g id="elem_Module"><rect codeLine="66" fill="#F1F1F1" height="32" id="Module" rx="2.5" ry="2.5" style="stroke:#181818;stroke-width:0.5;" width="80" x="7" y="651"/><ellipse cx="22" cy="667" fill="#ADD1B2" rx="11" ry="11" style="stroke:#181818;stroke-width:1.0;"/><path d="M21.9375,662.8281 Q21.1875,662.8281 20.625,663.125 Q20.0625,663.4063 19.6719,663.9375 Q19.2813,664.4688 19.0781,665.25 Q18.8906,666.0156 18.8906,666.9688 Q18.8906,667.9375 19.0625,668.7031 Q19.25,669.4531 19.6094,669.9688 Q19.9844,670.4844 20.5625,670.7656 Q21.1406,671.0313 21.9375,671.0313 Q22.6719,671.0313 23.4063,670.8594 Q24.1563,670.6875 25.0313,670.3906 L25.0313,672.5469 Q24.625,672.7031 24.2344,672.8281 Q23.8438,672.9375 23.4375,673.0156 Q23.0313,673.0938 22.6094,673.125 Q22.1875,673.1719 21.6875,673.1719 Q20.2813,673.1719 19.25,672.7188 Q18.2344,672.2656 17.5625,671.4531 Q16.8906,670.6406 16.5625,669.5 Q16.2344,668.3438 16.2344,666.9531 Q16.2344,665.5781 16.6094,664.4219 Q16.9844,663.2656 17.7031,662.4375 Q18.4219,661.6094 19.4844,661.1563 Q20.5469,660.6875 21.9375,660.6875 Q22.8438,660.6875 23.75,660.9219 Q24.6563,661.1406 25.4844,661.5469 L24.6563,663.6406 Q23.9688,663.3125 23.2813,663.0781 Q22.5938,662.8281 21.9375,662.8281 Z " fill="#000000"/><text fill="#000000" font-family="sans-serif" font-size="14" lengthAdjust="spacing" textLength="48" x="36" y="671.8467">Module</text></g><!--class ImportClause--><g id="elem_ImportClause"><rect codeLine="85" fill="#F1F1F1" height="32" id="ImportClause" rx="2.5" ry="2.5" style="stroke:#181818;stroke-width:0.5;" width="118" x="1101" y="191"/><ellipse cx="1116" cy="207" fill="#ADD1B2" rx="11" ry="11" style="stroke:#181818;stroke-width:1.0;"/><path d="M1115.9375,202.8281 Q1115.1875,202.8281 1114.625,203.125 Q1114.0625,203.4063 1113.6719,203.9375 Q1113.2813,204.4688 1113.0781,205.25 Q1112.8906,206.0156 1112.8906,206.9688 Q1112.8906,207.9375 1113.0625,208.7031 Q1113.25,209.4531 1113.6094,209.9688 Q1113.9844,210.4844 1114.5625,210.7656 Q1115.1406,211.0313 1115.9375,211.0313 Q1116.6719,211.0313 1117.4063,210.8594 Q1118.1563,210.6875 1119.0313,210.3906 L1119.0313,212.5469 Q1118.625,212.7031 1118.2344,212.8281 Q1117.8438,212.9375 1117.4375,213.0156 Q1117.0313,213.0938 1116.6094,213.125 Q1116.1875,213.1719 1115.6875,213.1719 Q1114.2813,213.1719 1113.25,212.7188 Q1112.2344,212.2656 1111.5625,211.4531 Q1110.8906,210.6406 1110.5625,209.5 Q1110.2344,208.3438 1110.2344,206.9531 Q1110.2344,205.5781 1110.6094,204.4219 Q1110.9844,203.2656 1111.7031,202.4375 Q1112.4219,201.6094 1113.4844,201.1563 Q1114.5469,200.6875 1115.9375,200.6875 Q1116.8438,200.6875 1117.75,200.9219 Q1118.6563,201.1406 1119.4844,201.5469 L1118.6563,203.6406 Q1117.9688,203.3125 1117.2813,203.0781 Q1116.5938,202.8281 1115.9375,202.8281 Z " fill="#000000"/><text fill="#000000" font-family="sans-serif" font-size="14" lengthAdjust="spacing" textLength="86" x="1130" y="211.8467">ImportClause</text></g><!--class Alias--><g id="elem_Alias"><rect codeLine="98" fill="#F1F1F1" height="32" id="Alias" rx="2.5" ry="2.5" style="stroke:#181818;stroke-width:0.5;" width="62" x="763" y="375"/><ellipse cx="778" cy="391" fill="#ADD1B2" rx="11" ry="11" style="stroke:#181818;stroke-width:1.0;"/><path d="M777.9375,386.8281 Q777.1875,386.8281 776.625,387.125 Q776.0625,387.4063 775.6719,387.9375 Q775.2813,388.4688 775.0781,389.25 Q774.8906,390.0156 774.8906,390.9688 Q774.8906,391.9375 775.0625,392.7031 Q775.25,393.4531 775.6094,393.9688 Q775.9844,394.4844 776.5625,394.7656 Q777.1406,395.0313 777.9375,395.0313 Q778.6719,395.0313 779.4063,394.8594 Q780.1563,394.6875 781.0313,394.3906 L781.0313,396.5469 Q780.625,396.7031 780.2344,396.8281 Q779.8438,396.9375 779.4375,397.0156 Q779.0313,397.0938 778.6094,397.125 Q778.1875,397.1719 777.6875,397.1719 Q776.2813,397.1719 775.25,396.7188 Q774.2344,396.2656 773.5625,395.4531 Q772.8906,394.6406 772.5625,393.5 Q772.2344,392.3438 772.2344,390.9531 Q772.2344,389.5781 772.6094,388.4219 Q772.9844,387.2656 773.7031,386.4375 Q774.4219,385.6094 775.4844,385.1563 Q776.5469,384.6875 777.9375,384.6875 Q778.8438,384.6875 779.75,384.9219 Q780.6563,385.1406 781.4844,385.5469 L780.6563,387.6406 Q779.9688,387.3125 779.2813,387.0781 Q778.5938,386.8281 777.9375,386.8281 Z " fill="#000000"/><text fill="#000000" font-family="sans-serif" font-size="14" lengthAdjust="spacing" textLength="30" x="792" y="395.8467">Alias</text></g><!--class NamedEntity--><g id="elem_NamedEntity"><rect codeLine="118" fill="#F1F1F1" height="32" id="NamedEntity" rx="2.5" ry="2.5" style="stroke:#181818;stroke-width:0.5;" width="114" x="794" y="283"/><ellipse cx="809" cy="299" fill="#ADD1B2" rx="11" ry="11" style="stroke:#181818;stroke-width:1.0;"/><path d="M808.9375,294.8281 Q808.1875,294.8281 807.625,295.125 Q807.0625,295.4063 806.6719,295.9375 Q806.2813,296.4688 806.0781,297.25 Q805.8906,298.0156 805.8906,298.9688 Q805.8906,299.9375 806.0625,300.7031 Q806.25,301.4531 806.6094,301.9688 Q806.9844,302.4844 807.5625,302.7656 Q808.1406,303.0313 808.9375,303.0313 Q809.6719,303.0313 810.4063,302.8594 Q811.1563,302.6875 812.0313,302.3906 L812.0313,304.5469 Q811.625,304.7031 811.2344,304.8281 Q810.8438,304.9375 810.4375,305.0156 Q810.0313,305.0938 809.6094,305.125 Q809.1875,305.1719 808.6875,305.1719 Q807.2813,305.1719 806.25,304.7188 Q805.2344,304.2656 804.5625,303.4531 Q803.8906,302.6406 803.5625,301.5 Q803.2344,300.3438 803.2344,298.9531 Q803.2344,297.5781 803.6094,296.4219 Q803.9844,295.2656 804.7031,294.4375 Q805.4219,293.6094 806.4844,293.1563 Q807.5469,292.6875 808.9375,292.6875 Q809.8438,292.6875 810.75,292.9219 Q811.6563,293.1406 812.4844,293.5469 L811.6563,295.6406 Q810.9688,295.3125 810.2813,295.0781 Q809.5938,294.8281 808.9375,294.8281 Z " fill="#000000"/><text fill="#000000" font-family="sans-serif" font-size="14" lengthAdjust="spacing" textLength="82" x="823" y="303.8467">NamedEntity</text></g><!--class Decorator--><g id="elem_Decorator"><rect codeLine="108" fill="#F1F1F1" height="32" id="Decorator" rx="2.5" ry="2.5" style="stroke:#181818;stroke-width:0.5;" width="96" x="860" y="375"/><ellipse cx="875" cy="391" fill="#ADD1B2" rx="11" ry="11" style="stroke:#181818;stroke-width:1.0;"/><path d="M874.9375,386.8281 Q874.1875,386.8281 873.625,387.125 Q873.0625,387.4063 872.6719,387.9375 Q872.2813,388.4688 872.0781,389.25 Q871.8906,390.0156 871.8906,390.9688 Q871.8906,391.9375 872.0625,392.7031 Q872.25,393.4531 872.6094,393.9688 Q872.9844,394.4844 873.5625,394.7656 Q874.1406,395.0313 874.9375,395.0313 Q875.6719,395.0313 876.4063,394.8594 Q877.1563,394.6875 878.0313,394.3906 L878.0313,396.5469 Q877.625,396.7031 877.2344,396.8281 Q876.8438,396.9375 876.4375,397.0156 Q876.0313,397.0938 875.6094,397.125 Q875.1875,397.1719 874.6875,397.1719 Q873.2813,397.1719 872.25,396.7188 Q871.2344,396.2656 870.5625,395.4531 Q869.8906,394.6406 869.5625,393.5 Q869.2344,392.3438 869.2344,390.9531 Q869.2344,389.5781 869.6094,388.4219 Q869.9844,387.2656 870.7031,386.4375 Q871.4219,385.6094 872.4844,385.1563 Q873.5469,384.6875 874.9375,384.6875 Q875.8438,384.6875 876.75,384.9219 Q877.6563,385.1406 878.4844,385.5469 L877.6563,387.6406 Q876.9688,387.3125 876.2813,387.0781 Q875.5938,386.8281 874.9375,386.8281 Z " fill="#000000"/><text fill="#000000" font-family="sans-serif" font-size="14" lengthAdjust="spacing" textLength="64" x="889" y="395.8467">Decorator</text></g><!--class Parameter--><g id="elem_Parameter"><rect codeLine="140" fill="#F1F1F1" height="32" id="Parameter" rx="2.5" ry="2.5" style="stroke:#181818;stroke-width:0.5;" width="100" x="950" y="467"/><ellipse cx="965" cy="483" fill="#ADD1B2" rx="11" ry="11" style="stroke:#181818;stroke-width:1.0;"/><path d="M964.9375,478.8281 Q964.1875,478.8281 963.625,479.125 Q963.0625,479.4063 962.6719,479.9375 Q962.2813,480.4688 962.0781,481.25 Q961.8906,482.0156 961.8906,482.9688 Q961.8906,483.9375 962.0625,484.7031 Q962.25,485.4531 962.6094,485.9688 Q962.9844,486.4844 963.5625,486.7656 Q964.1406,487.0313 964.9375,487.0313 Q965.6719,487.0313 966.4063,486.8594 Q967.1563,486.6875 968.0313,486.3906 L968.0313,488.5469 Q967.625,488.7031 967.2344,488.8281 Q966.8438,488.9375 966.4375,489.0156 Q966.0313,489.0938 965.6094,489.125 Q965.1875,489.1719 964.6875,489.1719 Q963.2813,489.1719 962.25,488.7188 Q961.2344,488.2656 960.5625,487.4531 Q959.8906,486.6406 959.5625,485.5 Q959.2344,484.3438 959.2344,482.9531 Q959.2344,481.5781 959.6094,480.4219 Q959.9844,479.2656 960.7031,478.4375 Q961.4219,477.6094 962.4844,477.1563 Q963.5469,476.6875 964.9375,476.6875 Q965.8438,476.6875 966.75,476.9219 Q967.6563,477.1406 968.4844,477.5469 L967.6563,479.6406 Q966.9688,479.3125 966.2813,479.0781 Q965.5938,478.8281 964.9375,478.8281 Z " fill="#000000"/><text fill="#000000" font-family="sans-serif" font-size="14" lengthAdjust="spacing" textLength="68" x="979" y="487.8467">Parameter</text></g><!--class StructuralEntity--><g id="elem_StructuralEntity"><rect codeLine="428" fill="#F1F1F1" height="32" id="StructuralEntity" rx="2.5" ry="2.5" style="stroke:#181818;stroke-width:0.5;" width="130" x="1064" y="375"/><ellipse cx="1079" cy="391" fill="#ADD1B2" rx="11" ry="11" style="stroke:#181818;stroke-width:1.0;"/><path d="M1078.9375,386.8281 Q1078.1875,386.8281 1077.625,387.125 Q1077.0625,387.4063 1076.6719,387.9375 Q1076.2813,388.4688 1076.0781,389.25 Q1075.8906,390.0156 1075.8906,390.9688 Q1075.8906,391.9375 1076.0625,392.7031 Q1076.25,393.4531 1076.6094,393.9688 Q1076.9844,394.4844 1077.5625,394.7656 Q1078.1406,395.0313 1078.9375,395.0313 Q1079.6719,395.0313 1080.4063,394.8594 Q1081.1563,394.6875 1082.0313,394.3906 L1082.0313,396.5469 Q1081.625,396.7031 1081.2344,396.8281 Q1080.8438,396.9375 1080.4375,397.0156 Q1080.0313,397.0938 1079.6094,397.125 Q1079.1875,397.1719 1078.6875,397.1719 Q1077.2813,397.1719 1076.25,396.7188 Q1075.2344,396.2656 1074.5625,395.4531 Q1073.8906,394.6406 1073.5625,393.5 Q1073.2344,392.3438 1073.2344,390.9531 Q1073.2344,389.5781 1073.6094,388.4219 Q1073.9844,387.2656 1074.7031,386.4375 Q1075.4219,385.6094 1076.4844,385.1563 Q1077.5469,384.6875 1078.9375,384.6875 Q1079.8438,384.6875 1080.75,384.9219 Q1081.6563,385.1406 1082.4844,385.5469 L1081.6563,387.6406 Q1080.9688,387.3125 1080.2813,387.0781 Q1079.5938,386.8281 1078.9375,386.8281 Z " fill="#000000"/><text fill="#000000" font-family="sans-serif" font-size="14" lengthAdjust="spacing" textLength="98" x="1093" y="395.8467">StructuralEntity</text></g><!--class Property--><g id="elem_Property"><rect codeLine="147" fill="#F1F1F1" height="32" id="Property" rx="2.5" ry="2.5" style="stroke:#181818;stroke-width:0.5;" width="88" x="1085" y="467"/><ellipse cx="1100" cy="483" fill="#ADD1B2" rx="11" ry="11" style="stroke:#181818;stroke-width:1.0;"/><path d="M1099.9375,478.8281 Q1099.1875,478.8281 1098.625,479.125 Q1098.0625,479.4063 1097.6719,479.9375 Q1097.2813,480.4688 1097.0781,481.25 Q1096.8906,482.0156 1096.8906,482.9688 Q1096.8906,483.9375 1097.0625,484.7031 Q1097.25,485.4531 1097.6094,485.9688 Q1097.9844,486.4844 1098.5625,486.7656 Q1099.1406,487.0313 1099.9375,487.0313 Q1100.6719,487.0313 1101.4063,486.8594 Q1102.1563,486.6875 1103.0313,486.3906 L1103.0313,488.5469 Q1102.625,488.7031 1102.2344,488.8281 Q1101.8438,488.9375 1101.4375,489.0156 Q1101.0313,489.0938 1100.6094,489.125 Q1100.1875,489.1719 1099.6875,489.1719 Q1098.2813,489.1719 1097.25,488.7188 Q1096.2344,488.2656 1095.5625,487.4531 Q1094.8906,486.6406 1094.5625,485.5 Q1094.2344,484.3438 1094.2344,482.9531 Q1094.2344,481.5781 1094.6094,480.4219 Q1094.9844,479.2656 1095.7031,478.4375 Q1096.4219,477.6094 1097.4844,477.1563 Q1098.5469,476.6875 1099.9375,476.6875 Q1100.8438,476.6875 1101.75,476.9219 Q1102.6563,477.1406 1103.4844,477.5469 L1102.6563,479.6406 Q1101.9688,479.3125 1101.2813,479.0781 Q1100.5938,478.8281 1099.9375,478.8281 Z " fill="#000000"/><text fill="#000000" font-family="sans-serif" font-size="14" lengthAdjust="spacing" textLength="56" x="1114" y="487.8467">Property</text></g><!--class Inheritance--><g id="elem_Inheritance"><rect codeLine="174" fill="#F1F1F1" height="32" id="Inheritance" rx="2.5" ry="2.5" style="stroke:#181818;stroke-width:0.5;" width="105" x="1254.5" y="191"/><ellipse cx="1269.5" cy="207" fill="#ADD1B2" rx="11" ry="11" style="stroke:#181818;stroke-width:1.0;"/><path d="M1269.4375,202.8281 Q1268.6875,202.8281 1268.125,203.125 Q1267.5625,203.4063 1267.1719,203.9375 Q1266.7813,204.4688 1266.5781,205.25 Q1266.3906,206.0156 1266.3906,206.9688 Q1266.3906,207.9375 1266.5625,208.7031 Q1266.75,209.4531 1267.1094,209.9688 Q1267.4844,210.4844 1268.0625,210.7656 Q1268.6406,211.0313 1269.4375,211.0313 Q1270.1719,211.0313 1270.9063,210.8594 Q1271.6563,210.6875 1272.5313,210.3906 L1272.5313,212.5469 Q1272.125,212.7031 1271.7344,212.8281 Q1271.3438,212.9375 1270.9375,213.0156 Q1270.5313,213.0938 1270.1094,213.125 Q1269.6875,213.1719 1269.1875,213.1719 Q1267.7813,213.1719 1266.75,212.7188 Q1265.7344,212.2656 1265.0625,211.4531 Q1264.3906,210.6406 1264.0625,209.5 Q1263.7344,208.3438 1263.7344,206.9531 Q1263.7344,205.5781 1264.1094,204.4219 Q1264.4844,203.2656 1265.2031,202.4375 Q1265.9219,201.6094 1266.9844,201.1563 Q1268.0469,200.6875 1269.4375,200.6875 Q1270.3438,200.6875 1271.25,200.9219 Q1272.1563,201.1406 1272.9844,201.5469 L1272.1563,203.6406 Q1271.4688,203.3125 1270.7813,203.0781 Q1270.0938,202.8281 1269.4375,202.8281 Z " fill="#000000"/><text fill="#000000" font-family="sans-serif" font-size="14" lengthAdjust="spacing" textLength="73" x="1283.5" y="211.8467">Inheritance</text></g><!--class Class--><g id="elem_Class"><rect codeLine="184" fill="#F1F1F1" height="32" id="Class" rx="2.5" ry="2.5" style="stroke:#181818;stroke-width:0.5;" width="63" x="157.5" y="559"/><ellipse cx="172.5" cy="575" fill="#ADD1B2" rx="11" ry="11" style="stroke:#181818;stroke-width:1.0;"/><path d="M172.4375,570.8281 Q171.6875,570.8281 171.125,571.125 Q170.5625,571.4063 170.1719,571.9375 Q169.7813,572.4688 169.5781,573.25 Q169.3906,574.0156 169.3906,574.9688 Q169.3906,575.9375 169.5625,576.7031 Q169.75,577.4531 170.1094,577.9688 Q170.4844,578.4844 171.0625,578.7656 Q171.6406,579.0313 172.4375,579.0313 Q173.1719,579.0313 173.9063,578.8594 Q174.6563,578.6875 175.5313,578.3906 L175.5313,580.5469 Q175.125,580.7031 174.7344,580.8281 Q174.3438,580.9375 173.9375,581.0156 Q173.5313,581.0938 173.1094,581.125 Q172.6875,581.1719 172.1875,581.1719 Q170.7813,581.1719 169.75,580.7188 Q168.7344,580.2656 168.0625,579.4531 Q167.3906,578.6406 167.0625,577.5 Q166.7344,576.3438 166.7344,574.9531 Q166.7344,573.5781 167.1094,572.4219 Q167.4844,571.2656 168.2031,570.4375 Q168.9219,569.6094 169.9844,569.1563 Q171.0469,568.6875 172.4375,568.6875 Q173.3438,568.6875 174.25,568.9219 Q175.1563,569.1406 175.9844,569.5469 L175.1563,571.6406 Q174.4688,571.3125 173.7813,571.0781 Q173.0938,570.8281 172.4375,570.8281 Z " fill="#000000"/><text fill="#000000" font-family="sans-serif" font-size="14" lengthAdjust="spacing" textLength="31" x="186.5" y="579.8467">Class</text></g><!--class Type--><g id="elem_Type"><rect codeLine="409" fill="#F1F1F1" height="32" id="Type" rx="2.5" ry="2.5" style="stroke:#181818;stroke-width:0.5;" width="62" x="448" y="467"/><ellipse cx="463" cy="483" fill="#ADD1B2" rx="11" ry="11" style="stroke:#181818;stroke-width:1.0;"/><path d="M462.9375,478.8281 Q462.1875,478.8281 461.625,479.125 Q461.0625,479.4063 460.6719,479.9375 Q460.2813,480.4688 460.0781,481.25 Q459.8906,482.0156 459.8906,482.9688 Q459.8906,483.9375 460.0625,484.7031 Q460.25,485.4531 460.6094,485.9688 Q460.9844,486.4844 461.5625,486.7656 Q462.1406,487.0313 462.9375,487.0313 Q463.6719,487.0313 464.4063,486.8594 Q465.1563,486.6875 466.0313,486.3906 L466.0313,488.5469 Q465.625,488.7031 465.2344,488.8281 Q464.8438,488.9375 464.4375,489.0156 Q464.0313,489.0938 463.6094,489.125 Q463.1875,489.1719 462.6875,489.1719 Q461.2813,489.1719 460.25,488.7188 Q459.2344,488.2656 458.5625,487.4531 Q457.8906,486.6406 457.5625,485.5 Q457.2344,484.3438 457.2344,482.9531 Q457.2344,481.5781 457.6094,480.4219 Q457.9844,479.2656 458.7031,478.4375 Q459.4219,477.6094 460.4844,477.1563 Q461.5469,476.6875 462.9375,476.6875 Q463.8438,476.6875 464.75,476.9219 Q465.6563,477.1406 466.4844,477.5469 L465.6563,479.6406 Q464.9688,479.3125 464.2813,479.0781 Q463.5938,478.8281 462.9375,478.8281 Z " fill="#000000"/><text fill="#000000" font-family="sans-serif" font-size="14" lengthAdjust="spacing" textLength="30" x="477" y="487.8467">Type</text></g><!--class Method--><g id="elem_Method"><rect codeLine="203" fill="#F1F1F1" height="32" id="Method" rx="2.5" ry="2.5" style="stroke:#181818;stroke-width:0.5;" width="81" x="806.5" y="559"/><ellipse cx="821.5" cy="575" fill="#ADD1B2" rx="11" ry="11" style="stroke:#181818;stroke-width:1.0;"/><path d="M821.4375,570.8281 Q820.6875,570.8281 820.125,571.125 Q819.5625,571.4063 819.1719,571.9375 Q818.7813,572.4688 818.5781,573.25 Q818.3906,574.0156 818.3906,574.9688 Q818.3906,575.9375 818.5625,576.7031 Q818.75,577.4531 819.1094,577.9688 Q819.4844,578.4844 820.0625,578.7656 Q820.6406,579.0313 821.4375,579.0313 Q822.1719,579.0313 822.9063,578.8594 Q823.6563,578.6875 824.5313,578.3906 L824.5313,580.5469 Q824.125,580.7031 823.7344,580.8281 Q823.3438,580.9375 822.9375,581.0156 Q822.5313,581.0938 822.1094,581.125 Q821.6875,581.1719 821.1875,581.1719 Q819.7813,581.1719 818.75,580.7188 Q817.7344,580.2656 817.0625,579.4531 Q816.3906,578.6406 816.0625,577.5 Q815.7344,576.3438 815.7344,574.9531 Q815.7344,573.5781 816.1094,572.4219 Q816.4844,571.2656 817.2031,570.4375 Q817.9219,569.6094 818.9844,569.1563 Q820.0469,568.6875 821.4375,568.6875 Q822.3438,568.6875 823.25,568.9219 Q824.1563,569.1406 824.9844,569.5469 L824.1563,571.6406 Q823.4688,571.3125 822.7813,571.0781 Q822.0938,570.8281 821.4375,570.8281 Z " fill="#000000"/><text fill="#000000" font-family="sans-serif" font-size="14" lengthAdjust="spacing" textLength="49" x="835.5" y="579.8467">Method</text></g><!--class BehavioralEntity--><g id="elem_BehavioralEntity"><rect codeLine="316" fill="#F1F1F1" height="32" id="BehavioralEntity" rx="2.5" ry="2.5" style="stroke:#181818;stroke-width:0.5;" width="136" x="779" y="467"/><ellipse cx="794" cy="483" fill="#ADD1B2" rx="11" ry="11" style="stroke:#181818;stroke-width:1.0;"/><path d="M793.9375,478.8281 Q793.1875,478.8281 792.625,479.125 Q792.0625,479.4063 791.6719,479.9375 Q791.2813,480.4688 791.0781,481.25 Q790.8906,482.0156 790.8906,482.9688 Q790.8906,483.9375 791.0625,484.7031 Q791.25,485.4531 791.6094,485.9688 Q791.9844,486.4844 792.5625,486.7656 Q793.1406,487.0313 793.9375,487.0313 Q794.6719,487.0313 795.4063,486.8594 Q796.1563,486.6875 797.0313,486.3906 L797.0313,488.5469 Q796.625,488.7031 796.2344,488.8281 Q795.8438,488.9375 795.4375,489.0156 Q795.0313,489.0938 794.6094,489.125 Q794.1875,489.1719 793.6875,489.1719 Q792.2813,489.1719 791.25,488.7188 Q790.2344,488.2656 789.5625,487.4531 Q788.8906,486.6406 788.5625,485.5 Q788.2344,484.3438 788.2344,482.9531 Q788.2344,481.5781 788.6094,480.4219 Q788.9844,479.2656 789.7031,478.4375 Q790.4219,477.6094 791.4844,477.1563 Q792.5469,476.6875 793.9375,476.6875 Q794.8438,476.6875 795.75,476.9219 Q796.6563,477.1406 797.4844,477.5469 L796.6563,479.6406 Q795.9688,479.3125 795.2813,479.0781 Q794.5938,478.8281 793.9375,478.8281 Z " fill="#000000"/><text fill="#000000" font-family="sans-serif" font-size="14" lengthAdjust="spacing" textLength="104" x="808" y="487.8467">BehavioralEntity</text></g><!--class Interface--><g id="elem_Interface"><rect codeLine="228" fill="#F1F1F1" height="32" id="Interface" rx="2.5" ry="2.5" style="stroke:#181818;stroke-width:0.5;" width="90" x="256" y="559"/><ellipse cx="271" cy="575" fill="#ADD1B2" rx="11" ry="11" style="stroke:#181818;stroke-width:1.0;"/><path d="M270.9375,570.8281 Q270.1875,570.8281 269.625,571.125 Q269.0625,571.4063 268.6719,571.9375 Q268.2813,572.4688 268.0781,573.25 Q267.8906,574.0156 267.8906,574.9688 Q267.8906,575.9375 268.0625,576.7031 Q268.25,577.4531 268.6094,577.9688 Q268.9844,578.4844 269.5625,578.7656 Q270.1406,579.0313 270.9375,579.0313 Q271.6719,579.0313 272.4063,578.8594 Q273.1563,578.6875 274.0313,578.3906 L274.0313,580.5469 Q273.625,580.7031 273.2344,580.8281 Q272.8438,580.9375 272.4375,581.0156 Q272.0313,581.0938 271.6094,581.125 Q271.1875,581.1719 270.6875,581.1719 Q269.2813,581.1719 268.25,580.7188 Q267.2344,580.2656 266.5625,579.4531 Q265.8906,578.6406 265.5625,577.5 Q265.2344,576.3438 265.2344,574.9531 Q265.2344,573.5781 265.6094,572.4219 Q265.9844,571.2656 266.7031,570.4375 Q267.4219,569.6094 268.4844,569.1563 Q269.5469,568.6875 270.9375,568.6875 Q271.8438,568.6875 272.75,568.9219 Q273.6563,569.1406 274.4844,569.5469 L273.6563,571.6406 Q272.9688,571.3125 272.2813,571.0781 Q271.5938,570.8281 270.9375,570.8281 Z " fill="#000000"/><text fill="#000000" font-family="sans-serif" font-size="14" lengthAdjust="spacing" textLength="58" x="285" y="579.8467">Interface</text></g><!--class PrimitiveType--><g id="elem_PrimitiveType"><rect codeLine="244" fill="#F1F1F1" height="32" id="PrimitiveType" rx="2.5" ry="2.5" style="stroke:#181818;stroke-width:0.5;" width="121" x="381.5" y="559"/><ellipse cx="396.5" cy="575" fill="#ADD1B2" rx="11" ry="11" style="stroke:#181818;stroke-width:1.0;"/><path d="M396.4375,570.8281 Q395.6875,570.8281 395.125,571.125 Q394.5625,571.4063 394.1719,571.9375 Q393.7813,572.4688 393.5781,573.25 Q393.3906,574.0156 393.3906,574.9688 Q393.3906,575.9375 393.5625,576.7031 Q393.75,577.4531 394.1094,577.9688 Q394.4844,578.4844 395.0625,578.7656 Q395.6406,579.0313 396.4375,579.0313 Q397.1719,579.0313 397.9063,578.8594 Q398.6563,578.6875 399.5313,578.3906 L399.5313,580.5469 Q399.125,580.7031 398.7344,580.8281 Q398.3438,580.9375 397.9375,581.0156 Q397.5313,581.0938 397.1094,581.125 Q396.6875,581.1719 396.1875,581.1719 Q394.7813,581.1719 393.75,580.7188 Q392.7344,580.2656 392.0625,579.4531 Q391.3906,578.6406 391.0625,577.5 Q390.7344,576.3438 390.7344,574.9531 Q390.7344,573.5781 391.1094,572.4219 Q391.4844,571.2656 392.2031,570.4375 Q392.9219,569.6094 393.9844,569.1563 Q395.0469,568.6875 396.4375,568.6875 Q397.3438,568.6875 398.25,568.9219 Q399.1563,569.1406 399.9844,569.5469 L399.1563,571.6406 Q398.4688,571.3125 397.7813,571.0781 Q397.0938,570.8281 396.4375,570.8281 Z " fill="#000000"/><text fill="#000000" font-family="sans-serif" font-size="14" lengthAdjust="spacing" textLength="89" x="410.5" y="579.8467">PrimitiveType</text></g><!--class ParametricClass--><g id="elem_ParametricClass"><rect codeLine="248" fill="#F1F1F1" height="32" id="ParametricClass" rx="2.5" ry="2.5" style="stroke:#181818;stroke-width:0.5;" width="133" x="122.5" y="651"/><ellipse cx="137.5" cy="667" fill="#ADD1B2" rx="11" ry="11" style="stroke:#181818;stroke-width:1.0;"/><path d="M137.4375,662.8281 Q136.6875,662.8281 136.125,663.125 Q135.5625,663.4063 135.1719,663.9375 Q134.7813,664.4688 134.5781,665.25 Q134.3906,666.0156 134.3906,666.9688 Q134.3906,667.9375 134.5625,668.7031 Q134.75,669.4531 135.1094,669.9688 Q135.4844,670.4844 136.0625,670.7656 Q136.6406,671.0313 137.4375,671.0313 Q138.1719,671.0313 138.9063,670.8594 Q139.6563,670.6875 140.5313,670.3906 L140.5313,672.5469 Q140.125,672.7031 139.7344,672.8281 Q139.3438,672.9375 138.9375,673.0156 Q138.5313,673.0938 138.1094,673.125 Q137.6875,673.1719 137.1875,673.1719 Q135.7813,673.1719 134.75,672.7188 Q133.7344,672.2656 133.0625,671.4531 Q132.3906,670.6406 132.0625,669.5 Q131.7344,668.3438 131.7344,666.9531 Q131.7344,665.5781 132.1094,664.4219 Q132.4844,663.2656 133.2031,662.4375 Q133.9219,661.6094 134.9844,661.1563 Q136.0469,660.6875 137.4375,660.6875 Q138.3438,660.6875 139.25,660.9219 Q140.1563,661.1406 140.9844,661.5469 L140.1563,663.6406 Q139.4688,663.3125 138.7813,663.0781 Q138.0938,662.8281 137.4375,662.8281 Z " fill="#000000"/><text fill="#000000" font-family="sans-serif" font-size="14" lengthAdjust="spacing" textLength="101" x="151.5" y="671.8467">ParametricClass</text></g><!--class ParametricInterface--><g id="elem_ParametricInterface"><rect codeLine="259" fill="#F1F1F1" height="32" id="ParametricInterface" rx="2.5" ry="2.5" style="stroke:#181818;stroke-width:0.5;" width="160" x="291" y="651"/><ellipse cx="306" cy="667" fill="#ADD1B2" rx="11" ry="11" style="stroke:#181818;stroke-width:1.0;"/><path d="M305.9375,662.8281 Q305.1875,662.8281 304.625,663.125 Q304.0625,663.4063 303.6719,663.9375 Q303.2813,664.4688 303.0781,665.25 Q302.8906,666.0156 302.8906,666.9688 Q302.8906,667.9375 303.0625,668.7031 Q303.25,669.4531 303.6094,669.9688 Q303.9844,670.4844 304.5625,670.7656 Q305.1406,671.0313 305.9375,671.0313 Q306.6719,671.0313 307.4063,670.8594 Q308.1563,670.6875 309.0313,670.3906 L309.0313,672.5469 Q308.625,672.7031 308.2344,672.8281 Q307.8438,672.9375 307.4375,673.0156 Q307.0313,673.0938 306.6094,673.125 Q306.1875,673.1719 305.6875,673.1719 Q304.2813,673.1719 303.25,672.7188 Q302.2344,672.2656 301.5625,671.4531 Q300.8906,670.6406 300.5625,669.5 Q300.2344,668.3438 300.2344,666.9531 Q300.2344,665.5781 300.6094,664.4219 Q300.9844,663.2656 301.7031,662.4375 Q302.4219,661.6094 303.4844,661.1563 Q304.5469,660.6875 305.9375,660.6875 Q306.8438,660.6875 307.75,660.9219 Q308.6563,661.1406 309.4844,661.5469 L308.6563,663.6406 Q307.9688,663.3125 307.2813,663.0781 Q306.5938,662.8281 305.9375,662.8281 Z " fill="#000000"/><text fill="#000000" font-family="sans-serif" font-size="14" lengthAdjust="spacing" textLength="128" x="320" y="671.8467">ParametricInterface</text></g><!--class Function--><g id="elem_Function"><rect codeLine="270" fill="#F1F1F1" height="32" id="Function" rx="2.5" ry="2.5" style="stroke:#181818;stroke-width:0.5;" width="86" x="958" y="559"/><ellipse cx="973" cy="575" fill="#ADD1B2" rx="11" ry="11" style="stroke:#181818;stroke-width:1.0;"/><path d="M972.9375,570.8281 Q972.1875,570.8281 971.625,571.125 Q971.0625,571.4063 970.6719,571.9375 Q970.2813,572.4688 970.0781,573.25 Q969.8906,574.0156 969.8906,574.9688 Q969.8906,575.9375 970.0625,576.7031 Q970.25,577.4531 970.6094,577.9688 Q970.9844,578.4844 971.5625,578.7656 Q972.1406,579.0313 972.9375,579.0313 Q973.6719,579.0313 974.4063,578.8594 Q975.1563,578.6875 976.0313,578.3906 L976.0313,580.5469 Q975.625,580.7031 975.2344,580.8281 Q974.8438,580.9375 974.4375,581.0156 Q974.0313,581.0938 973.6094,581.125 Q973.1875,581.1719 972.6875,581.1719 Q971.2813,581.1719 970.25,580.7188 Q969.2344,580.2656 968.5625,579.4531 Q967.8906,578.6406 967.5625,577.5 Q967.2344,576.3438 967.2344,574.9531 Q967.2344,573.5781 967.6094,572.4219 Q967.9844,571.2656 968.7031,570.4375 Q969.4219,569.6094 970.4844,569.1563 Q971.5469,568.6875 972.9375,568.6875 Q973.8438,568.6875 974.75,568.9219 Q975.6563,569.1406 976.4844,569.5469 L975.6563,571.6406 Q974.9688,571.3125 974.2813,571.0781 Q973.5938,570.8281 972.9375,570.8281 Z " fill="#000000"/><text fill="#000000" font-family="sans-serif" font-size="14" lengthAdjust="spacing" textLength="54" x="987" y="579.8467">Function</text></g><!--class Accessor--><g id="elem_Accessor"><rect codeLine="274" fill="#F1F1F1" height="32" id="Accessor" rx="2.5" ry="2.5" style="stroke:#181818;stroke-width:0.5;" width="87" x="631.5" y="651"/><ellipse cx="646.5" cy="667" fill="#ADD1B2" rx="11" ry="11" style="stroke:#181818;stroke-width:1.0;"/><path d="M646.4375,662.8281 Q645.6875,662.8281 645.125,663.125 Q644.5625,663.4063 644.1719,663.9375 Q643.7813,664.4688 643.5781,665.25 Q643.3906,666.0156 643.3906,666.9688 Q643.3906,667.9375 643.5625,668.7031 Q643.75,669.4531 644.1094,669.9688 Q644.4844,670.4844 645.0625,670.7656 Q645.6406,671.0313 646.4375,671.0313 Q647.1719,671.0313 647.9063,670.8594 Q648.6563,670.6875 649.5313,670.3906 L649.5313,672.5469 Q649.125,672.7031 648.7344,672.8281 Q648.3438,672.9375 647.9375,673.0156 Q647.5313,673.0938 647.1094,673.125 Q646.6875,673.1719 646.1875,673.1719 Q644.7813,673.1719 643.75,672.7188 Q642.7344,672.2656 642.0625,671.4531 Q641.3906,670.6406 641.0625,669.5 Q640.7344,668.3438 640.7344,666.9531 Q640.7344,665.5781 641.1094,664.4219 Q641.4844,663.2656 642.2031,662.4375 Q642.9219,661.6094 643.9844,661.1563 Q645.0469,660.6875 646.4375,660.6875 Q647.3438,660.6875 648.25,660.9219 Q649.1563,661.1406 649.9844,661.5469 L649.1563,663.6406 Q648.4688,663.3125 647.7813,663.0781 Q647.0938,662.8281 646.4375,662.8281 Z " fill="#000000"/><text fill="#000000" font-family="sans-serif" font-size="14" lengthAdjust="spacing" textLength="55" x="660.5" y="671.8467">Accessor</text></g><!--class ParametricMethod--><g id="elem_ParametricMethod"><rect codeLine="278" fill="#F1F1F1" height="32" id="ParametricMethod" rx="2.5" ry="2.5" style="stroke:#181818;stroke-width:0.5;" width="151" x="753.5" y="651"/><ellipse cx="768.5" cy="667" fill="#ADD1B2" rx="11" ry="11" style="stroke:#181818;stroke-width:1.0;"/><path d="M768.4375,662.8281 Q767.6875,662.8281 767.125,663.125 Q766.5625,663.4063 766.1719,663.9375 Q765.7813,664.4688 765.5781,665.25 Q765.3906,666.0156 765.3906,666.9688 Q765.3906,667.9375 765.5625,668.7031 Q765.75,669.4531 766.1094,669.9688 Q766.4844,670.4844 767.0625,670.7656 Q767.6406,671.0313 768.4375,671.0313 Q769.1719,671.0313 769.9063,670.8594 Q770.6563,670.6875 771.5313,670.3906 L771.5313,672.5469 Q771.125,672.7031 770.7344,672.8281 Q770.3438,672.9375 769.9375,673.0156 Q769.5313,673.0938 769.1094,673.125 Q768.6875,673.1719 768.1875,673.1719 Q766.7813,673.1719 765.75,672.7188 Q764.7344,672.2656 764.0625,671.4531 Q763.3906,670.6406 763.0625,669.5 Q762.7344,668.3438 762.7344,666.9531 Q762.7344,665.5781 763.1094,664.4219 Q763.4844,663.2656 764.2031,662.4375 Q764.9219,661.6094 765.9844,661.1563 Q767.0469,660.6875 768.4375,660.6875 Q769.3438,660.6875 770.25,660.9219 Q771.1563,661.1406 771.9844,661.5469 L771.1563,663.6406 Q770.4688,663.3125 769.7813,663.0781 Q769.0938,662.8281 768.4375,662.8281 Z " fill="#000000"/><text fill="#000000" font-family="sans-serif" font-size="14" lengthAdjust="spacing" textLength="119" x="782.5" y="671.8467">ParametricMethod</text></g><!--class ParametricFunction--><g id="elem_ParametricFunction"><rect codeLine="285" fill="#F1F1F1" height="32" id="ParametricFunction" rx="2.5" ry="2.5" style="stroke:#181818;stroke-width:0.5;" width="156" x="940" y="651"/><ellipse cx="955" cy="667" fill="#ADD1B2" rx="11" ry="11" style="stroke:#181818;stroke-width:1.0;"/><path d="M954.9375,662.8281 Q954.1875,662.8281 953.625,663.125 Q953.0625,663.4063 952.6719,663.9375 Q952.2813,664.4688 952.0781,665.25 Q951.8906,666.0156 951.8906,666.9688 Q951.8906,667.9375 952.0625,668.7031 Q952.25,669.4531 952.6094,669.9688 Q952.9844,670.4844 953.5625,670.7656 Q954.1406,671.0313 954.9375,671.0313 Q955.6719,671.0313 956.4063,670.8594 Q957.1563,670.6875 958.0313,670.3906 L958.0313,672.5469 Q957.625,672.7031 957.2344,672.8281 Q956.8438,672.9375 956.4375,673.0156 Q956.0313,673.0938 955.6094,673.125 Q955.1875,673.1719 954.6875,673.1719 Q953.2813,673.1719 952.25,672.7188 Q951.2344,672.2656 950.5625,671.4531 Q949.8906,670.6406 949.5625,669.5 Q949.2344,668.3438 949.2344,666.9531 Q949.2344,665.5781 949.6094,664.4219 Q949.9844,663.2656 950.7031,662.4375 Q951.4219,661.6094 952.4844,661.1563 Q953.5469,660.6875 954.9375,660.6875 Q955.8438,660.6875 956.75,660.9219 Q957.6563,661.1406 958.4844,661.5469 L957.6563,663.6406 Q956.9688,663.3125 956.2813,663.0781 Q955.5938,662.8281 954.9375,662.8281 Z " fill="#000000"/><text fill="#000000" font-family="sans-serif" font-size="14" lengthAdjust="spacing" textLength="124" x="969" y="671.8467">ParametricFunction</text></g><!--class ArrowFunction--><g id="elem_ArrowFunction"><rect codeLine="292" fill="#F1F1F1" height="32" id="ArrowFunction" rx="2.5" ry="2.5" style="stroke:#181818;stroke-width:0.5;" width="125" x="1114.5" y="559"/><ellipse cx="1129.5" cy="575" fill="#ADD1B2" rx="11" ry="11" style="stroke:#181818;stroke-width:1.0;"/><path d="M1129.4375,570.8281 Q1128.6875,570.8281 1128.125,571.125 Q1127.5625,571.4063 1127.1719,571.9375 Q1126.7813,572.4688 1126.5781,573.25 Q1126.3906,574.0156 1126.3906,574.9688 Q1126.3906,575.9375 1126.5625,576.7031 Q1126.75,577.4531 1127.1094,577.9688 Q1127.4844,578.4844 1128.0625,578.7656 Q1128.6406,579.0313 1129.4375,579.0313 Q1130.1719,579.0313 1130.9063,578.8594 Q1131.6563,578.6875 1132.5313,578.3906 L1132.5313,580.5469 Q1132.125,580.7031 1131.7344,580.8281 Q1131.3438,580.9375 1130.9375,581.0156 Q1130.5313,581.0938 1130.1094,581.125 Q1129.6875,581.1719 1129.1875,581.1719 Q1127.7813,581.1719 1126.75,580.7188 Q1125.7344,580.2656 1125.0625,579.4531 Q1124.3906,578.6406 1124.0625,577.5 Q1123.7344,576.3438 1123.7344,574.9531 Q1123.7344,573.5781 1124.1094,572.4219 Q1124.4844,571.2656 1125.2031,570.4375 Q1125.9219,569.6094 1126.9844,569.1563 Q1128.0469,568.6875 1129.4375,568.6875 Q1130.3438,568.6875 1131.25,568.9219 Q1132.1563,569.1406 1132.9844,569.5469 L1132.1563,571.6406 Q1131.4688,571.3125 1130.7813,571.0781 Q1130.0938,570.8281 1129.4375,570.8281 Z " fill="#000000"/><text fill="#000000" font-family="sans-serif" font-size="14" lengthAdjust="spacing" textLength="93" x="1143.5" y="579.8467">ArrowFunction</text></g><!--class ParametricArrowFunction--><g id="elem_ParametricArrowFunction"><rect codeLine="296" fill="#F1F1F1" height="32" id="ParametricArrowFunction" rx="2.5" ry="2.5" style="stroke:#181818;stroke-width:0.5;" width="195" x="1131.5" y="651"/><ellipse cx="1146.5" cy="667" fill="#ADD1B2" rx="11" ry="11" style="stroke:#181818;stroke-width:1.0;"/><path d="M1146.4375,662.8281 Q1145.6875,662.8281 1145.125,663.125 Q1144.5625,663.4063 1144.1719,663.9375 Q1143.7813,664.4688 1143.5781,665.25 Q1143.3906,666.0156 1143.3906,666.9688 Q1143.3906,667.9375 1143.5625,668.7031 Q1143.75,669.4531 1144.1094,669.9688 Q1144.4844,670.4844 1145.0625,670.7656 Q1145.6406,671.0313 1146.4375,671.0313 Q1147.1719,671.0313 1147.9063,670.8594 Q1148.6563,670.6875 1149.5313,670.3906 L1149.5313,672.5469 Q1149.125,672.7031 1148.7344,672.8281 Q1148.3438,672.9375 1147.9375,673.0156 Q1147.5313,673.0938 1147.1094,673.125 Q1146.6875,673.1719 1146.1875,673.1719 Q1144.7813,673.1719 1143.75,672.7188 Q1142.7344,672.2656 1142.0625,671.4531 Q1141.3906,670.6406 1141.0625,669.5 Q1140.7344,668.3438 1140.7344,666.9531 Q1140.7344,665.5781 1141.1094,664.4219 Q1141.4844,663.2656 1142.2031,662.4375 Q1142.9219,661.6094 1143.9844,661.1563 Q1145.0469,660.6875 1146.4375,660.6875 Q1147.3438,660.6875 1148.25,660.9219 Q1149.1563,661.1406 1149.9844,661.5469 L1149.1563,663.6406 Q1148.4688,663.3125 1147.7813,663.0781 Q1147.0938,662.8281 1146.4375,662.8281 Z " fill="#000000"/><text fill="#000000" font-family="sans-serif" font-size="14" lengthAdjust="spacing" textLength="163" x="1160.5" y="671.8467">ParametricArrowFunction</text></g><!--class ParameterType--><g id="elem_ParameterType"><rect codeLine="303" fill="#F1F1F1" height="32" id="ParameterType" rx="2.5" ry="2.5" style="stroke:#181818;stroke-width:0.5;" width="130" x="538" y="559"/><ellipse cx="553" cy="575" fill="#ADD1B2" rx="11" ry="11" style="stroke:#181818;stroke-width:1.0;"/><path d="M552.9375,570.8281 Q552.1875,570.8281 551.625,571.125 Q551.0625,571.4063 550.6719,571.9375 Q550.2813,572.4688 550.0781,573.25 Q549.8906,574.0156 549.8906,574.9688 Q549.8906,575.9375 550.0625,576.7031 Q550.25,577.4531 550.6094,577.9688 Q550.9844,578.4844 551.5625,578.7656 Q552.1406,579.0313 552.9375,579.0313 Q553.6719,579.0313 554.4063,578.8594 Q555.1563,578.6875 556.0313,578.3906 L556.0313,580.5469 Q555.625,580.7031 555.2344,580.8281 Q554.8438,580.9375 554.4375,581.0156 Q554.0313,581.0938 553.6094,581.125 Q553.1875,581.1719 552.6875,581.1719 Q551.2813,581.1719 550.25,580.7188 Q549.2344,580.2656 548.5625,579.4531 Q547.8906,578.6406 547.5625,577.5 Q547.2344,576.3438 547.2344,574.9531 Q547.2344,573.5781 547.6094,572.4219 Q547.9844,571.2656 548.7031,570.4375 Q549.4219,569.6094 550.4844,569.1563 Q551.5469,568.6875 552.9375,568.6875 Q553.8438,568.6875 554.75,568.9219 Q555.6563,569.1406 556.4844,569.5469 L555.6563,571.6406 Q554.9688,571.3125 554.2813,571.0781 Q553.5938,570.8281 552.9375,570.8281 Z " fill="#000000"/><text fill="#000000" font-family="sans-serif" font-size="14" lengthAdjust="spacing" textLength="98" x="567" y="579.8467">ParameterType</text></g><!--class Invocation--><g id="elem_Invocation"><rect codeLine="339" fill="#F1F1F1" height="32" id="Invocation" rx="2.5" ry="2.5" style="stroke:#181818;stroke-width:0.5;" width="98" x="1395" y="191"/><ellipse cx="1410" cy="207" fill="#ADD1B2" rx="11" ry="11" style="stroke:#181818;stroke-width:1.0;"/><path d="M1409.9375,202.8281 Q1409.1875,202.8281 1408.625,203.125 Q1408.0625,203.4063 1407.6719,203.9375 Q1407.2813,204.4688 1407.0781,205.25 Q1406.8906,206.0156 1406.8906,206.9688 Q1406.8906,207.9375 1407.0625,208.7031 Q1407.25,209.4531 1407.6094,209.9688 Q1407.9844,210.4844 1408.5625,210.7656 Q1409.1406,211.0313 1409.9375,211.0313 Q1410.6719,211.0313 1411.4063,210.8594 Q1412.1563,210.6875 1413.0313,210.3906 L1413.0313,212.5469 Q1412.625,212.7031 1412.2344,212.8281 Q1411.8438,212.9375 1411.4375,213.0156 Q1411.0313,213.0938 1410.6094,213.125 Q1410.1875,213.1719 1409.6875,213.1719 Q1408.2813,213.1719 1407.25,212.7188 Q1406.2344,212.2656 1405.5625,211.4531 Q1404.8906,210.6406 1404.5625,209.5 Q1404.2344,208.3438 1404.2344,206.9531 Q1404.2344,205.5781 1404.6094,204.4219 Q1404.9844,203.2656 1405.7031,202.4375 Q1406.4219,201.6094 1407.4844,201.1563 Q1408.5469,200.6875 1409.9375,200.6875 Q1410.8438,200.6875 1411.75,200.9219 Q1412.6563,201.1406 1413.4844,201.5469 L1412.6563,203.6406 Q1411.9688,203.3125 1411.2813,203.0781 Q1410.5938,202.8281 1409.9375,202.8281 Z " fill="#000000"/><text fill="#000000" font-family="sans-serif" font-size="14" lengthAdjust="spacing" textLength="66" x="1424" y="211.8467">Invocation</text></g><!--class Reference--><g id="elem_Reference"><rect codeLine="355" fill="#F1F1F1" height="32" id="Reference" rx="2.5" ry="2.5" style="stroke:#181818;stroke-width:0.5;" width="97" x="1528.5" y="191"/><ellipse cx="1543.5" cy="207" fill="#ADD1B2" rx="11" ry="11" style="stroke:#181818;stroke-width:1.0;"/><path d="M1543.4375,202.8281 Q1542.6875,202.8281 1542.125,203.125 Q1541.5625,203.4063 1541.1719,203.9375 Q1540.7813,204.4688 1540.5781,205.25 Q1540.3906,206.0156 1540.3906,206.9688 Q1540.3906,207.9375 1540.5625,208.7031 Q1540.75,209.4531 1541.1094,209.9688 Q1541.4844,210.4844 1542.0625,210.7656 Q1542.6406,211.0313 1543.4375,211.0313 Q1544.1719,211.0313 1544.9063,210.8594 Q1545.6563,210.6875 1546.5313,210.3906 L1546.5313,212.5469 Q1546.125,212.7031 1545.7344,212.8281 Q1545.3438,212.9375 1544.9375,213.0156 Q1544.5313,213.0938 1544.1094,213.125 Q1543.6875,213.1719 1543.1875,213.1719 Q1541.7813,213.1719 1540.75,212.7188 Q1539.7344,212.2656 1539.0625,211.4531 Q1538.3906,210.6406 1538.0625,209.5 Q1537.7344,208.3438 1537.7344,206.9531 Q1537.7344,205.5781 1538.1094,204.4219 Q1538.4844,203.2656 1539.2031,202.4375 Q1539.9219,201.6094 1540.9844,201.1563 Q1542.0469,200.6875 1543.4375,200.6875 Q1544.3438,200.6875 1545.25,200.9219 Q1546.1563,201.1406 1546.9844,201.5469 L1546.1563,203.6406 Q1545.4688,203.3125 1544.7813,203.0781 Q1544.0938,202.8281 1543.4375,202.8281 Z " fill="#000000"/><text fill="#000000" font-family="sans-serif" font-size="14" lengthAdjust="spacing" textLength="65" x="1557.5" y="211.8467">Reference</text></g><!--class Variable--><g id="elem_Variable"><rect codeLine="365" fill="#F1F1F1" height="32" id="Variable" rx="2.5" ry="2.5" style="stroke:#181818;stroke-width:0.5;" width="84" x="1208" y="467"/><ellipse cx="1223" cy="483" fill="#ADD1B2" rx="11" ry="11" style="stroke:#181818;stroke-width:1.0;"/><path d="M1222.9375,478.8281 Q1222.1875,478.8281 1221.625,479.125 Q1221.0625,479.4063 1220.6719,479.9375 Q1220.2813,480.4688 1220.0781,481.25 Q1219.8906,482.0156 1219.8906,482.9688 Q1219.8906,483.9375 1220.0625,484.7031 Q1220.25,485.4531 1220.6094,485.9688 Q1220.9844,486.4844 1221.5625,486.7656 Q1222.1406,487.0313 1222.9375,487.0313 Q1223.6719,487.0313 1224.4063,486.8594 Q1225.1563,486.6875 1226.0313,486.3906 L1226.0313,488.5469 Q1225.625,488.7031 1225.2344,488.8281 Q1224.8438,488.9375 1224.4375,489.0156 Q1224.0313,489.0938 1223.6094,489.125 Q1223.1875,489.1719 1222.6875,489.1719 Q1221.2813,489.1719 1220.25,488.7188 Q1219.2344,488.2656 1218.5625,487.4531 Q1217.8906,486.6406 1217.5625,485.5 Q1217.2344,484.3438 1217.2344,482.9531 Q1217.2344,481.5781 1217.6094,480.4219 Q1217.9844,479.2656 1218.7031,478.4375 Q1219.4219,477.6094 1220.4844,477.1563 Q1221.5469,476.6875 1222.9375,476.6875 Q1223.8438,476.6875 1224.75,476.9219 Q1225.6563,477.1406 1226.4844,477.5469 L1225.6563,479.6406 Q1224.9688,479.3125 1224.2813,479.0781 Q1223.5938,478.8281 1222.9375,478.8281 Z " fill="#000000"/><text fill="#000000" font-family="sans-serif" font-size="14" lengthAdjust="spacing" textLength="52" x="1237" y="487.8467">Variable</text></g><!--class Access--><g id="elem_Access"><rect codeLine="438" fill="#F1F1F1" height="32" id="Access" rx="2.5" ry="2.5" style="stroke:#181818;stroke-width:0.5;" width="73" x="1660.5" y="191"/><ellipse cx="1675.5" cy="207" fill="#ADD1B2" rx="11" ry="11" style="stroke:#181818;stroke-width:1.0;"/><path d="M1675.4375,202.8281 Q1674.6875,202.8281 1674.125,203.125 Q1673.5625,203.4063 1673.1719,203.9375 Q1672.7813,204.4688 1672.5781,205.25 Q1672.3906,206.0156 1672.3906,206.9688 Q1672.3906,207.9375 1672.5625,208.7031 Q1672.75,209.4531 1673.1094,209.9688 Q1673.4844,210.4844 1674.0625,210.7656 Q1674.6406,211.0313 1675.4375,211.0313 Q1676.1719,211.0313 1676.9063,210.8594 Q1677.6563,210.6875 1678.5313,210.3906 L1678.5313,212.5469 Q1678.125,212.7031 1677.7344,212.8281 Q1677.3438,212.9375 1676.9375,213.0156 Q1676.5313,213.0938 1676.1094,213.125 Q1675.6875,213.1719 1675.1875,213.1719 Q1673.7813,213.1719 1672.75,212.7188 Q1671.7344,212.2656 1671.0625,211.4531 Q1670.3906,210.6406 1670.0625,209.5 Q1669.7344,208.3438 1669.7344,206.9531 Q1669.7344,205.5781 1670.1094,204.4219 Q1670.4844,203.2656 1671.2031,202.4375 Q1671.9219,201.6094 1672.9844,201.1563 Q1674.0469,200.6875 1675.4375,200.6875 Q1676.3438,200.6875 1677.25,200.9219 Q1678.1563,201.1406 1678.9844,201.5469 L1678.1563,203.6406 Q1677.4688,203.3125 1676.7813,203.0781 Q1676.0938,202.8281 1675.4375,202.8281 Z " fill="#000000"/><text fill="#000000" font-family="sans-serif" font-size="14" lengthAdjust="spacing" textLength="41" x="1689.5" y="211.8467">Access</text></g><!--class Concretisation--><g id="elem_Concretisation"><rect codeLine="451" fill="#F1F1F1" height="32" id="Concretisation" rx="2.5" ry="2.5" style="stroke:#181818;stroke-width:0.5;" width="123" x="1768.5" y="191"/><ellipse cx="1783.5" cy="207" fill="#ADD1B2" rx="11" ry="11" style="stroke:#181818;stroke-width:1.0;"/><path d="M1783.4375,202.8281 Q1782.6875,202.8281 1782.125,203.125 Q1781.5625,203.4063 1781.1719,203.9375 Q1780.7813,204.4688 1780.5781,205.25 Q1780.3906,206.0156 1780.3906,206.9688 Q1780.3906,207.9375 1780.5625,208.7031 Q1780.75,209.4531 1781.1094,209.9688 Q1781.4844,210.4844 1782.0625,210.7656 Q1782.6406,211.0313 1783.4375,211.0313 Q1784.1719,211.0313 1784.9063,210.8594 Q1785.6563,210.6875 1786.5313,210.3906 L1786.5313,212.5469 Q1786.125,212.7031 1785.7344,212.8281 Q1785.3438,212.9375 1784.9375,213.0156 Q1784.5313,213.0938 1784.1094,213.125 Q1783.6875,213.1719 1783.1875,213.1719 Q1781.7813,213.1719 1780.75,212.7188 Q1779.7344,212.2656 1779.0625,211.4531 Q1778.3906,210.6406 1778.0625,209.5 Q1777.7344,208.3438 1777.7344,206.9531 Q1777.7344,205.5781 1778.1094,204.4219 Q1778.4844,203.2656 1779.2031,202.4375 Q1779.9219,201.6094 1780.9844,201.1563 Q1782.0469,200.6875 1783.4375,200.6875 Q1784.3438,200.6875 1785.25,200.9219 Q1786.1563,201.1406 1786.9844,201.5469 L1786.1563,203.6406 Q1785.4688,203.3125 1784.7813,203.0781 Q1784.0938,202.8281 1783.4375,202.8281 Z " fill="#000000"/><text fill="#000000" font-family="sans-serif" font-size="14" lengthAdjust="spacing" textLength="91" x="1797.5" y="211.8467">Concretisation</text></g><!--class Enum--><g id="elem_Enum"><rect codeLine="461" fill="#F1F1F1" height="32" id="Enum" rx="2.5" ry="2.5" style="stroke:#181818;stroke-width:0.5;" width="68" x="703" y="559"/><ellipse cx="718" cy="575" fill="#ADD1B2" rx="11" ry="11" style="stroke:#181818;stroke-width:1.0;"/><path d="M717.9375,570.8281 Q717.1875,570.8281 716.625,571.125 Q716.0625,571.4063 715.6719,571.9375 Q715.2813,572.4688 715.0781,573.25 Q714.8906,574.0156 714.8906,574.9688 Q714.8906,575.9375 715.0625,576.7031 Q715.25,577.4531 715.6094,577.9688 Q715.9844,578.4844 716.5625,578.7656 Q717.1406,579.0313 717.9375,579.0313 Q718.6719,579.0313 719.4063,578.8594 Q720.1563,578.6875 721.0313,578.3906 L721.0313,580.5469 Q720.625,580.7031 720.2344,580.8281 Q719.8438,580.9375 719.4375,581.0156 Q719.0313,581.0938 718.6094,581.125 Q718.1875,581.1719 717.6875,581.1719 Q716.2813,581.1719 715.25,580.7188 Q714.2344,580.2656 713.5625,579.4531 Q712.8906,578.6406 712.5625,577.5 Q712.2344,576.3438 712.2344,574.9531 Q712.2344,573.5781 712.6094,572.4219 Q712.9844,571.2656 713.7031,570.4375 Q714.4219,569.6094 715.4844,569.1563 Q716.5469,568.6875 717.9375,568.6875 Q718.8438,568.6875 719.75,568.9219 Q720.6563,569.1406 721.4844,569.5469 L720.6563,571.6406 Q719.9688,571.3125 719.2813,571.0781 Q718.5938,570.8281 717.9375,570.8281 Z " fill="#000000"/><text fill="#000000" font-family="sans-serif" font-size="14" lengthAdjust="spacing" textLength="36" x="732" y="579.8467">Enum</text></g><!--class EnumValue--><g id="elem_EnumValue"><rect codeLine="468" fill="#F1F1F1" height="32" id="EnumValue" rx="2.5" ry="2.5" style="stroke:#181818;stroke-width:0.5;" width="103" x="1327.5" y="467"/><ellipse cx="1342.5" cy="483" fill="#ADD1B2" rx="11" ry="11" style="stroke:#181818;stroke-width:1.0;"/><path d="M1342.4375,478.8281 Q1341.6875,478.8281 1341.125,479.125 Q1340.5625,479.4063 1340.1719,479.9375 Q1339.7813,480.4688 1339.5781,481.25 Q1339.3906,482.0156 1339.3906,482.9688 Q1339.3906,483.9375 1339.5625,484.7031 Q1339.75,485.4531 1340.1094,485.9688 Q1340.4844,486.4844 1341.0625,486.7656 Q1341.6406,487.0313 1342.4375,487.0313 Q1343.1719,487.0313 1343.9063,486.8594 Q1344.6563,486.6875 1345.5313,486.3906 L1345.5313,488.5469 Q1345.125,488.7031 1344.7344,488.8281 Q1344.3438,488.9375 1343.9375,489.0156 Q1343.5313,489.0938 1343.1094,489.125 Q1342.6875,489.1719 1342.1875,489.1719 Q1340.7813,489.1719 1339.75,488.7188 Q1338.7344,488.2656 1338.0625,487.4531 Q1337.3906,486.6406 1337.0625,485.5 Q1336.7344,484.3438 1336.7344,482.9531 Q1336.7344,481.5781 1337.1094,480.4219 Q1337.4844,479.2656 1338.2031,478.4375 Q1338.9219,477.6094 1339.9844,477.1563 Q1341.0469,476.6875 1342.4375,476.6875 Q1343.3438,476.6875 1344.25,476.9219 Q1345.1563,477.1406 1345.9844,477.5469 L1345.1563,479.6406 Q1344.4688,479.3125 1343.7813,479.0781 Q1343.0938,478.8281 1342.4375,478.8281 Z " fill="#000000"/><text fill="#000000" font-family="sans-serif" font-size="14" lengthAdjust="spacing" textLength="71" x="1356.5" y="487.8467">EnumValue</text></g><!--class IndexedFileAnchor--><g id="elem_IndexedFileAnchor"><rect codeLine="475" fill="#F1F1F1" height="32" id="IndexedFileAnchor" rx="2.5" ry="2.5" style="stroke:#181818;stroke-width:0.5;" width="152" x="943" y="283"/><ellipse cx="958" cy="299" fill="#ADD1B2" rx="11" ry="11" style="stroke:#181818;stroke-width:1.0;"/><path d="M957.9375,294.8281 Q957.1875,294.8281 956.625,295.125 Q956.0625,295.4063 955.6719,295.9375 Q955.2813,296.4688 955.0781,297.25 Q954.8906,298.0156 954.8906,298.9688 Q954.8906,299.9375 955.0625,300.7031 Q955.25,301.4531 955.6094,301.9688 Q955.9844,302.4844 956.5625,302.7656 Q957.1406,303.0313 957.9375,303.0313 Q958.6719,303.0313 959.4063,302.8594 Q960.1563,302.6875 961.0313,302.3906 L961.0313,304.5469 Q960.625,304.7031 960.2344,304.8281 Q959.8438,304.9375 959.4375,305.0156 Q959.0313,305.0938 958.6094,305.125 Q958.1875,305.1719 957.6875,305.1719 Q956.2813,305.1719 955.25,304.7188 Q954.2344,304.2656 953.5625,303.4531 Q952.8906,302.6406 952.5625,301.5 Q952.2344,300.3438 952.2344,298.9531 Q952.2344,297.5781 952.6094,296.4219 Q952.9844,295.2656 953.7031,294.4375 Q954.4219,293.6094 955.4844,293.1563 Q956.5469,292.6875 957.9375,292.6875 Q958.8438,292.6875 959.75,292.9219 Q960.6563,293.1406 961.4844,293.5469 L960.6563,295.6406 Q959.9688,295.3125 959.2813,295.0781 Q958.5938,294.8281 957.9375,294.8281 Z " fill="#000000"/><text fill="#000000" font-family="sans-serif" font-size="14" lengthAdjust="spacing" textLength="120" x="972" y="303.8467">IndexedFileAnchor</text></g><!--class ParameterConcretisation--><g id="elem_ParameterConcretisation"><rect codeLine="488" fill="#F1F1F1" height="32" id="ParameterConcretisation" rx="2.5" ry="2.5" style="stroke:#181818;stroke-width:0.5;" width="191" x="1926.5" y="191"/><ellipse cx="1941.5" cy="207" fill="#ADD1B2" rx="11" ry="11" style="stroke:#181818;stroke-width:1.0;"/><path d="M1941.4375,202.8281 Q1940.6875,202.8281 1940.125,203.125 Q1939.5625,203.4063 1939.1719,203.9375 Q1938.7813,204.4688 1938.5781,205.25 Q1938.3906,206.0156 1938.3906,206.9688 Q1938.3906,207.9375 1938.5625,208.7031 Q1938.75,209.4531 1939.1094,209.9688 Q1939.4844,210.4844 1940.0625,210.7656 Q1940.6406,211.0313 1941.4375,211.0313 Q1942.1719,211.0313 1942.9063,210.8594 Q1943.6563,210.6875 1944.5313,210.3906 L1944.5313,212.5469 Q1944.125,212.7031 1943.7344,212.8281 Q1943.3438,212.9375 1942.9375,213.0156 Q1942.5313,213.0938 1942.1094,213.125 Q1941.6875,213.1719 1941.1875,213.1719 Q1939.7813,213.1719 1938.75,212.7188 Q1937.7344,212.2656 1937.0625,211.4531 Q1936.3906,210.6406 1936.0625,209.5 Q1935.7344,208.3438 1935.7344,206.9531 Q1935.7344,205.5781 1936.1094,204.4219 Q1936.4844,203.2656 1937.2031,202.4375 Q1937.9219,201.6094 1938.9844,201.1563 Q1940.0469,200.6875 1941.4375,200.6875 Q1942.3438,200.6875 1943.25,200.9219 Q1944.1563,201.1406 1944.9844,201.5469 L1944.1563,203.6406 Q1943.4688,203.3125 1942.7813,203.0781 Q1942.0938,202.8281 1941.4375,202.8281 Z " fill="#000000"/><text fill="#000000" font-family="sans-serif" font-size="14" lengthAdjust="spacing" textLength="159" x="1955.5" y="211.8467">ParameterConcretisation</text></g><!--class SearchParameters--><g id="elem_SearchParameters"><rect codeLine="501" fill="#F1F1F1" height="32" id="SearchParameters" rx="2.5" ry="2.5" style="stroke:#181818;stroke-width:0.5;" width="148" x="773" y="7"/><ellipse cx="788" cy="23" fill="#B4A7E5" rx="11" ry="11" style="stroke:#181818;stroke-width:1.0;"/><path d="M790.5625,29 L785.0469,29 L785.0469,27.5313 L786.5313,26.8594 L786.5313,19 L785.0469,18.3281 L785.0469,16.8594 L790.5625,16.8594 L790.5625,18.3281 L789.0938,19 L789.0938,26.8594 L790.5625,27.5313 L790.5625,29 Z " fill="#000000"/><text fill="#000000" font-family="sans-serif" font-size="14" font-style="italic" lengthAdjust="spacing" textLength="116" x="802" y="27.8467">SearchParameters</text></g><!--class EntityDictionary--><g id="elem_EntityDictionary"><rect codeLine="506" fill="#F1F1F1" height="32" id="EntityDictionary" rx="2.5" ry="2.5" style="stroke:#181818;stroke-width:0.5;" width="133" x="956.5" y="7"/><ellipse cx="971.5" cy="23" fill="#ADD1B2" rx="11" ry="11" style="stroke:#181818;stroke-width:1.0;"/><path d="M971.4375,18.8281 Q970.6875,18.8281 970.125,19.125 Q969.5625,19.4063 969.1719,19.9375 Q968.7813,20.4688 968.5781,21.25 Q968.3906,22.0156 968.3906,22.9688 Q968.3906,23.9375 968.5625,24.7031 Q968.75,25.4531 969.1094,25.9688 Q969.4844,26.4844 970.0625,26.7656 Q970.6406,27.0313 971.4375,27.0313 Q972.1719,27.0313 972.9063,26.8594 Q973.6563,26.6875 974.5313,26.3906 L974.5313,28.5469 Q974.125,28.7031 973.7344,28.8281 Q973.3438,28.9375 972.9375,29.0156 Q972.5313,29.0938 972.1094,29.125 Q971.6875,29.1719 971.1875,29.1719 Q969.7813,29.1719 968.75,28.7188 Q967.7344,28.2656 967.0625,27.4531 Q966.3906,26.6406 966.0625,25.5 Q965.7344,24.3438 965.7344,22.9531 Q965.7344,21.5781 966.1094,20.4219 Q966.4844,19.2656 967.2031,18.4375 Q967.9219,17.6094 968.9844,17.1563 Q970.0469,16.6875 971.4375,16.6875 Q972.3438,16.6875 973.25,16.9219 Q974.1563,17.1406 974.9844,17.5469 L974.1563,19.6406 Q973.4688,19.3125 972.7813,19.0781 Q972.0938,18.8281 971.4375,18.8281 Z " fill="#000000"/><text fill="#000000" font-family="sans-serif" font-size="14" lengthAdjust="spacing" textLength="101" x="985.5" y="27.8467">EntityDictionary</text></g><!--class FamixRepository--><g id="elem_FamixRepository"><rect codeLine="552" fill="#F1F1F1" height="32" id="FamixRepository" rx="2.5" ry="2.5" style="stroke:#181818;stroke-width:0.5;" width="138" x="1125" y="7"/><ellipse cx="1140" cy="23" fill="#ADD1B2" rx="11" ry="11" style="stroke:#181818;stroke-width:1.0;"/><path d="M1139.9375,18.8281 Q1139.1875,18.8281 1138.625,19.125 Q1138.0625,19.4063 1137.6719,19.9375 Q1137.2813,20.4688 1137.0781,21.25 Q1136.8906,22.0156 1136.8906,22.9688 Q1136.8906,23.9375 1137.0625,24.7031 Q1137.25,25.4531 1137.6094,25.9688 Q1137.9844,26.4844 1138.5625,26.7656 Q1139.1406,27.0313 1139.9375,27.0313 Q1140.6719,27.0313 1141.4063,26.8594 Q1142.1563,26.6875 1143.0313,26.3906 L1143.0313,28.5469 Q1142.625,28.7031 1142.2344,28.8281 Q1141.8438,28.9375 1141.4375,29.0156 Q1141.0313,29.0938 1140.6094,29.125 Q1140.1875,29.1719 1139.6875,29.1719 Q1138.2813,29.1719 1137.25,28.7188 Q1136.2344,28.2656 1135.5625,27.4531 Q1134.8906,26.6406 1134.5625,25.5 Q1134.2344,24.3438 1134.2344,22.9531 Q1134.2344,21.5781 1134.6094,20.4219 Q1134.9844,19.2656 1135.7031,18.4375 Q1136.4219,17.6094 1137.4844,17.1563 Q1138.5469,16.6875 1139.9375,16.6875 Q1140.8438,16.6875 1141.75,16.9219 Q1142.6563,17.1406 1143.4844,17.5469 L1142.6563,19.6406 Q1141.9688,19.3125 1141.2813,19.0781 Q1140.5938,18.8281 1139.9375,18.8281 Z " fill="#000000"/><text fill="#000000" font-family="sans-serif" font-size="14" lengthAdjust="spacing" textLength="106" x="1154" y="27.8467">FamixRepository</text></g><!--class Importer--><g id="elem_Importer"><rect codeLine="588" fill="#F1F1F1" height="32" id="Importer" rx="2.5" ry="2.5" style="stroke:#181818;stroke-width:0.5;" width="91" x="801.5" y="99"/><ellipse cx="816.5" cy="115" fill="#ADD1B2" rx="11" ry="11" style="stroke:#181818;stroke-width:1.0;"/><path d="M816.4375,110.8281 Q815.6875,110.8281 815.125,111.125 Q814.5625,111.4063 814.1719,111.9375 Q813.7813,112.4688 813.5781,113.25 Q813.3906,114.0156 813.3906,114.9688 Q813.3906,115.9375 813.5625,116.7031 Q813.75,117.4531 814.1094,117.9688 Q814.4844,118.4844 815.0625,118.7656 Q815.6406,119.0313 816.4375,119.0313 Q817.1719,119.0313 817.9063,118.8594 Q818.6563,118.6875 819.5313,118.3906 L819.5313,120.5469 Q819.125,120.7031 818.7344,120.8281 Q818.3438,120.9375 817.9375,121.0156 Q817.5313,121.0938 817.1094,121.125 Q816.6875,121.1719 816.1875,121.1719 Q814.7813,121.1719 813.75,120.7188 Q812.7344,120.2656 812.0625,119.4531 Q811.3906,118.6406 811.0625,117.5 Q810.7344,116.3438 810.7344,114.9531 Q810.7344,113.5781 811.1094,112.4219 Q811.4844,111.2656 812.2031,110.4375 Q812.9219,109.6094 813.9844,109.1563 Q815.0469,108.6875 816.4375,108.6875 Q817.3438,108.6875 818.25,108.9219 Q819.1563,109.1406 819.9844,109.5469 L819.1563,111.6406 Q818.4688,111.3125 817.7813,111.0781 Q817.0938,110.8281 816.4375,110.8281 Z " fill="#000000"/><text fill="#000000" font-family="sans-serif" font-size="14" lengthAdjust="spacing" textLength="59" x="830.5" y="119.8467">Importer</text></g><!--class FamixJSONExporter--><g id="elem_FamixJSONExporter"><rect codeLine="600" fill="#F1F1F1" height="32" id="FamixJSONExporter" rx="2.5" ry="2.5" style="stroke:#181818;stroke-width:0.5;" width="156" x="928" y="99"/><ellipse cx="943" cy="115" fill="#ADD1B2" rx="11" ry="11" style="stroke:#181818;stroke-width:1.0;"/><path d="M942.9375,110.8281 Q942.1875,110.8281 941.625,111.125 Q941.0625,111.4063 940.6719,111.9375 Q940.2813,112.4688 940.0781,113.25 Q939.8906,114.0156 939.8906,114.9688 Q939.8906,115.9375 940.0625,116.7031 Q940.25,117.4531 940.6094,117.9688 Q940.9844,118.4844 941.5625,118.7656 Q942.1406,119.0313 942.9375,119.0313 Q943.6719,119.0313 944.4063,118.8594 Q945.1563,118.6875 946.0313,118.3906 L946.0313,120.5469 Q945.625,120.7031 945.2344,120.8281 Q944.8438,120.9375 944.4375,121.0156 Q944.0313,121.0938 943.6094,121.125 Q943.1875,121.1719 942.6875,121.1719 Q941.2813,121.1719 940.25,120.7188 Q939.2344,120.2656 938.5625,119.4531 Q937.8906,118.6406 937.5625,117.5 Q937.2344,116.3438 937.2344,114.9531 Q937.2344,113.5781 937.6094,112.4219 Q937.9844,111.2656 938.7031,110.4375 Q939.4219,109.6094 940.4844,109.1563 Q941.5469,108.6875 942.9375,108.6875 Q943.8438,108.6875 944.75,108.9219 Q945.6563,109.1406 946.4844,109.5469 L945.6563,111.6406 Q944.9688,111.3125 944.2813,111.0781 Q943.5938,110.8281 942.9375,110.8281 Z " fill="#000000"/><text fill="#000000" font-family="sans-serif" font-size="14" lengthAdjust="spacing" textLength="124" x="957" y="119.8467">FamixJSONExporter</text></g><!--reverse link FamixBaseElement to Entity--><g id="link_FamixBaseElement_Entity"><path d="M1375,59.61 C1375,73.31 1375,88.22 1375,98.96 " fill="none" id="FamixBaseElement-backto-Entity" style="stroke:#181818;stroke-width:1.0;"/><polygon fill="none" points="1368,59.27,1375,39.27,1382,59.27,1368,59.27" style="stroke:#181818;stroke-width:1.0;"/></g><!--reverse link Entity to SourceLanguage--><g id="link_Entity_SourceLanguage"><path d="M1320.55,121.86 C1214.92,133.44 974.91,160.76 774,191 C768.22,191.87 762.23,192.82 756.23,193.81 " fill="none" id="Entity-backto-SourceLanguage" style="stroke:#181818;stroke-width:1.0;"/><polygon fill="none" points="1320.06,114.87,1340.7,119.67,1321.57,128.79,1320.06,114.87" style="stroke:#181818;stroke-width:1.0;"/></g><!--reverse link SourcedEntity to Comment--><g id="link_SourcedEntity_Comment"><path d="M810.52,234.02 C785.87,249.87 755.23,269.57 734.51,282.89 " fill="none" id="SourcedEntity-backto-Comment" style="stroke:#181818;stroke-width:1.0;"/><polygon fill="none" points="806.96,227.99,827.57,223.06,814.53,239.77,806.96,227.99" style="stroke:#181818;stroke-width:1.0;"/></g><!--reverse link Entity to SourceAnchor--><g id="link_Entity_SourceAnchor"><path d="M1321.14,129.14 C1253.3,145.68 1137.04,174.04 1066.29,191.3 " fill="none" id="Entity-backto-SourceAnchor" style="stroke:#181818;stroke-width:1.0;"/><polygon fill="none" points="1319.86,122.24,1340.95,124.31,1323.18,135.85,1319.86,122.24" style="stroke:#181818;stroke-width:1.0;"/></g><!--reverse link Entity to SourcedEntity--><g id="link_Entity_SourcedEntity"><path d="M1320.97,124.6 C1236.86,138.09 1069.54,165.34 928,191 C922.37,192.02 916.52,193.11 910.66,194.22 " fill="none" id="Entity-backto-SourcedEntity" style="stroke:#181818;stroke-width:1.0;"/><polygon fill="none" points="1319.88,117.68,1340.74,121.44,1322.1,131.51,1319.88,117.68" style="stroke:#181818;stroke-width:1.0;"/></g><!--reverse link ContainerEntity to ScopingEntity--><g id="link_ContainerEntity_ScopingEntity"><path d="M448.95,413.17 C396.71,429.67 325.46,452.17 278.86,466.89 " fill="none" id="ContainerEntity-backto-ScopingEntity" style="stroke:#181818;stroke-width:1.0;"/><polygon fill="none" points="447.12,406.41,468.3,407.06,451.33,419.76,447.12,406.41" style="stroke:#181818;stroke-width:1.0;"/></g><!--reverse link ScopingEntity to ScriptEntity--><g id="link_ScopingEntity_ScriptEntity"><path d="M184.35,508.41 C153.56,524.52 114.21,545.11 87.88,558.89 " fill="none" id="ScopingEntity-backto-ScriptEntity" style="stroke:#181818;stroke-width:1.0;"/><polygon fill="none" points="181.25,502.13,202.21,499.06,187.74,514.54,181.25,502.13" style="stroke:#181818;stroke-width:1.0;"/></g><!--reverse link ScriptEntity to Module--><g id="link_ScriptEntity_Module"><path d="M54.32,611.12 C52.47,624.95 50.45,640.09 49.01,650.96 " fill="none" id="ScriptEntity-backto-Module" style="stroke:#181818;stroke-width:1.0;"/><polygon fill="none" points="47.38,610.17,56.96,591.27,61.26,612.02,47.38,610.17" style="stroke:#181818;stroke-width:1.0;"/></g><!--reverse link Entity to ImportClause--><g id="link_Entity_ImportClause"><path d="M1322.34,138.04 C1283.12,154.46 1230.6,176.45 1196.06,190.91 " fill="none" id="Entity-backto-ImportClause" style="stroke:#181818;stroke-width:1.0;"/><polygon fill="none" points="1319.78,131.53,1340.93,130.26,1325.19,144.44,1319.78,131.53" style="stroke:#181818;stroke-width:1.0;"/></g><!--reverse link NamedEntity to Alias--><g id="link_NamedEntity_Alias"><path d="M830.62,332.18 C821.38,346.77 810.9,363.31 803.53,374.96 " fill="none" id="NamedEntity-backto-Alias" style="stroke:#181818;stroke-width:1.0;"/><polygon fill="none" points="824.72,328.42,841.33,315.27,836.54,335.91,824.72,328.42" style="stroke:#181818;stroke-width:1.0;"/></g><!--reverse link NamedEntity to Decorator--><g id="link_NamedEntity_Decorator"><path d="M871.38,332.18 C880.62,346.77 891.1,363.31 898.47,374.96 " fill="none" id="NamedEntity-backto-Decorator" style="stroke:#181818;stroke-width:1.0;"/><polygon fill="none" points="865.46,335.91,860.67,315.27,877.28,328.42,865.46,335.91" style="stroke:#181818;stroke-width:1.0;"/></g><!--reverse link SourcedEntity to NamedEntity--><g id="link_SourcedEntity_NamedEntity"><path d="M851,243.61 C851,257.31 851,272.22 851,282.96 " fill="none" id="SourcedEntity-backto-NamedEntity" style="stroke:#181818;stroke-width:1.0;"/><polygon fill="none" points="844,243.27,851,223.27,858,243.27,844,243.27" style="stroke:#181818;stroke-width:1.0;"/></g><!--reverse link StructuralEntity to Parameter--><g id="link_StructuralEntity_Parameter"><path d="M1090.7,418.72 C1068.16,434.45 1040.47,453.76 1021.66,466.89 " fill="none" id="StructuralEntity-backto-Parameter" style="stroke:#181818;stroke-width:1.0;"/><polygon fill="none" points="1087,412.77,1107.41,407.06,1095.01,424.25,1087,412.77" style="stroke:#181818;stroke-width:1.0;"/></g><!--reverse link StructuralEntity to Property--><g id="link_StructuralEntity_Property"><path d="M1129,427.61 C1129,441.31 1129,456.22 1129,466.96 " fill="none" id="StructuralEntity-backto-Property" style="stroke:#181818;stroke-width:1.0;"/><polygon fill="none" points="1122,427.27,1129,407.27,1136,427.27,1122,427.27" style="stroke:#181818;stroke-width:1.0;"/></g><!--reverse link Entity to Inheritance--><g id="link_Entity_Inheritance"><path d="M1351.05,147.69 C1339.94,162.4 1327.26,179.18 1318.36,190.96 " fill="none" id="Entity-backto-Inheritance" style="stroke:#181818;stroke-width:1.0;"/><polygon fill="none" points="1345.82,143,1363.46,131.27,1356.99,151.44,1345.82,143" style="stroke:#181818;stroke-width:1.0;"/></g><!--reverse link Type to Class--><g id="link_Type_Class"><path d="M428.53,499.66 C368.69,518.23 270.78,548.62 220.69,564.16 " fill="none" id="Type-backto-Class" style="stroke:#181818;stroke-width:1.0;"/><polygon fill="none" points="426.79,492.87,447.96,493.63,430.94,506.25,426.79,492.87" style="stroke:#181818;stroke-width:1.0;"/></g><!--reverse link BehavioralEntity to Method--><g id="link_BehavioralEntity_Method"><path d="M847,519.61 C847,533.31 847,548.22 847,558.96 " fill="none" id="BehavioralEntity-backto-Method" style="stroke:#181818;stroke-width:1.0;"/><polygon fill="none" points="840,519.27,847,499.27,854,519.27,840,519.27" style="stroke:#181818;stroke-width:1.0;"/></g><!--reverse link Type to Interface--><g id="link_Type_Interface"><path d="M431.17,508.18 C399.25,524.32 358.26,545.05 330.89,558.89 " fill="none" id="Type-backto-Interface" style="stroke:#181818;stroke-width:1.0;"/><polygon fill="none" points="428.2,501.84,449.21,499.06,434.52,514.34,428.2,501.84" style="stroke:#181818;stroke-width:1.0;"/></g><!--reverse link Type to PrimitiveType--><g id="link_Type_PrimitiveType"><path d="M464.97,518.13 C459.17,532.23 452.76,547.83 448.18,558.96 " fill="none" id="Type-backto-PrimitiveType" style="stroke:#181818;stroke-width:1.0;"/><polygon fill="none" points="458.64,515.1,472.72,499.27,471.59,520.43,458.64,515.1" style="stroke:#181818;stroke-width:1.0;"/></g><!--reverse link Class to ParametricClass--><g id="link_Class_ParametricClass"><path d="M189,611.61 C189,625.31 189,640.22 189,650.96 " fill="none" id="Class-backto-ParametricClass" style="stroke:#181818;stroke-width:1.0;"/><polygon fill="none" points="182,611.27,189,591.27,196,611.27,182,611.27" style="stroke:#181818;stroke-width:1.0;"/></g><!--reverse link Interface to ParametricInterface--><g id="link_Interface_ParametricInterface"><path d="M325.27,607.21 C336.8,622.03 350.04,639.06 359.3,650.96 " fill="none" id="Interface-backto-ParametricInterface" style="stroke:#181818;stroke-width:1.0;"/><polygon fill="none" points="319.63,611.35,312.87,591.27,330.68,602.76,319.63,611.35" style="stroke:#181818;stroke-width:1.0;"/></g><!--reverse link BehavioralEntity to Function--><g id="link_BehavioralEntity_Function"><path d="M890.34,509.33 C917.66,525.29 952.02,545.37 975.14,558.89 " fill="none" id="BehavioralEntity-backto-Function" style="stroke:#181818;stroke-width:1.0;"/><polygon fill="none" points="886.51,515.2,872.78,499.06,893.58,503.11,886.51,515.2" style="stroke:#181818;stroke-width:1.0;"/></g><!--reverse link Method to Accessor--><g id="link_Method_Accessor"><path d="M800.35,600.41 C769.56,616.52 730.21,637.11 703.88,650.89 " fill="none" id="Method-backto-Accessor" style="stroke:#181818;stroke-width:1.0;"/><polygon fill="none" points="797.25,594.13,818.21,591.06,803.74,606.54,797.25,594.13" style="stroke:#181818;stroke-width:1.0;"/></g><!--reverse link Method to ParametricMethod--><g id="link_Method_ParametricMethod"><path d="M839.98,611.12 C837.21,624.95 834.18,640.09 832.01,650.96 " fill="none" id="Method-backto-ParametricMethod" style="stroke:#181818;stroke-width:1.0;"/><polygon fill="none" points="833.16,609.51,843.95,591.27,846.89,612.25,833.16,609.51" style="stroke:#181818;stroke-width:1.0;"/></g><!--reverse link Function to ParametricFunction--><g id="link_Function_ParametricFunction"><path d="M1007.63,611.12 C1010.25,624.95 1013.11,640.09 1015.16,650.96 " fill="none" id="Function-backto-ParametricFunction" style="stroke:#181818;stroke-width:1.0;"/><polygon fill="none" points="1000.72,612.22,1003.88,591.27,1014.47,609.62,1000.72,612.22" style="stroke:#181818;stroke-width:1.0;"/></g><!--reverse link BehavioralEntity to ArrowFunction--><g id="link_BehavioralEntity_ArrowFunction"><path d="M921.88,504.42 C982.7,521.01 1067.08,544.02 1121.86,558.96 " fill="none" id="BehavioralEntity-backto-ArrowFunction" style="stroke:#181818;stroke-width:1.0;"/><polygon fill="none" points="919.69,511.08,902.23,499.06,923.37,497.57,919.69,511.08" style="stroke:#181818;stroke-width:1.0;"/></g><!--reverse link ArrowFunction to ParametricArrowFunction--><g id="link_ArrowFunction_ParametricArrowFunction"><path d="M1195.87,608.67 C1204.23,623.13 1213.66,639.44 1220.31,650.96 " fill="none" id="ArrowFunction-backto-ParametricArrowFunction" style="stroke:#181818;stroke-width:1.0;"/><polygon fill="none" points="1189.77,612.09,1185.82,591.27,1201.89,605.08,1189.77,612.09" style="stroke:#181818;stroke-width:1.0;"/></g><!--reverse link Type to ParameterType--><g id="link_Type_ParameterType"><path d="M516.14,510.95 C537.75,526.64 564.18,545.83 582.18,558.89 " fill="none" id="Type-backto-ParameterType" style="stroke:#181818;stroke-width:1.0;"/><polygon fill="none" points="511.83,516.48,499.75,499.06,520.05,505.15,511.83,516.48" style="stroke:#181818;stroke-width:1.0;"/></g><!--reverse link ContainerEntity to BehavioralEntity--><g id="link_ContainerEntity_BehavioralEntity"><path d="M590.71,412.31 C651.74,428.91 736.63,451.99 791.69,466.96 " fill="none" id="ContainerEntity-backto-BehavioralEntity" style="stroke:#181818;stroke-width:1.0;"/><polygon fill="none" points="588.86,419.07,571.4,407.06,592.54,405.56,588.86,419.07" style="stroke:#181818;stroke-width:1.0;"/></g><!--reverse link Entity to Invocation--><g id="link_Entity_Invocation"><path d="M1398.93,147.21 C1410.29,162.03 1423.34,179.06 1432.47,190.96 " fill="none" id="Entity-backto-Invocation" style="stroke:#181818;stroke-width:1.0;"/><polygon fill="none" points="1393.32,151.4,1386.7,131.27,1404.43,142.88,1393.32,151.4" style="stroke:#181818;stroke-width:1.0;"/></g><!--reverse link Entity to Reference--><g id="link_Entity_Reference"><path d="M1427.25,139.28 C1463.75,155.54 1511.43,176.79 1543.08,190.89 " fill="none" id="Entity-backto-Reference" style="stroke:#181818;stroke-width:1.0;"/><polygon fill="none" points="1424.23,145.6,1408.81,131.06,1429.93,132.81,1424.23,145.6" style="stroke:#181818;stroke-width:1.0;"/></g><!--reverse link StructuralEntity to Variable--><g id="link_StructuralEntity_Variable"><path d="M1165.55,419.19 C1186.58,434.83 1212.21,453.89 1229.68,466.89 " fill="none" id="StructuralEntity-backto-Variable" style="stroke:#181818;stroke-width:1.0;"/><polygon fill="none" points="1161.12,424.62,1149.25,407.06,1169.48,413.38,1161.12,424.62" style="stroke:#181818;stroke-width:1.0;"/></g><!--reverse link NamedEntity to ContainerEntity--><g id="link_NamedEntity_ContainerEntity"><path d="M775.39,320.31 C713.62,336.91 627.7,359.99 571.97,374.96 " fill="none" id="NamedEntity-backto-ContainerEntity" style="stroke:#181818;stroke-width:1.0;"/><polygon fill="none" points="773.8,313.49,794.93,315.06,777.43,327.01,773.8,313.49" style="stroke:#181818;stroke-width:1.0;"/></g><!--reverse link ContainerEntity to Type--><g id="link_ContainerEntity_Type"><path d="M501.97,426.13 C496.17,440.23 489.76,455.83 485.18,466.96 " fill="none" id="ContainerEntity-backto-Type" style="stroke:#181818;stroke-width:1.0;"/><polygon fill="none" points="495.64,423.1,509.72,407.27,508.59,428.43,495.64,423.1" style="stroke:#181818;stroke-width:1.0;"/></g><!--reverse link NamedEntity to StructuralEntity--><g id="link_NamedEntity_StructuralEntity"><path d="M916.74,321.28 C967.67,337.77 1036.96,360.2 1082.32,374.89 " fill="none" id="NamedEntity-backto-StructuralEntity" style="stroke:#181818;stroke-width:1.0;"/><polygon fill="none" points="914.4,327.88,897.53,315.06,918.71,314.56,914.4,327.88" style="stroke:#181818;stroke-width:1.0;"/></g><!--reverse link Entity to Access--><g id="link_Entity_Access"><path d="M1428.8,131.04 C1494.41,149.38 1603.53,179.88 1660.24,195.73 " fill="none" id="Entity-backto-Access" style="stroke:#181818;stroke-width:1.0;"/><polygon fill="none" points="1426.53,137.67,1409.15,125.55,1430.3,124.19,1426.53,137.67" style="stroke:#181818;stroke-width:1.0;"/></g><!--reverse link Entity to Concretisation--><g id="link_Entity_Concretisation"><path d="M1429.03,126.69 C1514.14,143.52 1678.96,176.12 1768.5,193.83 " fill="none" id="Entity-backto-Concretisation" style="stroke:#181818;stroke-width:1.0;"/><polygon fill="none" points="1427.46,133.51,1409.2,122.76,1430.18,119.78,1427.46,133.51" style="stroke:#181818;stroke-width:1.0;"/></g><!--reverse link Type to Enum--><g id="link_Type_Enum"><path d="M529.28,501.54 C580.49,519.4 658.49,546.61 702.9,562.1 " fill="none" id="Type-backto-Enum" style="stroke:#181818;stroke-width:1.0;"/><polygon fill="none" points="526.7,508.05,510.12,494.86,531.31,494.83,526.7,508.05" style="stroke:#181818;stroke-width:1.0;"/></g><!--reverse link StructuralEntity to EnumValue--><g id="link_StructuralEntity_EnumValue"><path d="M1189.95,413.94 C1235.57,430.36 1296.77,452.4 1337.02,466.89 " fill="none" id="StructuralEntity-backto-EnumValue" style="stroke:#181818;stroke-width:1.0;"/><polygon fill="none" points="1187.29,420.42,1170.84,407.06,1192.03,407.25,1187.29,420.42" style="stroke:#181818;stroke-width:1.0;"/></g><!--reverse link SourceAnchor to IndexedFileAnchor--><g id="link_SourceAnchor_IndexedFileAnchor"><path d="M1011.07,243.12 C1013.07,256.95 1015.26,272.09 1016.83,282.96 " fill="none" id="SourceAnchor-backto-IndexedFileAnchor" style="stroke:#181818;stroke-width:1.0;"/><polygon fill="none" points="1004.14,244.06,1008.21,223.27,1017.99,242.06,1004.14,244.06" style="stroke:#181818;stroke-width:1.0;"/></g><!--reverse link Entity to ParameterConcretisation--><g id="link_Entity_ParameterConcretisation"><path d="M1429.35,123.56 C1539.17,138.84 1788.72,173.55 1926.39,192.7 " fill="none" id="Entity-backto-ParameterConcretisation" style="stroke:#181818;stroke-width:1.0;"/><polygon fill="none" points="1428.17,130.46,1409.33,120.78,1430.1,116.6,1428.17,130.46" style="stroke:#181818;stroke-width:1.0;"/></g><!--SRC=[xHrTS-Csxdr_XHxwe9qcdNjMExdnEjbEscwIMwVRXvkRZ2pHYQwov1FbD9vc__lncmG9qaftxMldjWzRYm0142G14Fp8GrEJR4tMIpBGLrLRKffTT6CpxZBoD9AkfjdRSjqylIafkMZ9cdHZzlkhZFttzJqPVrXSN-MlYuoEGzFTo-Aohc-6VaE6iI7qjhzuslJ3I8QSg1-59CYhQXYZyDWtzQkFIe15lnqgybFPtM_BUs84KN99zgTK8DMYa74giWKPlriuXRipAL1NhWaKaKc-WBLv8sBrMOD0SUvotXKP0Egc75X3ytujkaAh1iYWDTJG7nRdVLLaoxvlITaPeIubWCi5GDI2_BfkkqwhlXlBfkEI0iQ6mLmZ2Bs6ADH5YL4BMB861_qub-M-Ygc5U3MFr46o9REkUkY7o00cSZh5TAXcMro36W6dSzHsrfx9yCVXOjmkiM78o_5HA21UHJ0WgAFW0gZRc-EoqAhHHQ8UKfoeDnZ5x5CsHyt5CsTCIh0sAX21ALqLv8fEeQSpO58Jfk61rD0O5fvnD4pFKNJRR5Y1HYjCOtkiqLNr6qRF6rt6TC1XLZqqRVskhxUjzWRomtQC0kf-0M0chVpE7Jf59lz_jEOEpMRqMWjreDhQRRd3lbxznDH0hrUt3Bd8PA4HyYh4uJAxM1J7Ib07GrJZpH_AeQnOWsXK28kIaC51YfC-Kb_8ZdTwmUaQ5G1zrT3PUjc86GmiM0nmcgXmnQ8KkYahCXbqcgoa1_2KyjD8yOOPWcxa0v0R07SS6ktVM1GnhK8a2f7YDC7GwhVZVSz0bslUFMe-ouzvMswfCwkl8QgUtGWo6nOGEMySf29pgnnfcBaiO-vJe1WrQPjatIY4So5T31fYI8fSlj2yANOslELZp8zDBW4EvnXWqG0hGHW8i1OoBJQaQbOD5z8B-Tv1E1Bw-HWHYaVgubdRbDJqhTDgtS5oIgJqVUDWnBGDSA8aWQPBBfdjaDlTnewgcGlZF2sK-b24pf5qouAOVYX79yP6z5jh94Pb89GsVHSCglCG1nbO65Q2kX_FSRpqn3g7IB6-zj5Ij8_K4wxUawlIrRPjT__OiZ73vc9zXItEtmOeI5yWI77Ie2S6Kf7caTINtMDVbIFhCErVJ87rBkz3PEDXV7IcnX0z3zanJsD-GzlRiIN1DAzt2L7JNWyYvsKdVyGztYcQD8dqX2ZkOjgMna6rHTYDCy_86E5TA9DQV4hZKaWhYaseVb2qpUGy2sUrOU4ZCJQco4xbmXgM8qqVPhsP0Xd0Jfvns5RZTYZRbBTuGnxAnwOtM56NWIEc_OPVvrYwaFLtUrNHq3cli6XgFz0TI5bVT-rkKl7fNGHTv2WC2pnHOS6OD630GkKAvEoPcGAcWXMBuQDT5y5CzrrG2NJULt7L9K0DFIUhfcj6qkvcpDFTTwJ-8oZN6sxvodOwu8VoiPHBi9kXUMIUxgKOftVx9UCuk0GSia-4nuOsowOLolzWVlDOY4v3EBtRI-A0wv3kWGpDM7PLDD- -PGm4SchiBWnMUkGwU4d2CEUtNKuGO3c9_L8pNqvXVSXKllXNwvntjZLlioLZLbOZPfSq33TB1eeGWKR9Y2yTf3Q-redQ1cedwk5O9J0Zf7uKneh3jHqP7_fQf-V4XvEUaq2JddF1F3qdldD9WYrTnV-zyS4uEYFPX7Mcv0mEL1VNHdK-Djy0yh1pdrNXpY1_q4uMQVa2WPPGdEKKOGwPBnFTOSQn7phWqSl_qWUU_jfqTH3Y_iWAaH1N5BiLODX-Z8aQTykVEKnfAExW11i5mfbeO4Z1Px1TjWswCIaX4V8I5bGFfEz7Ker1tA7aLy1O2pGOetEidA0UhgXN-6AmlnZipxFAQjRDs3mICRYGaNRurUxGL33waLzgeD-JZgcaCYjZFTxrDnVLziNtFhOP-mW-QuAFd_liYWpK1BrICMime1p1YOLgOEM-_85JOhz1NxWRoJu9iwKyaOZORFQ8v85aYAVqwHqt3SBK6Xf1M_9bWFpV3f2tswxYA_HzWUOXztCgPkkfi-MWGjyZMaqls0O2V1bNdwRRO8IPWY_w_OH9CmpzRt-2oMlx6PS8bdxfyS-men6BBrKkG7b9lJxWqdhHuJCQ5Zo7zl3PskPdAQ3foMTiXZzxtVqS6nvUMaA9B4vQ_Dc5fhxGVnsjWsXfML8nUhrZ2czKSN12mG1WHRWrETnldOESSCRED51FL3WNDJZNH8vwxY4md7lEHlBjZdBS3iX1U0r1ibuM5jJtDxRm2FpCdJYniDj9IXYxja62RFJeeMkI8qSF8Ul8qKC7AKuQtwkVSehWCaHEdI88qVEGNVGKWJx2YqoNSmSKJ1a038a07d_jjTT1atUwJoBxQ5NPrKrTZZgpv4zb9sOmc5fT4LmU6cZStD1Fxz_hKp03VX19dMCPOYUG31mb0_DfJ0aYC86coLeW0HT9VWo36em88SZia8RkWCFcFLaHvfUhz6sdX185FAb4YH4X19GuCfz6Hizqt8h2m6YeOhVAaLJseHoQSkcUqKwUcF4Q75Vb3OQUqYnUOHhNezqNWs71tjEeVtvjoViUh1R4CViYNbN7hCRgsViwM4rkP7bDN_8AATmZ-Avg-pNp4TMyNszQyYHgUD7B7452uXSKBSK0ZQ8M8_CNAXAEH54M9H55EKXnqkWvVsF_LE-Px_2SlqNL7UOZE-Vy3IWFE1NMwA9AKRTVvZtVA4tVhU4u- -_M2Am4TVm2n9JmyZf4JeMN8NeUiek6bwLOxPaJdUBBMJOfg3dJwSBvkabyvv98ePQEwBmMvvwmbPa0uAio4ReA0f6uLHFNQqp502nRVODXS3NFE3OJGPTBCVHNaI6LW6IFofqfYRHtisBe4YE6Xy9uwv9S4okCbpoIem79djX5FNlXD-PLm0NYc2T1hn0dunect2nn7FdMmYD7aWr6RcXXHvEfYaG8_QKP7yx1KafSC_SY5MTBELhJN577w_8jPbqtg4fZa288cc3I1IuWcbXxuckODtifx5_R-920md8FmfwLa5vQJ_11bm5gmWS5o7d0AUA33dd7r0-I4w6W5dUMjFYN7bRCyaEy7197FS4H4Xa7toUChETAbJADcq2TL4rPG8CJ9OUwc73M1qv6T2AAH1saE47lJDOlGuEV9nC0_2oM1FbrZxTWuXih3KsbSbHMIiVydv113zFaVkxCBgmEm8RwR0xPClGGn65rE0TS3gT4Zyz16tUaYN31rYRexjrZsMwrI-187_Yt6wroiFO5FeA8LTbdBgWKcO4ViLM2tmklM_5wqJFA5fW-bipnZfQDhiaJgTyshVyM3NYWHYSPnt8OR_em2R1G06IDQq1-PJ3D6KkCxeKeHgWg0Am6AAvOa_3Bemg0NHdL8B_oiRV4N-9TOdiUqSqLnxovc1J1nCrykAToYfmp06SAukSSX3GXAiLGzt71H58wj4a_fp0uVg6HdKnVY6uFMgZo7B8glE3Wu8EdCQvXGSgXUh2RMlgy31Nbis4eTvhlF_ybGJ8nZuB4ZFsxcNiVmVDlvutmCkLW3kMik8JloKR9odxrj1dxOQScvFf9B8JVbGo3_VETP7OYiRzn5j8SLJZ02AfsZlBBSvgMXF6O4JAkH_L96PWb9n-DYD1odmhYoDoI954DJ_VX65kVZ-P8VU5ZFOdL8HfJ6XuF4aAfo63MgQFtCGbrKE5hnGCu9pHyJ0rIp7- - -l7g-fUhkm-pdtw-W2EVoQKUAhjU_fjKev59afIAESbk5-_wOVCWSM1E3xpGnSWLMhFkwm8dMISogG6TruKP3fuhb0pMvQz480YuXQgDiWlzk5f0-2GJ4y8W84B1RUc1b2Ev7hvdVaYa0XchVAKVrk9V9rdm3e-HFZ6gSFBgCQkrVkD5hecrmNA9klL5kRftBnVBuWEhB00uRp5HywhLjognwib9ZfCrapON5h6mHzmm1fEcVqH-7RUR5_OANCuKwVtpAvnE9nbfdRQ4wdFFzS5YIHkMQR9EwKccdUpC7dugkzth8xKm66o9YqYmCRhKxDLRaHKaCX6mMqYGDEjlcI7j1qofXYCh-TucNI3g0WKmTMy7iRCvBx9jzslN_-PClubsMDEDs16ztx1YFmgipvsHOD-eIKesmVA77GaFRpdH93Ox3J1EHsJlneqqGzE8sVWoDgK5KIKW_tt5lCPt8_r6_pwB6AZee4-vvg1jYVqPh5qQ5j3XAqYsEDgktIKbHi4kIRtQSlNDIRmJR_zA4l8tg2qGSPsc7quvoO9NYH1hXar7hAyT0m1BNpWXJTkCd85wOgzplY-xU-xrrq_gzJf9oCcRSmSUF9khHfEaWIjIZdG-0fqrAVS5n1uinThmqb0nzFGo5Iz3fykQCHCFfB5srEXpYqvLP-yuhBv-ePsTQhJ-Y06UqXHxBnCDMY9Ubz7k7kREwn6J7BLj3T-c4Y6MziHH0PrNce9dzB1HwByOw8PxW4dVrlCa7_bnsQtw8ljT4NRQytVzX9JNT55syPzjsRfA-JRJBm_QeDSDWB_Dl9VwUE5DEJxeEQ49cA1RCZBudBKPXWoPNdPoEKtDZEIbvsHLRjjHWXp8nrW7W6FfUSc_tDVUx6_kIkpNMTB9-gVWVK-B7EO7LifFKS3EFdYaUa-Eoz4nfMxBu_63nAFHB0v6BGmfzd23OD7mwy6qKmpCijKI68C-qLh4XYDagh9wbyosbgn3L6CZYwy9zBJ28K4Z-yI5nZHUfjNf9UC4IjoGIechvdDek-yUMR1nsxydRSdz9pT3URcaVRiTWKqwoTnI5gJm186JM5R947E15URElCVWtUD8pfzSq3aUixWcxWqq5seQPawBUOakcnj07ibMuDYR3nBy8NLGIQ9CFLsbi1jF6ExDmxHPKy_xhLpuExi5frYVc9JOfwIU-8P1I27_mrJzF356_FLB1EHvNQVno8O706yS1GMoo7K1v_TcTrdd86ZoHoDUwwNlSU9KPKASNwhw6myuLlsmBaVh_ZzwRRmJZqYs_WbUVFxus3h-oiS7TKFC2BU7Y9FbIhRHIMQPQZQBbQpgfQXCTPNEIDQLE5v59q-mhrVWLFNec3LiaWvSkbhfPLOoBRsJbVGgua_tsoOsqsXxzWMXuZ523TBNTpAd91vXdr66_NRerzgHiNyztfoS_83rvKxnL0hE_B_ZhnaoSy4hCJb9on-wvhbAsrncI-GqFj7Xfysh1ty_n1_mUpQsu1FcP70UA98kKFb2k7l4XUNcY0fxHEsUrEl8lX8ZnrTrPeeRyZ9hQILqEQZBBdoVjmDhQdtz1GvuZoSKLlBB_MOXTJ- -AjKJNfdZx94_dMJDg_p-NTVxc1tmwGmV8VX3DAX9FbrkLoiog1r4fdHPgfAtPDKynIJTvL3tFCFhBeEIW-k_]--></g></svg>